<svg width="160" height="56" viewBox="0 0 160 56" fill="none" xmlns="http://www.w3.org/2000/svg">
<g clip-path="url(#clip0_290_1666)">
<rect width="160" height="56" rx="5" fill="#1E2133"/>
<g filter="url(#filter0_d_290_1666)">
<path d="M53.2364 26.4121C53.6524 27.2383 53.8809 28.0732 53.9219 28.917C53.9688 29.7549 53.837 30.4609 53.5264 31.0352C53.2979 31.457 53.0166 31.8174 52.6827 32.1162C52.3545 32.415 51.9971 32.6611 51.6104 32.8545C51.2295 33.0479 50.837 33.1855 50.4327 33.2676C50.0342 33.3496 49.6534 33.3906 49.2901 33.3906C48.9327 33.3906 48.5518 33.3496 48.1475 33.2676C47.7491 33.1855 47.3594 33.0479 46.9786 32.8545C46.6036 32.6611 46.2461 32.415 45.9063 32.1162C45.5723 31.8174 45.2969 31.457 45.0801 31.0352C44.9219 30.748 44.8106 30.4258 44.7461 30.0684C44.6817 29.7051 44.6582 29.3213 44.6758 28.917C44.6934 28.5068 44.7579 28.0879 44.8692 27.6602C44.9864 27.2324 45.1475 26.8164 45.3526 26.4121L47.8663 27.4756C47.4854 28.3369 47.4209 29.0488 47.6729 29.6113C47.8545 29.998 48.0948 30.2705 48.3936 30.4287C48.6924 30.5811 48.9913 30.6572 49.2901 30.6572C49.6065 30.6572 49.9112 30.5811 50.2041 30.4287C50.4971 30.2705 50.7286 29.998 50.8985 29.6113C51.1622 29.0605 51.1006 28.3486 50.7139 27.4756L53.2364 26.4121ZM49.3252 26.5527C48.8858 26.5527 48.5137 26.4033 48.209 26.1045C47.9102 25.8057 47.7608 25.4336 47.7608 24.9883C47.7608 24.5547 47.9102 24.1885 48.209 23.8896C48.5137 23.5908 48.8858 23.4414 49.3252 23.4414C49.7588 23.4414 50.125 23.5908 50.4239 23.8896C50.7227 24.1885 50.8721 24.5547 50.8721 24.9883C50.8721 25.4336 50.7227 25.8057 50.4239 26.1045C50.125 26.4033 49.7588 26.5527 49.3252 26.5527ZM58.0176 31C56.1368 31 55.1963 30.1592 55.1963 28.4775V22.1582H57.7891V27.5283C57.7891 27.7041 57.836 27.8945 57.9297 28.0996C58.0293 28.3047 58.2344 28.4072 58.545 28.4072H58.7735V31H58.0176ZM66.7188 29.1982C66.502 29.79 66.25 30.2881 65.9629 30.6924C65.6758 31.0908 65.3653 31.4131 65.0313 31.6592C64.7032 31.9053 64.3663 32.0811 64.0205 32.1865C63.6748 32.2979 63.3321 32.3535 62.9922 32.3535C62.8164 32.3535 62.6495 32.3389 62.4913 32.3096C62.333 32.2861 62.1719 32.251 62.0079 32.2041C61.6797 32.1104 61.3692 31.958 61.0762 31.7471C60.7832 31.5361 60.5342 31.2871 60.3291 31H58.712C58.6123 30.9883 58.5303 30.959 58.4659 30.9121C58.4014 30.8652 58.3692 30.8213 58.3692 30.7803V28.6094C58.3692 28.5449 58.4131 28.4951 58.501 28.46C58.583 28.4248 58.6592 28.4072 58.7295 28.4072H58.8174H59.8106C59.834 28.2783 59.8633 28.1406 59.8985 27.9941C59.9336 27.8477 59.9805 27.7041 60.0391 27.5635L59.7754 27.458L60.8916 25.1113L67.1143 28.0996L66.7188 29.1982ZM62.7637 29.7432C62.9629 29.8018 63.1446 29.79 63.3086 29.708C63.4727 29.6201 63.6192 29.5 63.7481 29.3477L62.3858 28.6973C62.3448 28.8027 62.3213 28.917 62.3155 29.04C62.3096 29.1572 62.333 29.2656 62.3858 29.3652C62.4209 29.4824 62.4766 29.5703 62.5528 29.6289C62.6289 29.6816 62.6993 29.7197 62.7637 29.7432ZM66.5166 32.4766C66.8741 32.1895 67.1875 31.917 67.4571 31.6592C67.7266 31.4014 67.958 31.1055 68.1514 30.7715C68.3448 30.4316 68.4971 30.0244 68.6084 29.5498C68.7256 29.0752 68.8077 28.4775 68.8545 27.7568L71.4473 27.9238C71.3887 28.8086 71.2803 29.5703 71.1221 30.209C70.9639 30.8418 70.75 31.4072 70.4805 31.9053C70.211 32.4033 69.8799 32.8574 69.4873 33.2676C69.1006 33.6777 68.6495 34.085 68.1338 34.4893L66.5166 32.4766ZM70.3135 26.5527C69.8682 26.5527 69.4961 26.4033 69.1973 26.1045C68.8985 25.8057 68.7491 25.4336 68.7491 24.9883C68.7491 24.5547 68.8985 24.1885 69.1973 23.8896C69.4961 23.5908 69.8682 23.4414 70.3135 23.4414C70.7471 23.4414 71.1133 23.5908 71.4122 23.8896C71.711 24.1885 71.8604 24.5547 71.8604 24.9883C71.8604 25.4336 71.711 25.8057 71.4122 26.1045C71.1133 26.4033 70.7471 26.5527 70.3135 26.5527ZM78.0039 25.3311C78.6016 25.3311 79.0997 25.4775 79.4981 25.7705C79.9024 26.0635 80.2217 26.4092 80.4561 26.8076C80.6905 27.2002 80.8545 27.6016 80.9483 28.0117C81.0479 28.4219 81.0977 28.7412 81.0977 28.9697C81.0977 29.9893 80.8077 30.959 80.2276 31.8789C79.6534 32.8047 78.7862 33.5986 77.626 34.2607C77.4913 34.1143 77.3506 33.9531 77.2041 33.7773C77.0635 33.6074 76.9141 33.4346 76.7559 33.2588C76.6036 33.083 76.4571 32.9131 76.3164 32.749C76.1817 32.5908 76.0586 32.4473 75.9473 32.3184C76.2872 32.1484 76.6036 31.9639 76.8965 31.7646C77.1895 31.5654 77.4561 31.3105 77.6963 31H75.1914C75.1094 30.8652 75.0098 30.6074 74.8926 30.2266C74.7813 29.8398 74.7256 29.3945 74.7256 28.8906C74.7256 28.5098 74.7813 28.1084 74.8926 27.6865C75.0098 27.2646 75.1973 26.8809 75.4551 26.5352C75.7129 26.1895 76.0498 25.9023 76.4659 25.6738C76.8877 25.4453 77.4004 25.3311 78.0039 25.3311ZM78.6631 28.4072C78.6631 28.1787 78.5694 27.9795 78.3819 27.8096C78.2002 27.6338 77.9952 27.5459 77.7666 27.5459C77.5381 27.5459 77.3301 27.6309 77.1426 27.8008C76.961 27.9648 76.8702 28.167 76.8702 28.4072H78.6631ZM93.0332 26.4121C93.4493 27.2383 93.6778 28.0732 93.7188 28.917C93.7657 29.7549 93.6338 30.4609 93.3233 31.0352C93.0948 31.457 92.8135 31.8174 92.4795 32.1162C92.1514 32.415 91.794 32.6611 91.4073 32.8545C91.0264 33.0479 90.6338 33.1855 90.2295 33.2676C89.8311 33.3496 89.4502 33.3906 89.087 33.3906C88.7295 33.3906 88.3487 33.3496 87.9444 33.2676C87.5459 33.1855 87.1563 33.0479 86.7754 32.8545C86.4004 32.6611 86.043 32.415 85.7032 32.1162C85.3692 31.8174 85.0938 31.457 84.877 31.0352C84.7188 30.748 84.6075 30.4258 84.543 30.0684C84.4786 29.7051 84.4551 29.3213 84.4727 28.917C84.4903 28.5068 84.5547 28.0879 84.6661 27.6602C84.7832 27.2324 84.9444 26.8164 85.1495 26.4121L87.6631 27.4756C87.2823 28.3369 87.2178 29.0488 87.4698 29.6113C87.6514 29.998 87.8916 30.2705 88.1905 30.4287C88.4893 30.5811 88.7881 30.6572 89.087 30.6572C89.4034 30.6572 89.708 30.5811 90.001 30.4287C90.294 30.2705 90.5254 29.998 90.6954 29.6113C90.959 29.0605 90.8975 28.3486 90.5108 27.4756L93.0332 26.4121ZM89.1221 26.5527C88.6827 26.5527 88.3106 26.4033 88.0059 26.1045C87.7071 25.8057 87.5577 25.4336 87.5577 24.9883C87.5577 24.5547 87.7071 24.1885 88.0059 23.8896C88.3106 23.5908 88.6827 23.4414 89.1221 23.4414C89.5557 23.4414 89.9219 23.5908 90.2207 23.8896C90.5196 24.1885 90.669 24.5547 90.669 24.9883C90.669 25.4336 90.5196 25.8057 90.2207 26.1045C89.9219 26.4033 89.5557 26.5527 89.1221 26.5527ZM97.8145 31C95.9336 31 94.9932 30.1592 94.9932 28.4775V22.1582H97.586V27.5283C97.586 27.7041 97.6329 27.8945 97.7266 28.0996C97.8262 28.3047 98.0313 28.4072 98.3418 28.4072H98.5704V31H97.8145ZM106.735 31C106.565 31 106.404 31 106.252 31C106.106 31 105.944 30.9883 105.769 30.9648C105.593 30.9414 105.405 30.8975 105.206 30.833C105.013 30.7627 104.79 30.6572 104.538 30.5166C104.333 30.6689 104.107 30.7891 103.861 30.877C103.615 30.959 103.355 31 103.079 31H98.5791C98.4854 31 98.3916 30.9736 98.2979 30.9209C98.1983 30.8682 98.1485 30.8213 98.1485 30.7803V28.6094C98.1485 28.5449 98.2041 28.4951 98.3155 28.46C98.4209 28.4248 98.5088 28.4072 98.5791 28.4072H102.253L98.4561 24.0303L105.294 20.9893L106.357 23.3535L102.701 24.9707L105.004 27.6162C105.174 27.7979 105.314 27.9443 105.426 28.0557C105.543 28.1611 105.654 28.2402 105.76 28.293C105.871 28.3457 105.985 28.3779 106.103 28.3896C106.226 28.4014 106.387 28.4072 106.586 28.4072H106.735V31ZM114.672 29.1982C114.455 29.79 114.203 30.2881 113.916 30.6924C113.629 31.0908 113.318 31.4131 112.984 31.6592C112.656 31.9053 112.319 32.0811 111.974 32.1865C111.628 32.2979 111.285 32.3535 110.945 32.3535C110.77 32.3535 110.603 32.3389 110.444 32.3096C110.286 32.2861 110.125 32.251 109.961 32.2041C109.633 32.1104 109.322 31.958 109.029 31.7471C108.736 31.5361 108.487 31.2871 108.282 31H106.665C106.565 30.9883 106.483 30.959 106.419 30.9121C106.355 30.8652 106.322 30.8213 106.322 30.7803V28.6094C106.322 28.5449 106.366 28.4951 106.454 28.46C106.536 28.4248 106.612 28.4072 106.683 28.4072H106.771H107.764C107.787 28.2783 107.816 28.1406 107.852 27.9941C107.887 27.8477 107.934 27.7041 107.992 27.5635L107.729 27.458L108.845 25.1113L115.067 28.0996L114.672 29.1982ZM110.717 29.7432C110.916 29.8018 111.098 29.79 111.262 29.708C111.426 29.6201 111.572 29.5 111.701 29.3477L110.339 28.6973C110.298 28.8027 110.274 28.917 110.269 29.04C110.263 29.1572 110.286 29.2656 110.339 29.3652C110.374 29.4824 110.43 29.5703 110.506 29.6289C110.582 29.6816 110.652 29.7197 110.717 29.7432Z" fill="white"/>
</g>
<g filter="url(#filter1_d_290_1666)">
<path d="M8.30883 -20.0002C8.39622 -20.0002 8.46714 -19.9293 8.46714 -19.8419L8.46682 -19.7989C8.44529 -17.6887 8.76062 1.10483 26.2545 11.143C26.3302 11.1867 26.3564 11.2833 26.3131 11.3593C26.2697 11.4353 26.1731 11.4615 26.0968 11.4178C8.44655 1.29004 8.12837 -17.6729 8.15022 -19.8017L8.15053 -19.8416C8.15053 -19.9293 8.22145 -20.0002 8.30883 -20.0002Z" fill="#4A6173"/>
<path d="M-4.80705 20.9719C-4.745 21.0336 -4.64463 21.0324 -4.58321 20.9706C-0.241641 16.5749 2.51343 11.0993 4.24841 5.61478C4.09359 5.68602 3.91946 5.79714 3.8153 5.93993C2.08633 11.2402 -0.615865 16.5027 -4.80832 20.7477C-4.86974 20.8101 -4.8691 20.9108 -4.80705 20.9719Z" fill="#4A6173"/>
<path d="M10.5912 19.1825C10.4807 19.0597 10.3882 18.9175 10.3125 18.7671C9.85411 29.5687 8.31954 35.3004 8.29073 35.4046C8.2673 35.4891 8.31669 35.5762 8.4009 35.5993C8.4867 35.6237 8.57218 35.5733 8.59561 35.4891C8.62442 35.3859 10.1289 29.7751 10.6105 19.1964C10.6041 19.1914 10.5972 19.1895 10.5912 19.1825Z" fill="#4A6173"/>
<path d="M10.1416 2.7311C10.272 3.10152 10.3663 3.48397 10.5199 3.84521C10.1587 -3.01905 9.34309 -10.9404 7.80757 -19.8686C7.79427 -19.9456 7.72715 -20 7.6518 -20C7.64293 -20 7.63375 -19.9994 7.62457 -19.9978C7.53877 -19.9829 7.48052 -19.9009 7.4954 -19.8148C8.94512 -11.3862 9.75277 -3.85614 10.1416 2.7311Z" fill="#4A6173"/>
<path d="M-1.18134 22.6374C-1.18134 22.6374 -0.957188 23.5739 -0.244833 23.5213C0.467523 23.4684 0.50394 22.3011 -1.18134 22.6374Z" fill="#4A6173"/>
<path d="M-1.97278 20.4206C-1.97278 20.4206 -0.389763 20.7493 -0.0335849 19.9882C0.322593 19.2271 -1.24079 19.0019 -1.97278 20.4206Z" fill="#4A6173"/>
<path d="M-0.977067 22.0064C-0.977067 22.0064 -0.41921 22.5386 0.218744 22.1099C0.857014 21.6809 0.117428 20.6697 -0.977067 22.0064Z" fill="#4A6173"/>
<path d="M-0.947298 24.123C-0.947298 24.123 -0.825092 25.3732 -0.0864578 25.2786C0.652493 25.1836 0.368502 24.0122 -0.947298 24.123Z" fill="#4A6173"/>
<path d="M8.07766 37.8391C8.07766 37.8391 8.15935 41.0529 6.8103 41.1495C5.46126 41.2464 7.44635 38.3611 8.07766 37.8391Z" fill="#4A6173"/>
<path d="M8.48097 37.0735C8.48097 37.0735 8.48793 38.9861 9.5495 39.7181C10.6114 40.4501 9.92974 38.5856 8.48097 37.0735Z" fill="#4A6173"/>
<path d="M8.73082 36.5524C8.73082 36.5524 9.58185 38.4916 10.903 38.4292C12.2245 38.3671 9.88768 36.8053 8.73082 36.5524Z" fill="#4A6173"/>
<path d="M8.50134 36.4983C8.50134 36.4983 8.12934 37.8882 7.06967 37.9829C6.01001 38.0775 7.57971 36.9067 8.50134 36.4983Z" fill="#4A6173"/>
<path d="M8.04504 36.3447C8.04504 36.3447 6.58043 35.9139 5.92887 36.5613C5.2773 37.2084 7.02843 36.9127 8.04504 36.3447Z" fill="#4A6173"/>
<path d="M6.83057 37.178C6.83057 37.178 5.34601 37.2641 4.88821 38.0696C4.4304 38.8747 4.87776 39.0903 5.67053 38.509C6.46331 37.9271 6.83057 37.178 6.83057 37.178Z" fill="#4A6173"/>
<path d="M8.6735 36.0695C8.6735 36.0695 10.9084 35.1514 11.5672 35.5433C12.2261 35.9356 10.7669 36.646 8.6735 36.0695Z" fill="#4A6173"/>
<path d="M8.54189 35.7831C8.51466 35.7945 8.74166 34.5737 9.66139 34.0792C10.5808 33.5846 9.90961 35.2136 8.54189 35.7831Z" fill="#4A6173"/>
<path d="M7.87573 35.9761C7.87573 35.9761 7.66424 34.5599 6.86672 34.5017C6.06919 34.4431 7.41254 35.8836 7.87573 35.9761Z" fill="#4A6173"/>
<path d="M8.01114 35.4307C8.01114 35.4307 8.61679 34.3729 8.28436 33.7201C7.95224 33.0669 7.29182 34.3089 8.01114 35.4307Z" fill="#4A6173"/>
<path d="M7.29626 36.0024C7.26017 36.0188 6.22045 36.2674 5.53596 35.8197C4.85146 35.3717 5.55147 34.6913 6.04664 35.1064C6.54212 35.5212 7.29626 36.0024 7.29626 36.0024Z" fill="#4A6173"/>
<path d="M6.82544 38.5155C6.82544 38.5155 6.58673 40.4104 5.27441 40.7295C3.96241 41.0487 5.2706 39.1639 6.82544 38.5155Z" fill="#4A6173"/>
<path d="M5.43494 36.8568C5.43494 36.8568 4.10141 36.6523 3.29502 37.4581C2.48832 38.2635 4.12958 38.4246 5.43494 36.8568Z" fill="#4A6173"/>
<path d="M5.40076 35.9715C5.40076 35.9715 3.86334 34.998 2.97622 35.5793C2.0891 36.1605 3.64235 36.7377 5.40076 35.9715Z" fill="#4A6173"/>
<path d="M8.46296 39.0553C8.46296 39.0553 9.94782 40.5228 9.38617 41.4337C8.82452 42.3445 8.25021 40.5966 8.46296 39.0553Z" fill="#4A6173"/>
<path d="M10.1591 38.7056C10.1591 38.7056 10.9841 38.6533 11.6547 39.2602C12.325 39.8669 11.3764 40.8021 10.1591 38.7056Z" fill="#4A6173"/>
<path d="M10.1087 36.6735C10.1087 36.6735 11.4536 36.0865 12.2838 36.5041C13.1139 36.9214 12.2841 37.9092 10.1087 36.6735Z" fill="#4A6173"/>
<path d="M8.24455 40.332C8.24455 40.332 9.11584 42.2835 8.14355 42.7588C7.17159 43.234 7.77313 41.0855 8.24455 40.332Z" fill="#4A6173"/>
<path d="M9.76544 40.5046C9.76544 40.5046 9.77019 41.7799 10.631 41.9797C11.4922 42.1798 10.91 40.8792 9.76544 40.5046Z" fill="#4A6173"/>
<path d="M10.5117 40.0752C10.5117 40.0752 10.7688 41.3941 11.5619 41.5091C12.3547 41.6243 12.1188 40.3826 10.5117 40.0752Z" fill="#4A6173"/>
<path d="M7.3197 41.627C7.3197 41.627 7.09524 43.886 6.14828 43.6745C5.201 43.463 6.20653 41.906 7.3197 41.627Z" fill="#4A6173"/>
<path d="M8.95501 42.1537C8.89739 42.1389 8.77043 43.1748 9.58219 43.5205C10.394 43.8666 10.2236 42.4846 8.95501 42.1537Z" fill="#4A6173"/>
<path d="M6.07829 41.6623C6.14668 41.6604 5.32382 42.9711 4.45506 42.7384C3.58631 42.5057 4.83689 41.6978 6.07829 41.6623Z" fill="#4A6173"/>
<path d="M4.77612 39.4534C4.77612 39.4534 4.21035 40.9247 3.10984 40.6619C2.00965 40.3991 3.55499 39.4018 4.77612 39.4534Z" fill="#4A6173"/>
<path d="M4.2655 38.5149C4.2655 38.5149 2.83066 38.1081 2.13255 38.8014C1.43476 39.4948 2.98548 39.9007 4.2655 38.5149Z" fill="#4A6173"/>
<path d="M11.4972 37.5889C11.4972 37.5889 13.1819 37.2745 13.5219 38.49C13.8619 39.7057 11.6654 38.5011 11.4972 37.5889Z" fill="#4A6173"/>
<path d="M11.8908 38.8973C11.8908 38.8973 13.5723 39.3051 13.4723 40.1457C13.3722 40.9863 12.1552 40.09 11.8908 38.8973Z" fill="#4A6173"/>
<path d="M12.1726 40.7209C12.1726 40.7209 12.3882 42.0589 12.9907 41.8584C13.5932 41.658 12.9898 40.7703 12.1726 40.7209Z" fill="#4A6173"/>
<path d="M11.3235 41.6225C11.3235 41.6225 12.4608 41.7754 12.3838 42.4858C12.3069 43.1957 11.2127 42.8199 11.3235 41.6225Z" fill="#4A6173"/>
<path d="M10.2308 42.2193C10.2359 42.1845 11.1933 42.0737 11.224 42.8759C11.2547 43.6782 10.0668 43.3702 10.2308 42.2193Z" fill="#4A6173"/>
<path d="M5.12756 41.2107C5.12756 41.2107 4.13342 42.4651 3.26245 42.2118C2.39148 41.9585 3.5379 40.4322 5.12756 41.2107Z" fill="#4A6173"/>
<path d="M9.78196 35.4169C9.78196 35.4169 11.3453 35.4397 11.7458 34.7622C12.146 34.0853 10.6976 33.8067 9.78196 35.4169Z" fill="#4A6173"/>
<path d="M6.34019 34.686C6.3766 34.6908 6.16479 32.9988 5.13362 33.2543C4.10212 33.5098 5.26342 34.5486 6.34019 34.686Z" fill="#4A6173"/>
<path d="M5.01074 34.7617C5.01074 34.7617 4.33764 33.7061 3.59141 34.1358C2.84518 34.5654 3.40873 35.5405 5.01074 34.7617Z" fill="#4A6173"/>
<path d="M7.38176 34.1088C7.40709 34.124 7.93264 32.8107 7.3045 32.3589C6.67605 31.9071 5.6167 33.0466 7.38176 34.1088Z" fill="#4A6173"/>
<path d="M3.27173 36.6652C3.27173 36.6652 2.09555 36.2451 1.53674 37.0673C0.97794 37.8898 2.41912 38.0494 3.27173 36.6652Z" fill="#4A6173"/>
<path d="M12.1301 35.9793C12.1301 35.9793 12.7247 36.7369 13.35 36.3918C13.9753 36.0468 13.5213 34.9706 12.1301 35.9793Z" fill="#4A6173"/>
<path d="M8.65613 43.0174C8.74858 43.0006 8.94519 44.7891 7.89407 44.729C6.84326 44.6688 7.271 43.2694 8.65613 43.0174Z" fill="#4A6173"/>
<path d="M9.47617 33.7641C9.47838 33.8908 10.5419 33.2782 10.3845 32.4604C10.2268 31.6426 9.45306 32.3948 9.47617 33.7641Z" fill="#4A6173"/>
<path d="M10.486 34.2949C10.486 34.2949 12.0618 33.933 12.0681 33.0931C12.0744 32.2528 10.5598 32.7005 10.486 34.2949Z" fill="#4A6173"/>
<path d="M12.0523 35.3205C12.0523 35.3205 12.7812 35.5715 13.1823 34.9155C13.5834 34.2599 12.4896 33.6491 12.0523 35.3205Z" fill="#4A6173"/>
<path d="M12.9622 37.2318C12.9622 37.2318 13.5948 38.3174 14.2267 37.923C14.8586 37.5288 14.1118 36.5825 12.9622 37.2318Z" fill="#4A6173"/>
<path d="M6.981 43.8619C6.981 43.8619 7.09877 44.8203 6.46398 44.8576C5.82919 44.8947 5.85294 44.0927 6.981 43.8619Z" fill="#4A6173"/>
<path d="M27.9027 12.0091C27.9027 12.0091 30.9997 12.8722 30.6971 14.1905C30.3944 15.5085 28.2171 12.7655 27.9027 12.0091Z" fill="#4A6173"/>
<path d="M27.2888 11.3991C27.2888 11.3991 29.1197 11.9525 30.1307 11.1519C31.1412 10.3508 29.159 10.4566 27.2888 11.3991Z" fill="#4A6173"/>
<path d="M26.8637 11.0073C26.8637 11.0073 28.9669 10.7616 29.2945 9.48003C29.6219 8.19842 27.4443 9.97552 26.8637 11.0073Z" fill="#4A6173"/>
<path d="M26.7445 11.2112C26.7445 11.2112 27.9647 11.9739 27.7447 13.0149C27.5247 14.0562 26.8652 12.2123 26.7445 11.2112Z" fill="#4A6173"/>
<path d="M26.464 11.6025C26.464 11.6025 25.6231 12.8768 26.0515 13.6892C26.4795 14.5016 26.7097 12.7407 26.464 11.6025Z" fill="#4A6173"/>
<path d="M26.9051 13.0076C26.9051 13.0076 26.5527 14.4522 27.1888 15.1257C27.8245 15.7991 28.1617 15.4347 27.8378 14.5064C27.5139 13.5784 26.9051 13.0076 26.9051 13.0076Z" fill="#4A6173"/>
<path d="M26.3849 10.9209C26.3849 10.9209 26.1614 8.51503 26.7294 7.99992C27.297 7.48481 27.549 9.08809 26.3849 10.9209Z" fill="#4A6173"/>
<path d="M26.0724 10.9628C26.0752 10.9922 24.9747 10.4176 24.7708 9.39339C24.5673 8.3695 25.928 9.48805 26.0724 10.9628Z" fill="#4A6173"/>
<path d="M26.062 11.6563C26.062 11.6563 24.6462 11.4439 24.3568 12.1895C24.0671 12.9347 25.8382 12.072 26.062 11.6563Z" fill="#4A6173"/>
<path d="M25.5804 11.3674C25.5804 11.3674 24.7465 10.4787 24.0247 10.6054C23.3031 10.7317 24.2973 11.7271 25.5804 11.3674Z" fill="#4A6173"/>
<path d="M25.9176 12.2181C25.9229 12.2573 25.8561 13.3243 25.2274 13.8476C24.5986 14.371 24.1531 13.5022 24.6948 13.1505C25.2366 12.7984 25.9176 12.2181 25.9176 12.2181Z" fill="#4A6173"/>
<path d="M28.1829 13.4043C28.1829 13.4043 29.9248 14.1873 29.8456 15.5357C29.7665 16.8838 28.3472 15.081 28.1829 13.4043Z" fill="#4A6173"/>
<path d="M26.1896 14.2477C26.1896 14.2477 25.6035 15.4628 26.1376 16.4699C26.6717 17.4774 27.3065 15.9548 26.1896 14.2477Z" fill="#4A6173"/>
<path d="M25.3331 14.0214C25.3331 14.0214 23.9521 15.2061 24.2481 16.2246C24.5442 17.2431 25.5506 15.927 25.3331 14.0214Z" fill="#4A6173"/>
<path d="M29.1782 11.9966C29.1782 11.9966 31.0161 11.0066 31.7225 11.8105C32.4291 12.614 30.5897 12.6514 29.1782 11.9966Z" fill="#4A6173"/>
<path d="M29.3407 10.2725C29.3407 10.2725 29.5326 9.46829 30.3089 9.00478C31.0852 8.5416 31.7019 9.72252 29.3407 10.2725Z" fill="#4A6173"/>
<path d="M27.3828 9.72559C27.3828 9.72559 27.2153 8.26795 27.8577 7.59643C28.4998 6.9246 29.2014 8.00738 27.3828 9.72559Z" fill="#4A6173"/>
<path d="M30.3349 12.5788C30.3349 12.5788 32.4561 12.3172 32.6258 13.3858C32.7955 14.4543 30.9174 13.2503 30.3349 12.5788Z" fill="#4A6173"/>
<path d="M30.9457 11.1757C30.9457 11.1757 32.1662 11.5446 32.6097 10.78C33.053 10.015 31.639 10.1911 30.9457 11.1757Z" fill="#4A6173"/>
<path d="M30.7534 10.3362C30.7534 10.3362 32.0898 10.4768 32.432 9.75205C32.7743 9.02735 31.518 8.88963 30.7534 10.3362Z" fill="#4A6173"/>
<path d="M31.3027 13.8429C31.3027 13.8429 33.397 14.7189 32.9174 15.5626C32.4377 16.4061 31.2432 14.9886 31.3027 13.8429Z" fill="#4A6173"/>
<path d="M32.2851 12.4339C32.2541 12.4846 33.2074 12.9095 33.7757 12.2345C34.3443 11.5591 32.9731 11.3176 32.2851 12.4339Z" fill="#4A6173"/>
<path d="M30.9731 15.0403C30.9911 14.9745 32.0036 16.1449 31.5265 16.9073C31.0497 17.67 30.6435 16.2374 30.9731 15.0403Z" fill="#4A6173"/>
<path d="M28.4796 15.6385C28.4796 15.6385 29.7207 16.6102 29.1473 17.5857C28.5736 18.5605 28.0727 16.791 28.4796 15.6385Z" fill="#4A6173"/>
<path d="M27.4325 15.8519C27.4325 15.8519 26.6236 17.1047 27.0821 17.975C27.5405 18.8453 28.3827 17.4814 27.4325 15.8519Z" fill="#4A6173"/>
<path d="M28.6651 8.66574C28.6651 8.66574 28.8576 6.96305 30.1196 6.99376C31.3813 7.02447 29.5864 8.77212 28.6651 8.66574Z" fill="#4A6173"/>
<path d="M30.0316 8.67249C30.0316 8.67249 30.9136 7.18414 31.688 7.52607C32.4625 7.868 31.2489 8.76905 30.0316 8.67249Z" fill="#4A6173"/>
<path d="M31.8571 8.93707C31.8571 8.93707 33.1994 9.12292 33.1846 8.48781C33.1697 7.85271 32.1436 8.17026 31.8571 8.93707Z" fill="#4A6173"/>
<path d="M32.4704 10.0128C32.4704 10.0128 32.9497 8.97019 33.6063 9.25165C34.2626 9.53343 33.5829 10.4693 32.4704 10.0128Z" fill="#4A6173"/>
<path d="M32.7214 11.2329C32.6898 11.218 32.8639 10.2698 33.6402 10.4756C34.4162 10.681 33.7738 11.7261 32.7214 11.2329Z" fill="#4A6173"/>
<path d="M30.2627 15.8168C30.2627 15.8168 31.171 17.1345 30.6739 17.8934C30.1765 18.652 29.0529 17.1088 30.2627 15.8168Z" fill="#4A6173"/>
<path d="M26.0857 9.66992C26.0857 9.66992 26.5654 8.18157 26.0351 7.6006C25.5048 7.01964 24.8139 8.32278 26.0857 9.66992Z" fill="#4A6173"/>
<path d="M24.3786 12.7469C24.3938 12.7134 22.7139 12.4205 22.6562 13.4815C22.5986 14.5424 23.9322 13.7363 24.3786 12.7469Z" fill="#4A6173"/>
<path d="M24.062 14.0405C24.062 14.0405 22.8558 14.3752 23.0479 15.2145C23.2404 16.0538 24.3378 15.8002 24.062 14.0405Z" fill="#4A6173"/>
<path d="M24.1322 11.5822C24.1541 11.5626 23.0526 10.6755 22.4365 11.1437C21.8204 11.6123 22.5996 12.9585 24.1322 11.5822Z" fill="#4A6173"/>
<path d="M25.3728 16.2606C25.3728 16.2606 24.6265 17.2623 25.2493 18.0374C25.8724 18.8124 26.4467 17.4811 25.3728 16.2606Z" fill="#4A6173"/>
<path d="M27.311 7.58936C27.311 7.58936 28.2095 7.24267 28.0626 6.54361C27.916 5.84487 26.7541 5.96392 27.311 7.58936Z" fill="#4A6173"/>
<path d="M33.0235 12.9718C33.0345 12.8784 34.8025 13.2144 34.4368 14.2015C34.0717 15.189 32.8588 14.37 33.0235 12.9718Z" fill="#4A6173"/>
<path d="M24.4153 9.47873C24.5372 9.51388 24.2627 8.31743 23.4345 8.22847C22.6066 8.1395 23.0992 9.09976 24.4153 9.47873Z" fill="#4A6173"/>
<path d="M25.2188 8.66797C25.2188 8.66797 25.3344 7.0552 24.5327 6.80318C23.7314 6.55149 23.7159 8.13069 25.2188 8.66797Z" fill="#4A6173"/>
<path d="M26.6585 7.47119C26.6585 7.47119 27.1118 6.8478 26.6021 6.27221C26.0927 5.69663 25.1882 6.56381 26.6585 7.47119Z" fill="#4A6173"/>
<path d="M28.7521 7.16064C28.7521 7.16064 29.9751 6.87381 29.7833 6.15417C29.5911 5.43453 28.4675 5.87112 28.7521 7.16064Z" fill="#4A6173"/>
<path d="M33.3401 14.821C33.3401 14.821 34.2909 14.9891 34.1408 15.6068C33.9907 16.2245 33.2309 15.9668 33.3401 14.821Z" fill="#4A6173"/>
<path d="M6.7483 -18.1437L7.10353 -16.9982C7.14026 -16.8789 10.7521 -4.98318 6.57322 2.82044C4.14519 7.35419 -0.0804939 9.06353 -3.80817 10.5715C-6.58288 11.6939 -9.20372 12.7542 -10.7212 14.8105L-11.3728 15.6929L-11.0321 14.6503C-9.05903 8.61142 -5.62073 6.22613 -2.58736 4.12136C-1.27884 3.21366 -0.042819 2.35631 0.991205 1.27416C4.34403 -2.23443 6.80086 -11.2383 6.75748 -16.9444L6.7483 -18.1437ZM-10.3808 13.8626C-8.77535 12.1988 -6.41825 11.2456 -3.94083 10.2432C-0.268241 8.758 3.89382 7.074 6.26137 2.65328C9.59994 -3.58031 7.87034 -12.5098 7.08517 -15.7027C6.80561 -9.93642 4.42128 -1.80227 1.24765 1.51889C0.188617 2.62668 -1.06133 3.49386 -2.38505 4.41232C-5.21706 6.37716 -8.40714 8.59052 -10.3808 13.8626Z" fill="#4A6173"/>
<path d="M6.93474 -17.1227C7.02117 -17.1227 7.09716 -17.0587 7.10982 -16.9704C8.80364 -5.00218 4.21386 3.0256 -0.767252 5.42006C-5.09363 7.49982 -8.87734 12.075 -8.91501 12.1209C-8.97739 12.1966 -9.08947 12.2071 -9.16419 12.1456C-9.23985 12.0836 -9.25062 11.9718 -9.18888 11.8965C-9.15057 11.8499 -5.31682 7.21456 -0.920481 5.10092C3.94823 2.76059 8.42784 -5.12882 6.75934 -16.921C6.74573 -17.0179 6.81317 -17.1075 6.91005 -17.1211C6.91797 -17.122 6.92619 -17.1227 6.93474 -17.1227Z" fill="#4A6173"/>
<path d="M9.4587 -8.85559L9.34188 -7.1586C9.13482 -4.14708 10.1863 5.15819 13.5562 13.0223C16.9223 20.8769 17.5761 25.434 16.4711 33.3399L16.2945 34.6025L16.1203 33.3396C15.7034 30.3154 13.5435 25.8184 11.4555 21.4696C9.62081 17.6485 7.72372 13.6973 7.05632 10.8152C5.64712 4.72539 8.961 -7.10003 8.99456 -7.21875L9.4587 -8.85559ZM16.2647 32.2002C17.1477 25.026 16.4091 20.5774 13.2313 13.1622C10.2689 6.2492 9.08606 -1.78111 8.97272 -5.73262C8.14987 -2.42982 6.29806 5.9652 7.40205 10.7355C8.06027 13.5792 9.9488 17.5127 11.7753 21.3163C13.6391 25.1982 15.5593 29.1972 16.2647 32.2002Z" fill="#4A6173"/>
<path d="M9.16527 -7.34771C9.17192 -7.34771 9.17856 -7.34708 9.18521 -7.34645C9.28241 -7.33569 9.35206 -7.24798 9.3413 -7.15078C8.84867 -2.75001 7.69591 7.55635 11.5844 14.5938C15.2937 21.3061 16.0951 28.8878 16.1027 28.9638C16.1122 29.0613 16.0416 29.148 15.9444 29.1578C15.8478 29.1673 15.7601 29.097 15.7503 28.9995C15.743 28.9245 14.9477 21.4118 11.2745 14.7651C7.33119 7.62918 8.49312 -2.75571 8.98924 -7.19036C8.99968 -7.28059 9.07662 -7.34771 9.16527 -7.34771Z" fill="#4A6173"/>
<path d="M8.43893 -19.32L8.77802 -19.0392C8.81253 -19.0107 12.2733 -16.0926 15.5764 -8.63408C18.8681 -1.20056 24.5094 2.79274 26.5774 3.4728L27.556 3.79479L26.5261 3.8179C22.6433 3.91256 18.644 2.02055 15.5264 -1.35158C11.7788 -5.40536 9.34568 -11.4673 8.48927 -18.8825L8.43893 -19.32ZM25.6276 3.44875C23.0922 2.15986 18.2182 -1.79419 15.2532 -8.49065C12.5924 -14.4995 9.8475 -17.5151 8.89896 -18.4446C9.79399 -11.3223 12.171 -5.50287 15.7866 -1.59188C18.5955 1.44655 22.138 3.25024 25.6276 3.44875Z" fill="#4A6173"/>
<path d="M8.66535 -19.0803C8.73816 -19.0803 8.80655 -19.035 8.8322 -18.9619C8.85942 -18.8843 11.6012 -11.1387 14.5165 -5.51644C17.4083 0.0608299 24.0829 2.90235 24.1501 2.93052C24.2403 2.9682 24.2827 3.07173 24.245 3.16227C24.2074 3.25251 24.1038 3.29493 24.0136 3.25725C23.9455 3.22876 17.1528 0.336917 14.2027 -5.35275C11.2757 -10.9975 8.52605 -18.7659 8.4985 -18.8438C8.46589 -18.9359 8.51433 -19.0369 8.60677 -19.0696C8.62609 -19.0768 8.64572 -19.0803 8.66535 -19.0803Z" fill="#4A6173"/>
<path d="M6.97149 -15.077L7.08738 -14.6534C8.46587 -9.61877 8.0375 -4.62532 5.77728 0.611921C3.62438 5.60031 -1.31874 7.22005 -1.36844 7.23588C-1.40865 7.24823 -1.45456 7.22574 -1.46786 7.18458C-1.48115 7.14279 -1.45805 7.09815 -1.41657 7.08485C-1.3675 7.06934 3.5085 5.46924 5.63195 0.549235C7.81239 -4.50311 8.27685 -9.3256 7.04907 -14.1772C6.45006 -7.68117 5.64367 -3.42002 3.26472 0.257956C3.24097 0.294682 3.1919 0.305131 3.15517 0.281386C3.11844 0.257641 3.10768 0.208565 3.13174 0.171839C5.5471 -3.56249 6.33069 -7.91482 6.93224 -14.6398L6.97149 -15.077Z" fill="#4A6173"/>
<path d="M8.92875 -5.22555L9.08547 -5.20306C8.70618 -1.36711 9.85038 8.16643 12.148 12.9731C14.4212 17.7288 15.1155 20.9831 15.1225 21.0154C15.131 21.0582 15.1038 21.1003 15.061 21.1091C15.0189 21.1164 14.9765 21.0901 14.9673 21.0477C14.9607 21.0154 14.2695 17.7782 12.0055 13.0412C9.91561 8.6692 8.77552 0.406496 8.86068 -3.97845C7.86497 1.63555 7.29889 7.93468 9.52144 13.3739C9.5379 13.4144 9.51859 13.4607 9.47806 13.4771C9.43754 13.4942 9.39163 13.4743 9.37485 13.4337C6.97437 7.55982 7.80228 0.70537 8.92875 -5.22555Z" fill="#4A6173"/>
</g>
</g>
<rect x="0.5" y="0.5" width="159" height="55" rx="4.5" stroke="white"/>
<defs>
<filter id="filter0_d_290_1666" x="42.6494" y="20.9893" width="74.418" height="17.5" filterUnits="userSpaceOnUse" color-interpolation-filters="sRGB">
<feFlood flood-opacity="0" result="BackgroundImageFix"/>
<feColorMatrix in="SourceAlpha" type="matrix" values="0 0 0 0 0 0 0 0 0 0 0 0 0 0 0 0 0 0 127 0" result="hardAlpha"/>
<feOffset dy="2"/>
<feGaussianBlur stdDeviation="1"/>
<feComposite in2="hardAlpha" operator="out"/>
<feColorMatrix type="matrix" values="0 0 0 0 0 0 0 0 0 0 0 0 0 0 0 0 0 0 0.32 0"/>
<feBlend mode="normal" in2="BackgroundImageFix" result="effect1_dropShadow_290_1666"/>
<feBlend mode="normal" in="SourceGraphic" in2="effect1_dropShadow_290_1666" result="shape"/>
</filter>
<filter id="filter1_d_290_1666" x="-26.9999" y="-25" width="76.4865" height="94.8589" filterUnits="userSpaceOnUse" color-interpolation-filters="sRGB">
<feFlood flood-opacity="0" result="BackgroundImageFix"/>
<feColorMatrix in="SourceAlpha" type="matrix" values="0 0 0 0 0 0 0 0 0 0 0 0 0 0 0 0 0 0 127 0" result="hardAlpha"/>
<feOffset dy="10"/>
<feGaussianBlur stdDeviation="7.5"/>
<feComposite in2="hardAlpha" operator="out"/>
<feColorMatrix type="matrix" values="0 0 0 0 0 0 0 0 0 0 0 0 0 0 0 0 0 0 0.8 0"/>
<feBlend mode="normal" in2="BackgroundImageFix" result="effect1_dropShadow_290_1666"/>
<feBlend mode="normal" in="SourceGraphic" in2="effect1_dropShadow_290_1666" result="shape"/>
</filter>
<clipPath id="clip0_290_1666">
<rect width="160" height="56" rx="5" fill="white"/>
</clipPath>
</defs>
</svg>
