<svg width="204" height="52" viewBox="0 0 204 52" fill="none" xmlns="http://www.w3.org/2000/svg">
<g filter="url(#filter0_d_444_11879)">
<path d="M17.5454 36.6552C19.2584 36.908 20.6859 36.6782 21.8278 35.9655C22.9927 35.2529 23.8492 34.2874 24.3973 33.069C24.9683 31.8506 25.2881 30.4828 25.3566 28.9655C25.4251 27.4253 25.2995 25.9425 24.9797 24.5172H74.7935V34.6897H34.2984C33.7274 37.3333 32.6311 39.5402 31.0095 41.3103C29.4107 43.1035 27.5035 44.4483 25.2881 45.3448C23.0726 46.2414 20.6973 46.6897 18.1621 46.6897C15.6268 46.6897 13.1944 46.1954 10.8647 45.2069C8.53505 44.2184 6.6165 42.7011 5.10907 40.6552C3.62448 38.6092 2.66521 36.2874 2.23125 33.6897C1.82014 31.069 1.95718 28.3103 2.64237 25.4138C3.35041 22.5172 4.73222 19.7241 6.7878 17.0345L14.7361 23.2414C13.6626 24.5287 12.9089 25.8966 12.4749 27.3448C12.0638 28.7931 11.961 30.1839 12.1666 31.5172C12.3721 32.8276 12.9203 33.954 13.8111 34.8966C14.7018 35.8391 15.9466 36.4253 17.5454 36.6552Z" fill="white"/>
<path d="M105.353 34.6897C104.325 37.1954 102.829 39.5287 100.865 41.6897C98.9009 43.8506 96.4456 45.7816 93.4993 47.4828C92.974 46.908 92.4258 46.2759 91.8548 45.5862C91.3067 44.9195 90.7357 44.2414 90.1418 43.5517C89.5708 42.8621 89.0113 42.1954 88.4631 41.5517C87.9378 40.931 87.4582 40.3678 87.0242 39.8621C88.3489 39.1954 89.5823 38.4713 90.7243 37.6897C91.8662 36.908 92.9055 35.908 93.8419 34.6897H84.0779C83.7124 34.1609 83.3013 33.1494 82.8445 31.6552C82.4106 30.1379 82.1936 28.3908 82.1936 26.4138C82.1936 24.9195 82.4106 23.3448 82.8445 21.6897C83.3013 20.0345 84.0436 18.5287 85.0714 17.1724C86.0992 15.8161 87.4239 14.6897 89.0455 13.7931C90.69 12.8966 92.6885 12.4483 95.041 12.4483C97.0052 12.4483 98.6839 12.8621 100.077 13.6897C101.493 14.5172 102.67 15.5517 103.606 16.7931C104.542 18.0345 105.262 19.3563 105.764 20.7586C106.29 22.1379 106.644 23.3908 106.826 24.5172H109.122V34.6897H105.353ZM97.542 24.5172C97.542 23.6207 97.1879 22.8391 96.4799 22.1724C95.7947 21.4828 94.9839 21.1379 94.0475 21.1379C93.2024 21.1379 92.4144 21.4713 91.6835 22.1379C90.9755 22.7816 90.6215 23.5747 90.6215 24.5172H97.542Z" fill="white"/>
<path d="M149.171 24.5172V34.6897H109.122C108.756 34.6897 108.391 34.5862 108.025 34.3793C107.637 34.1724 107.443 33.9885 107.443 33.8276V25.3103C107.443 25.0575 107.66 24.8621 108.094 24.7241C108.505 24.5862 108.848 24.5172 109.122 24.5172H149.171Z" fill="white"/>
<path d="M165.136 34.6897C157.805 34.6897 154.139 31.3908 154.139 24.7931V0H164.246V21.069C164.246 21.7586 164.428 22.5057 164.794 23.3103C165.182 24.1149 165.982 24.5172 167.192 24.5172H168.083V34.6897H165.136Z" fill="white"/>
<path d="M184.253 24.5172C184.208 23.2529 183.899 22.2414 183.328 21.4828C183.054 21.1149 182.655 20.7931 182.129 20.5172C181.627 20.2184 181.044 20.069 180.382 20.069H171.612V10.3103H183.054C184.745 10.3103 186.412 10.7126 188.056 11.5172C189.724 12.3218 191.048 13.3793 192.03 14.6897C192.601 15.4023 193.07 16.1954 193.435 17.069C193.823 17.9425 194.109 18.9425 194.292 20.069C194.383 20.7816 194.509 21.4253 194.668 22C194.828 22.5517 195.102 23.0115 195.491 23.3793C196.084 24.1379 197.364 24.5172 199.328 24.5172H202V34.6897H168.049C167.683 34.6897 167.318 34.5862 166.952 34.3793C166.564 34.1724 166.37 33.9885 166.37 33.8276V25.3103C166.37 25.0575 166.587 24.8621 167.021 24.7241C167.432 24.5862 167.774 24.5172 168.049 24.5172H184.253Z" fill="white"/>
</g>
<path d="M178.84 49.2412C180.028 50.4137 181.478 50.9999 183.191 50.9999C184.881 50.9999 186.309 50.4137 187.473 49.2412C188.638 48.0688 189.221 46.6091 189.221 44.8619C189.221 43.1608 188.638 41.724 187.473 40.5516C186.309 39.3792 184.881 38.793 183.191 38.793C181.478 38.793 180.028 39.3792 178.84 40.5516C177.675 41.724 177.093 43.1608 177.093 44.8619C177.093 46.6091 177.675 48.0688 178.84 49.2412Z" fill="#DEA71A"/>
<defs>
<filter id="filter0_d_444_11879" x="0" y="0" width="204" height="51.4829" filterUnits="userSpaceOnUse" color-interpolation-filters="sRGB">
<feFlood flood-opacity="0" result="BackgroundImageFix"/>
<feColorMatrix in="SourceAlpha" type="matrix" values="0 0 0 0 0 0 0 0 0 0 0 0 0 0 0 0 0 0 127 0" result="hardAlpha"/>
<feOffset dy="2"/>
<feGaussianBlur stdDeviation="1"/>
<feComposite in2="hardAlpha" operator="out"/>
<feColorMatrix type="matrix" values="0 0 0 0 0 0 0 0 0 0 0 0 0 0 0 0 0 0 0.32 0"/>
<feBlend mode="normal" in2="BackgroundImageFix" result="effect1_dropShadow_444_11879"/>
<feBlend mode="normal" in="SourceGraphic" in2="effect1_dropShadow_444_11879" result="shape"/>
</filter>
</defs>
</svg>
