<svg width="330" height="461" viewBox="0 0 330 461" fill="none" xmlns="http://www.w3.org/2000/svg">
<g clip-path="url(#clip0_124_12851)">
<rect width="330" height="461" rx="15" fill="#190F0F"/>
<rect x="16.5" y="16.5" width="297" height="428" rx="13.5" stroke="white" stroke-width="3"/>
<g filter="url(#filter0_d_124_12851)">
<path d="M134.113 77.8305C133.915 77.6567 133.742 77.4547 133.557 77.2802C117.32 76.4087 108.76 83.544 100.412 98.2817C90.9998 114.91 101.467 145 124.287 145C157.52 145 162.291 108.077 160.14 102.088C149.795 95.4211 143.31 86.1304 134.113 77.8305Z" fill="#FFB800"/>
<path d="M126.741 65C121.398 65.0921 116.141 65.5503 111.353 67.329C103.15 70.3651 97.3393 77.9035 91.403 84.4059L91 85.3046L173.218 117.165V102.84L126.741 65Z" fill="black"/>
<path d="M142.961 128.134C142.961 134.186 138.094 139.084 132.108 139.084C126.109 139.084 121.251 134.186 121.251 128.134C121.251 122.09 126.109 117.165 132.108 117.165C138.094 117.165 142.961 122.09 142.961 128.134Z" fill="black"/>
<path d="M202.194 77.83C202.404 77.6562 202.57 77.4542 202.749 77.2797C218.992 76.4082 227.546 83.5436 235.89 98.2813C245.316 114.909 234.849 145 212.024 145C178.796 145 174.02 108.076 176.18 102.088C186.51 95.4206 192.997 86.1299 202.194 77.83Z" fill="#FFB800"/>
<path d="M230.468 74.4919C224.583 68.6967 216.799 67.1096 208.969 65.4951L163.103 102.84V117.165L240 87.3681C237.312 82.6086 234.165 78.1327 230.468 74.4919Z" fill="black"/>
<path d="M193.35 128.134C193.35 134.186 198.213 139.084 204.207 139.084C210.202 139.084 215.06 134.186 215.06 128.134C215.06 122.09 210.202 117.165 204.207 117.165C198.213 117.165 193.35 122.09 193.35 128.134Z" fill="black"/>
</g>
<g filter="url(#filter1_d_124_12851)">
<path d="M142.203 193.926C141.617 195.345 140.764 196.667 139.645 197.891C138.525 199.115 137.125 200.208 135.445 201.172C135.146 200.846 134.833 200.488 134.508 200.098C134.195 199.72 133.87 199.336 133.531 198.945C133.206 198.555 132.887 198.177 132.574 197.812C132.275 197.461 132.001 197.142 131.754 196.855C132.509 196.478 133.212 196.068 133.863 195.625C134.514 195.182 135.107 194.616 135.641 193.926H130.074C129.866 193.626 129.632 193.053 129.371 192.207C129.124 191.348 129 190.358 129 189.238C129 188.392 129.124 187.5 129.371 186.562C129.632 185.625 130.055 184.772 130.641 184.004C131.227 183.236 131.982 182.598 132.906 182.09C133.844 181.582 134.983 181.328 136.324 181.328C137.444 181.328 138.401 181.562 139.195 182.031C140.003 182.5 140.673 183.086 141.207 183.789C141.741 184.492 142.151 185.241 142.438 186.035C142.737 186.816 142.939 187.526 143.043 188.164H144.352V193.926H142.203ZM137.75 188.164C137.75 187.656 137.548 187.214 137.145 186.836C136.754 186.445 136.292 186.25 135.758 186.25C135.276 186.25 134.827 186.439 134.41 186.816C134.007 187.181 133.805 187.63 133.805 188.164H137.75Z" fill="white"/>
<path d="M144.352 193.926C144.143 193.926 143.935 193.867 143.727 193.75C143.505 193.633 143.395 193.529 143.395 193.438V188.613C143.395 188.47 143.518 188.359 143.766 188.281C144 188.203 144.195 188.164 144.352 188.164H148.355V193.926H144.352Z" fill="white"/>
<path d="M148.375 193.926C148.167 193.926 147.958 193.867 147.75 193.75C147.529 193.633 147.418 193.529 147.418 193.438V188.613C147.418 188.47 147.542 188.359 147.789 188.281C148.023 188.203 148.219 188.164 148.375 188.164H152.379V193.926H148.375Z" fill="white"/>
<path d="M152.398 193.926C152.19 193.926 151.982 193.867 151.773 193.75C151.552 193.633 151.441 193.529 151.441 193.438V188.613C151.441 188.47 151.565 188.359 151.812 188.281C152.047 188.203 152.242 188.164 152.398 188.164H156.402V193.926H152.398Z" fill="white"/>
<path d="M156.422 193.926C156.214 193.926 156.005 193.867 155.797 193.75C155.576 193.633 155.465 193.529 155.465 193.438V188.613C155.465 188.47 155.589 188.359 155.836 188.281C156.07 188.203 156.266 188.164 156.422 188.164H160.426V193.926H156.422Z" fill="white"/>
<path d="M160.445 193.926C160.237 193.926 160.029 193.867 159.82 193.75C159.599 193.633 159.488 193.529 159.488 193.438V188.613C159.488 188.47 159.612 188.359 159.859 188.281C160.094 188.203 160.289 188.164 160.445 188.164H164.449V193.926H160.445Z" fill="white"/>
<path d="M164.469 193.926C164.26 193.926 164.052 193.867 163.844 193.75C163.622 193.633 163.512 193.529 163.512 193.438V188.613C163.512 188.47 163.635 188.359 163.883 188.281C164.117 188.203 164.312 188.164 164.469 188.164H168.473V193.926H164.469Z" fill="white"/>
<path d="M168.492 193.926C168.284 193.926 168.076 193.867 167.867 193.75C167.646 193.633 167.535 193.529 167.535 193.438V188.613C167.535 188.47 167.659 188.359 167.906 188.281C168.141 188.203 168.336 188.164 168.492 188.164H172.496V193.926H168.492Z" fill="white"/>
<path d="M172.516 193.926C172.307 193.926 172.099 193.867 171.891 193.75C171.669 193.633 171.559 193.529 171.559 193.438V188.613C171.559 188.47 171.682 188.359 171.93 188.281C172.164 188.203 172.359 188.164 172.516 188.164H176.52V193.926H172.516Z" fill="white"/>
<path d="M176.539 193.926C176.331 193.926 176.122 193.867 175.914 193.75C175.693 193.633 175.582 193.529 175.582 193.438V188.613C175.582 188.47 175.706 188.359 175.953 188.281C176.188 188.203 176.383 188.164 176.539 188.164H180.543V193.926H176.539Z" fill="white"/>
<path d="M180.562 193.926C180.354 193.926 180.146 193.867 179.938 193.75C179.716 193.633 179.605 193.529 179.605 193.438V188.613C179.605 188.47 179.729 188.359 179.977 188.281C180.211 188.203 180.406 188.164 180.562 188.164H184.566V193.926H180.562Z" fill="white"/>
<path d="M184.586 193.926C184.378 193.926 184.169 193.867 183.961 193.75C183.74 193.633 183.629 193.529 183.629 193.438V188.613C183.629 188.47 183.753 188.359 184 188.281C184.234 188.203 184.43 188.164 184.586 188.164H188.59V193.926H184.586Z" fill="white"/>
<path d="M198.336 188.32C198.336 192.057 196.24 193.926 192.047 193.926H188.609C188.401 193.926 188.193 193.867 187.984 193.75C187.763 193.633 187.652 193.529 187.652 193.438V188.613C187.652 188.47 187.776 188.359 188.023 188.281C188.258 188.203 188.453 188.164 188.609 188.164H190.895C191.559 188.164 192.001 187.936 192.223 187.48C192.457 187.025 192.574 186.602 192.574 186.211V184.004H198.336V188.32ZM189.938 175H200.172V179.922H189.938V175Z" fill="white"/>
</g>
<g filter="url(#filter2_d_124_12851)">
<path d="M156.059 346.926C155.525 346.926 154.945 346.9 154.32 346.848C153.695 346.796 153.07 346.652 152.445 346.418C151.82 346.171 151.228 345.799 150.668 345.305C150.108 344.81 149.626 344.113 149.223 343.215C149.118 343.046 148.975 342.818 148.793 342.531C148.624 342.232 148.435 341.9 148.226 341.535L144.789 343.078L149.379 347.316L146.664 349.484C145.974 350.018 145.206 350.52 144.359 350.988C143.526 351.457 142.641 351.854 141.703 352.18C140.766 352.518 139.796 352.785 138.793 352.98C137.803 353.189 136.814 353.293 135.824 353.293C134.444 353.293 133.103 353.046 131.801 352.551C130.512 352.056 129.385 351.249 128.422 350.129C127.732 349.296 127.243 348.404 126.957 347.453C126.684 346.516 126.54 345.565 126.527 344.602C126.514 343.638 126.592 342.72 126.762 341.848C126.944 340.962 127.159 340.161 127.406 339.445C127.654 338.729 127.888 338.124 128.109 337.629C128.344 337.134 128.513 336.822 128.617 336.691L133.754 339.367C133.559 339.771 133.344 340.292 133.109 340.93C132.888 341.568 132.712 342.225 132.582 342.902C132.452 343.579 132.406 344.237 132.445 344.875C132.484 345.5 132.68 346.008 133.031 346.398C133.292 346.724 133.669 346.971 134.164 347.141C134.659 347.323 135.212 347.421 135.824 347.434C136.436 347.447 137.1 347.382 137.816 347.238C138.546 347.108 139.255 346.913 139.945 346.652L134.457 341.574L150.707 333.918C151.215 334.908 151.71 335.819 152.191 336.652C152.556 337.342 152.934 338.02 153.324 338.684C153.715 339.348 153.975 339.803 154.105 340.051C154.236 340.337 154.437 340.598 154.711 340.832C154.997 341.053 155.407 341.164 155.941 341.164H156.508V346.926H156.059ZM142.875 326.008H153.109V330.93H142.875V326.008Z" fill="white"/>
<path d="M156.508 346.926C156.299 346.926 156.091 346.867 155.883 346.75C155.661 346.633 155.551 346.529 155.551 346.438V341.613C155.551 341.47 155.674 341.359 155.922 341.281C156.156 341.203 156.351 341.164 156.508 341.164H179.75V346.926H156.508Z" fill="white"/>
<path d="M179.75 346.926C179.542 346.926 179.333 346.867 179.125 346.75C178.904 346.633 178.793 346.529 178.793 346.438V341.613C178.793 341.47 178.917 341.359 179.164 341.281C179.398 341.203 179.594 341.164 179.75 341.164H181.508C181.351 340.578 181.273 339.94 181.273 339.25C181.273 338.182 181.469 337.193 181.859 336.281C182.263 335.357 182.81 334.549 183.5 333.859C184.203 333.156 185.01 332.609 185.922 332.219C186.846 331.815 187.842 331.613 188.91 331.613L190.062 327.844C190.232 327.896 190.577 328.013 191.098 328.195C191.618 328.365 192.243 328.605 192.973 328.918C193.702 329.217 194.509 329.582 195.394 330.012C196.293 330.428 197.185 330.904 198.07 331.438C198.956 331.971 199.796 332.577 200.59 333.254C201.384 333.918 202.081 334.634 202.68 335.402C203.734 336.822 204.392 338.241 204.652 339.66C204.926 341.066 204.769 342.382 204.184 343.605C203.65 344.647 202.855 345.461 201.801 346.047C200.759 346.633 199.555 346.926 198.187 346.926H179.75ZM186.996 339.25C186.996 339.784 187.185 340.24 187.562 340.617C187.953 340.982 188.415 341.164 188.949 341.164C189.483 341.164 189.926 340.982 190.277 340.617C190.642 340.24 190.824 339.784 190.824 339.25C190.824 338.716 190.642 338.26 190.277 337.883C189.926 337.505 189.483 337.316 188.949 337.316C188.415 337.316 187.953 337.505 187.562 337.883C187.185 338.26 186.996 338.716 186.996 339.25ZM199.027 341.008C199.053 340.93 199.021 340.702 198.93 340.324C198.838 339.947 198.565 339.452 198.109 338.84C197.901 338.579 197.641 338.312 197.328 338.039C197.029 337.753 196.69 337.486 196.312 337.238C196.495 337.798 196.586 338.469 196.586 339.25C196.586 339.94 196.508 340.578 196.351 341.164H198.187C198.643 341.164 198.923 341.112 199.027 341.008Z" fill="white"/>
</g>
<g filter="url(#filter3_d_124_12851)">
<path d="M118.043 270.762C119.02 270.905 119.833 270.775 120.484 270.371C121.148 269.967 121.637 269.421 121.949 268.73C122.275 268.04 122.457 267.266 122.496 266.406C122.535 265.534 122.464 264.694 122.281 263.887H150.68V269.648H127.594C127.268 271.146 126.643 272.396 125.719 273.398C124.807 274.414 123.72 275.176 122.457 275.684C121.194 276.191 119.84 276.445 118.395 276.445C116.949 276.445 115.562 276.165 114.234 275.605C112.906 275.046 111.812 274.186 110.953 273.027C110.107 271.868 109.56 270.553 109.312 269.082C109.078 267.598 109.156 266.035 109.547 264.395C109.951 262.754 110.738 261.172 111.91 259.648L116.441 263.164C115.829 263.893 115.4 264.668 115.152 265.488C114.918 266.309 114.859 267.096 114.977 267.852C115.094 268.594 115.406 269.232 115.914 269.766C116.422 270.299 117.132 270.632 118.043 270.762Z" fill="white"/>
<path d="M168.102 269.648C167.516 271.068 166.663 272.389 165.543 273.613C164.423 274.837 163.023 275.931 161.344 276.895C161.044 276.569 160.732 276.211 160.406 275.82C160.094 275.443 159.768 275.059 159.43 274.668C159.104 274.277 158.785 273.9 158.473 273.535C158.173 273.184 157.9 272.865 157.652 272.578C158.408 272.201 159.111 271.79 159.762 271.348C160.413 270.905 161.005 270.339 161.539 269.648H155.973C155.764 269.349 155.53 268.776 155.27 267.93C155.022 267.07 154.898 266.081 154.898 264.961C154.898 264.115 155.022 263.223 155.27 262.285C155.53 261.348 155.953 260.495 156.539 259.727C157.125 258.958 157.88 258.32 158.805 257.812C159.742 257.305 160.882 257.051 162.223 257.051C163.342 257.051 164.299 257.285 165.094 257.754C165.901 258.223 166.572 258.809 167.105 259.512C167.639 260.215 168.049 260.964 168.336 261.758C168.635 262.539 168.837 263.249 168.941 263.887H170.25V269.648H168.102ZM163.648 263.887C163.648 263.379 163.447 262.936 163.043 262.559C162.652 262.168 162.19 261.973 161.656 261.973C161.174 261.973 160.725 262.161 160.309 262.539C159.905 262.904 159.703 263.353 159.703 263.887H163.648Z" fill="white"/>
<path d="M193.082 263.887V269.648H170.25C170.042 269.648 169.833 269.59 169.625 269.473C169.404 269.355 169.293 269.251 169.293 269.16V264.336C169.293 264.193 169.417 264.082 169.664 264.004C169.898 263.926 170.094 263.887 170.25 263.887H193.082Z" fill="white"/>
<path d="M202.184 269.648C198.004 269.648 195.914 267.78 195.914 264.043V250H201.676V261.934C201.676 262.324 201.78 262.747 201.988 263.203C202.21 263.659 202.665 263.887 203.355 263.887H203.863V269.648H202.184Z" fill="white"/>
<path d="M213.082 263.887C213.056 263.171 212.88 262.598 212.555 262.168C212.398 261.96 212.171 261.777 211.871 261.621C211.585 261.452 211.253 261.367 210.875 261.367H205.875V255.84H212.398C213.362 255.84 214.312 256.068 215.25 256.523C216.201 256.979 216.956 257.578 217.516 258.32C217.841 258.724 218.108 259.173 218.316 259.668C218.538 260.163 218.701 260.729 218.805 261.367C218.857 261.771 218.928 262.135 219.02 262.461C219.111 262.773 219.267 263.034 219.488 263.242C219.827 263.672 220.556 263.887 221.676 263.887H223.199V269.648H203.844C203.635 269.648 203.427 269.59 203.219 269.473C202.997 269.355 202.887 269.251 202.887 269.16V264.336C202.887 264.193 203.01 264.082 203.258 264.004C203.492 263.926 203.688 263.887 203.844 263.887H213.082Z" fill="white"/>
</g>
<g filter="url(#filter4_d_124_12851)">
<path d="M209.996 277.891C210.673 278.555 211.5 278.887 212.477 278.887C213.44 278.887 214.254 278.555 214.918 277.891C215.582 277.227 215.914 276.4 215.914 275.41C215.914 274.447 215.582 273.633 214.918 272.969C214.254 272.305 213.44 271.973 212.477 271.973C211.5 271.973 210.673 272.305 209.996 272.969C209.332 273.633 209 274.447 209 275.41C209 276.4 209.332 277.227 209.996 277.891Z" fill="#FFB800"/>
</g>
</g>
<defs>
<filter id="filter0_d_124_12851" x="76" y="60" width="179" height="110" filterUnits="userSpaceOnUse" color-interpolation-filters="sRGB">
<feFlood flood-opacity="0" result="BackgroundImageFix"/>
<feColorMatrix in="SourceAlpha" type="matrix" values="0 0 0 0 0 0 0 0 0 0 0 0 0 0 0 0 0 0 127 0" result="hardAlpha"/>
<feOffset dy="10"/>
<feGaussianBlur stdDeviation="7.5"/>
<feComposite in2="hardAlpha" operator="out"/>
<feColorMatrix type="matrix" values="0 0 0 0 0 0 0 0 0 0 0 0 0 0 0 0 0 0 0.8 0"/>
<feBlend mode="normal" in2="BackgroundImageFix" result="effect1_dropShadow_124_12851"/>
<feBlend mode="normal" in="SourceGraphic" in2="effect1_dropShadow_124_12851" result="shape"/>
</filter>
<filter id="filter1_d_124_12851" x="114" y="170" width="101.172" height="56.1719" filterUnits="userSpaceOnUse" color-interpolation-filters="sRGB">
<feFlood flood-opacity="0" result="BackgroundImageFix"/>
<feColorMatrix in="SourceAlpha" type="matrix" values="0 0 0 0 0 0 0 0 0 0 0 0 0 0 0 0 0 0 127 0" result="hardAlpha"/>
<feOffset dy="10"/>
<feGaussianBlur stdDeviation="7.5"/>
<feComposite in2="hardAlpha" operator="out"/>
<feColorMatrix type="matrix" values="0 0 0 0 0 0 0 0 0 0 0 0 0 0 0 0 0 0 0.8 0"/>
<feBlend mode="normal" in2="BackgroundImageFix" result="effect1_dropShadow_124_12851"/>
<feBlend mode="normal" in="SourceGraphic" in2="effect1_dropShadow_124_12851" result="shape"/>
</filter>
<filter id="filter2_d_124_12851" x="111.526" y="321.008" width="108.257" height="57.2852" filterUnits="userSpaceOnUse" color-interpolation-filters="sRGB">
<feFlood flood-opacity="0" result="BackgroundImageFix"/>
<feColorMatrix in="SourceAlpha" type="matrix" values="0 0 0 0 0 0 0 0 0 0 0 0 0 0 0 0 0 0 127 0" result="hardAlpha"/>
<feOffset dy="10"/>
<feGaussianBlur stdDeviation="7.5"/>
<feComposite in2="hardAlpha" operator="out"/>
<feColorMatrix type="matrix" values="0 0 0 0 0 0 0 0 0 0 0 0 0 0 0 0 0 0 0.8 0"/>
<feBlend mode="normal" in2="BackgroundImageFix" result="effect1_dropShadow_124_12851"/>
<feBlend mode="normal" in="SourceGraphic" in2="effect1_dropShadow_124_12851" result="shape"/>
</filter>
<filter id="filter3_d_124_12851" x="94.1807" y="245" width="144.019" height="56.8945" filterUnits="userSpaceOnUse" color-interpolation-filters="sRGB">
<feFlood flood-opacity="0" result="BackgroundImageFix"/>
<feColorMatrix in="SourceAlpha" type="matrix" values="0 0 0 0 0 0 0 0 0 0 0 0 0 0 0 0 0 0 127 0" result="hardAlpha"/>
<feOffset dy="10"/>
<feGaussianBlur stdDeviation="7.5"/>
<feComposite in2="hardAlpha" operator="out"/>
<feColorMatrix type="matrix" values="0 0 0 0 0 0 0 0 0 0 0 0 0 0 0 0 0 0 0.8 0"/>
<feBlend mode="normal" in2="BackgroundImageFix" result="effect1_dropShadow_124_12851"/>
<feBlend mode="normal" in="SourceGraphic" in2="effect1_dropShadow_124_12851" result="shape"/>
</filter>
<filter id="filter4_d_124_12851" x="194" y="266.973" width="36.9141" height="36.9141" filterUnits="userSpaceOnUse" color-interpolation-filters="sRGB">
<feFlood flood-opacity="0" result="BackgroundImageFix"/>
<feColorMatrix in="SourceAlpha" type="matrix" values="0 0 0 0 0 0 0 0 0 0 0 0 0 0 0 0 0 0 127 0" result="hardAlpha"/>
<feOffset dy="10"/>
<feGaussianBlur stdDeviation="7.5"/>
<feComposite in2="hardAlpha" operator="out"/>
<feColorMatrix type="matrix" values="0 0 0 0 0 0 0 0 0 0 0 0 0 0 0 0 0 0 0.8 0"/>
<feBlend mode="normal" in2="BackgroundImageFix" result="effect1_dropShadow_124_12851"/>
<feBlend mode="normal" in="SourceGraphic" in2="effect1_dropShadow_124_12851" result="shape"/>
</filter>
<clipPath id="clip0_124_12851">
<rect width="330" height="461" rx="15" fill="white"/>
</clipPath>
</defs>
</svg>
