<svg width="122" height="172" viewBox="0 0 122 172" fill="none" xmlns="http://www.w3.org/2000/svg">
<g clip-path="url(#clip0_94_8794)">
<rect y="0.540527" width="122" height="170.43" rx="5.54545" fill="#190F0F"/>
<rect x="6.09996" y="7.01023" width="109.8" height="158.23" rx="4.99091" stroke="white" stroke-width="1.10909"/>
</g>
<path d="M47.7453 74.7132C47.6621 74.6399 47.5889 74.5548 47.5113 74.4812C40.6681 74.1138 37.0609 77.1219 33.5426 83.3349C29.576 90.3448 33.9872 103.03 43.6046 103.03C57.6102 103.03 59.6206 87.4643 58.714 84.9396C54.3545 82.1289 51.6212 78.2122 47.7453 74.7132Z" fill="#DEA71A"/>
<path d="M44.6383 69.3042C42.3864 69.343 40.1709 69.5362 38.153 70.286C34.6963 71.566 32.2473 74.744 29.7455 77.4852L29.5757 77.8641L64.2251 91.2956V85.2565L44.6383 69.3042Z" fill="black"/>
<path d="M51.4741 95.9195C51.4741 98.4711 49.423 100.536 46.9002 100.536C44.3719 100.536 42.3247 98.4711 42.3247 95.9195C42.3247 93.3714 44.3719 91.2953 46.9002 91.2953C49.4229 91.2953 51.4741 93.3714 51.4741 95.9195Z" fill="black"/>
<path d="M76.4365 74.7127C76.5252 74.6394 76.5949 74.5543 76.6705 74.4807C83.5157 74.1133 87.1209 77.1214 90.6373 83.3344C94.6098 90.3444 90.1986 103.03 80.5793 103.03C66.5757 103.03 64.5633 87.4638 65.4735 84.9391C69.8269 82.1284 72.5606 78.2117 76.4365 74.7127Z" fill="#DEA71A"/>
<path d="M88.3524 73.3055C85.8725 70.8624 82.592 70.1933 79.2921 69.5127L59.9624 85.2564V91.2955L92.3697 78.7338C91.237 76.7273 89.9107 74.8404 88.3524 73.3055Z" fill="black"/>
<path d="M72.7095 95.9195C72.7095 98.4711 74.7587 100.536 77.285 100.536C79.8117 100.536 81.8589 98.4711 81.8589 95.9195C81.8589 93.3714 79.8117 91.2953 77.285 91.2953C74.7587 91.2953 72.7095 93.3714 72.7095 95.9195Z" fill="black"/>
<defs>
<clipPath id="clip0_94_8794">
<rect y="0.540527" width="122" height="171.459" rx="5.54545" fill="white"/>
</clipPath>
</defs>
</svg>
