<svg width="259" height="147" viewBox="0 0 259 147" fill="none" xmlns="http://www.w3.org/2000/svg">
<g filter="url(#filter0_d_444_13002)">
<path d="M78.7332 23.6891C78.414 23.409 78.1329 23.0833 77.8352 22.8018C51.5712 21.3966 37.727 32.9023 24.2238 56.6668C9.00031 83.4796 25.9302 132 62.8413 132C116.594 132 124.31 72.4615 120.83 62.8047C104.099 52.054 93.6087 37.0727 78.7332 23.6891Z" fill="#FFB800"/>
<path d="M66.8097 3C58.1668 3.14852 49.6639 3.88731 41.9193 6.75545C28.6527 11.6513 19.2534 23.8068 9.65175 34.292L9 35.7412L141.983 87.1162V64.0169L66.8097 3Z" fill="black"/>
<path d="M93.0448 104.803C93.0448 114.563 85.1725 122.46 75.4903 122.46C65.7869 122.46 57.9297 114.563 57.9297 104.803C57.9297 95.0574 65.7869 87.1162 75.4903 87.1162C85.1722 87.1162 93.0448 95.0574 93.0448 104.803Z" fill="black"/>
<path d="M188.85 23.6882C189.191 23.408 189.458 23.0823 189.748 22.8008C216.02 21.3956 229.857 32.9013 243.353 56.6659C258.599 83.4786 241.669 131.999 204.75 131.999C151.005 131.999 143.281 72.4605 146.775 62.8037C163.483 52.0531 173.975 37.0717 188.85 23.6882Z" fill="#FFB800"/>
<path d="M234.582 18.3052C225.064 8.96043 212.474 6.40114 199.808 3.79785L125.622 64.0167V87.116L250 39.0681C245.653 31.3934 240.562 24.176 234.582 18.3052Z" fill="black"/>
<path d="M174.546 104.802C174.546 114.562 182.411 122.459 192.106 122.459C201.804 122.459 209.661 114.562 209.661 104.802C209.661 95.0564 201.804 87.1152 192.106 87.1152C182.411 87.1152 174.546 95.0564 174.546 104.802Z" fill="black"/>
</g>
<defs>
<filter id="filter0_d_444_13002" x="0" y="0" width="259" height="147" filterUnits="userSpaceOnUse" color-interpolation-filters="sRGB">
<feFlood flood-opacity="0" result="BackgroundImageFix"/>
<feColorMatrix in="SourceAlpha" type="matrix" values="0 0 0 0 0 0 0 0 0 0 0 0 0 0 0 0 0 0 127 0" result="hardAlpha"/>
<feOffset dy="6"/>
<feGaussianBlur stdDeviation="4.5"/>
<feComposite in2="hardAlpha" operator="out"/>
<feColorMatrix type="matrix" values="0 0 0 0 0 0 0 0 0 0 0 0 0 0 0 0 0 0 0.25 0"/>
<feBlend mode="normal" in2="BackgroundImageFix" result="effect1_dropShadow_444_13002"/>
<feBlend mode="normal" in="SourceGraphic" in2="effect1_dropShadow_444_13002" result="shape"/>
</filter>
</defs>
</svg>
