<svg width="160" height="60" viewBox="0 0 160 60" fill="none" xmlns="http://www.w3.org/2000/svg">
<rect width="154" height="40" rx="4" fill="#1E2133"/>
<path d="M27.8191 27C27.2045 27 26.6042 26.8351 26.0181 26.5054C25.4377 26.1815 24.9797 25.7487 24.644 25.2069C24.5017 24.9773 24.3709 24.7094 24.2514 24.4032C24.1376 24.097 24.0607 23.7495 24.0209 23.3609C23.9811 22.9664 23.9982 22.5277 24.0721 22.0448C24.1461 21.5619 24.314 21.032 24.5757 20.4549L26.9655 21.5767C26.7436 22.0419 26.6241 22.4688 26.6071 22.8574C26.59 23.2461 26.664 23.567 26.829 23.8202C26.9542 24.0204 27.1106 24.1706 27.2984 24.2707C27.4862 24.3649 27.6597 24.412 27.8191 24.412C27.9613 24.412 28.1263 24.4032 28.3141 24.3855C28.5019 24.3678 28.6811 24.2972 28.8518 24.1735C29.0282 24.044 29.1761 23.8437 29.2956 23.5729C29.4208 23.302 29.4834 22.9192 29.4834 22.4246V16.277H32.0013V22.4246C32.0013 23.1371 31.9045 23.776 31.7111 24.3413C31.5176 24.9066 31.2388 25.3836 30.8746 25.7722C30.5162 26.1668 30.078 26.47 29.5602 26.682C29.0424 26.894 28.462 27 27.8191 27Z" fill="#26AE24"/>
<path d="M35.9701 25.1186C34.1436 25.1186 33.2303 24.2736 33.2303 22.5836V16.2328H35.7482V21.6297C35.7482 21.8063 35.7937 21.9977 35.8848 22.2038C35.9815 22.4099 36.1806 22.5129 36.4822 22.5129H36.7041V25.1186H35.9701Z" fill="#26AE24"/>
<path d="M36.7127 25.1186C36.6216 25.1186 36.5306 25.0921 36.4395 25.0391C36.3428 24.9861 36.2944 24.939 36.2944 24.8978V22.7161C36.2944 22.6513 36.3485 22.6013 36.4566 22.5659C36.559 22.5306 36.6444 22.5129 36.7127 22.5129H39.5805L37.3443 19.1653H45.1198L42.7812 22.5129H45.8538V25.1186H36.7127Z" fill="#26AE24"/>
<path d="M50.1641 22.5129C50.1527 22.4423 50.147 22.3628 50.147 22.2744C50.1356 22.2038 50.1299 22.1213 50.1299 22.0271C50.1299 21.927 50.1185 21.824 50.0958 21.718H47.851C47.5608 21.718 47.3019 21.6414 47.0743 21.4883C46.8467 21.3293 46.7329 21.085 46.7329 20.7552V20.5432C46.7671 20.1192 46.8695 19.707 47.0402 19.3066C47.2109 18.9003 47.4357 18.5234 47.7145 18.176C47.9478 17.8934 48.2266 17.6637 48.5509 17.4871C48.8809 17.3045 49.2423 17.2132 49.6349 17.2132C50.1356 17.2132 50.5595 17.3369 50.9066 17.5842C51.2594 17.8315 51.5809 18.1495 51.8711 18.5382C52.167 18.9209 52.3974 19.3832 52.5624 19.9249C52.7331 20.4667 52.8469 21.0526 52.9038 21.6826C52.9152 21.9005 52.9266 22.0713 52.938 22.195C52.9494 22.3127 52.9579 22.4069 52.9636 22.4776C52.9693 22.5483 52.975 22.613 52.9807 22.6719C52.992 22.7249 52.9977 22.7868 52.9977 22.8574C53.0205 23.5817 52.8725 24.1411 52.5539 24.5356C52.2409 24.9243 51.8284 25.1186 51.3163 25.1186H45.8794C45.7884 25.1186 45.6973 25.0921 45.6063 25.0391C45.5096 24.9861 45.4612 24.939 45.4612 24.8978V22.7161C45.4612 22.6513 45.5152 22.6013 45.6234 22.5659C45.7258 22.5306 45.8111 22.5129 45.8794 22.5129H50.1641ZM49.6861 16.1268C49.2593 16.1268 48.898 15.9767 48.6021 15.6763C48.3119 15.376 48.1668 15.0021 48.1668 14.5546C48.1668 14.1188 48.3119 13.7508 48.6021 13.4505C48.898 13.1502 49.2593 13 49.6861 13C50.1072 13 50.4628 13.1502 50.753 13.4505C51.0489 13.7508 51.1968 14.1188 51.1968 14.5546C51.1968 15.0021 51.0489 15.376 50.753 15.6763C50.4628 15.9767 50.1072 16.1268 49.6861 16.1268Z" fill="#26AE24"/>
<rect x="77" width="77" height="40" rx="4" fill="#DEA71A"/>
<rect x="77" width="77" height="40" rx="4" fill="#26AE24"/>
<g filter="url(#filter0_d_309_20660)">
<path d="M95.7842 24C94.9932 24 94.3691 23.8682 93.9121 23.6045C93.4551 23.3408 93.1416 22.916 92.9717 22.3301H92.1104C92.0166 22.3301 91.9199 22.3037 91.8203 22.251C91.7266 22.1982 91.6797 22.1514 91.6797 22.1104V19.9746C91.6797 19.9102 91.7324 19.8604 91.8379 19.8252C91.9492 19.79 92.04 19.7725 92.1104 19.7725H95.3887V20.8887C95.3887 21 95.4268 21.1143 95.5029 21.2314C95.5791 21.3428 95.7373 21.4043 95.9775 21.416H96.3027V24H95.7842ZM91.1963 15.4922H95.8105V17.707H91.1963V15.4922ZM91.8115 22.3564C91.5713 23.335 91.2607 24.1963 90.8799 24.9404C90.5049 25.6846 90.1211 26.3584 89.7285 26.9619L87.5664 25.5381C87.8418 25.1279 88.0967 24.709 88.3311 24.2812C88.5654 23.8594 88.7676 23.417 88.9375 22.9541C89.1133 22.4912 89.2568 21.999 89.3682 21.4775C89.4854 20.9561 89.5674 20.3965 89.6143 19.7988H92.1719V22.3564H91.8115ZM100.688 21.4775C100.688 23.1592 99.7451 24 97.8584 24H96.3115C96.2178 24 96.124 23.9736 96.0303 23.9209C95.9307 23.8682 95.8809 23.8213 95.8809 23.7803V21.6094C95.8809 21.5449 95.9365 21.4951 96.0479 21.46C96.1533 21.4248 96.2412 21.4072 96.3115 21.4072H97.3398C97.6387 21.4072 97.8379 21.3047 97.9375 21.0996C98.043 20.8945 98.0957 20.7041 98.0957 20.5283V19.5352H100.688V21.4775ZM99.2119 17.751C98.7666 17.751 98.3945 17.6016 98.0957 17.3027C97.7969 17.0039 97.6475 16.6318 97.6475 16.1865C97.6475 15.7529 97.7969 15.3867 98.0957 15.0879C98.3945 14.7891 98.7666 14.6396 99.2119 14.6396C99.6396 14.6396 100.003 14.7891 100.302 15.0879C100.606 15.3867 100.759 15.7529 100.759 16.1865C100.759 16.6318 100.606 17.0039 100.302 17.3027C100.003 17.6016 99.6396 17.751 99.2119 17.751ZM109.979 24C109.826 24 109.639 23.9678 109.416 23.9033C109.193 23.833 108.968 23.7041 108.739 23.5166C108.604 23.6221 108.429 23.7305 108.212 23.8418C108.001 23.9473 107.764 24 107.5 24H101.954V21.4072H104.257L102.42 16.8721L104.819 15.8789L107.008 21.3018C107.143 21.2432 107.248 21.1494 107.324 21.0205C107.406 20.8857 107.447 20.6777 107.447 20.3965V15.1582H110.031V20.3965C110.031 20.6602 110.063 20.8623 110.128 21.0029C110.198 21.1436 110.286 21.2432 110.392 21.3018C110.503 21.3604 110.629 21.3926 110.77 21.3984C110.916 21.4043 111.074 21.4072 111.244 21.4072V24H109.979ZM114.962 21.4072L111.112 16.9951L118.056 13.9014L119.102 16.3184L115.41 17.9355L117.66 20.4932C117.924 20.792 118.082 21.1377 118.135 21.5303C118.193 21.917 118.138 22.3008 117.968 22.6816C117.774 23.1035 117.484 23.4287 117.098 23.6572C116.717 23.8857 116.286 24 115.806 24H111.253C111.159 24 111.065 23.9736 110.972 23.9209C110.872 23.8682 110.822 23.8213 110.822 23.7803V21.6094C110.822 21.5449 110.878 21.4951 110.989 21.46C111.095 21.4248 111.183 21.4072 111.253 21.4072H114.962Z" fill="white"/>
</g>
<g style="mix-blend-mode:luminosity" filter="url(#filter1_d_309_20660)">
<path fill-rule="evenodd" clip-rule="evenodd" d="M137.148 19.7775C137.162 19.7803 137.176 19.7838 137.19 19.7881C137.219 19.7969 137.245 19.8086 137.27 19.8229L138.122 20.1385C138.224 20.1762 138.307 20.2402 138.37 20.3286L138.845 20.9934L141.429 22.6725C141.49 22.712 141.544 22.7586 141.593 22.8127C141.714 22.9487 141.807 23.1255 141.861 23.2998C141.972 23.6571 141.935 24.0339 141.778 24.3713C141.722 24.4935 141.644 24.5934 141.562 24.6985C141.466 24.8211 141.368 24.941 141.27 25.0608C140.959 25.4381 140.641 25.8104 140.324 26.1823C139.402 27.2609 138.472 28.3315 137.54 29.4011C136.334 30.7856 135.125 32.1674 133.913 33.5466L133.551 34.1786L133.237 34.7304C133.141 34.9006 132.965 35.002 132.77 35C132.575 34.9979 132.401 34.8929 132.308 34.7207L132.013 34.1747L131.819 33.8359C130.521 32.3609 129.227 30.8824 127.937 29.401C127.005 28.3315 126.075 27.2608 125.154 26.1822C124.836 25.8104 124.519 25.4381 124.208 25.0607C124.109 24.941 124.011 24.821 123.916 24.6985C123.834 24.5933 123.756 24.4934 123.699 24.3712C123.543 24.0338 123.505 23.657 123.616 23.2997C123.671 23.1254 123.763 22.9487 123.885 22.8126C123.933 22.7586 123.988 22.7119 124.048 22.6724L126.798 20.8862L127.196 20.3286C127.259 20.2402 127.342 20.1761 127.444 20.1385L128.274 19.831C128.302 19.8131 128.334 19.7986 128.367 19.7881C128.387 19.7822 128.406 19.7777 128.425 19.7748L128.862 19.613L129.037 18.5158C129.045 18.4669 129.057 18.4191 129.074 18.3729C128.767 17.9087 128.446 17.3832 128.245 16.8588C128.065 16.7751 127.908 16.6535 127.779 16.4974C127.561 16.2338 127.457 15.9119 127.418 15.5756C127.399 15.4199 127.395 15.2637 127.395 15.107C127.395 15.0644 127.401 15.0008 127.396 14.9604C127.366 14.7688 127.33 14.5782 127.298 14.3869C127.273 14.2372 127.248 14.0873 127.231 13.9366C126.664 13.6891 126.112 13.4099 125.571 13.1098C124.731 12.6432 123.901 12.1273 123.161 11.5093C122.933 11.3185 122.711 11.1173 122.516 10.8911C122.149 10.4641 121.866 9.91894 122.066 9.34812C122.37 8.48053 123.415 8.41879 124.184 8.45934C124.736 8.48835 125.282 8.5712 125.825 8.66946C126.599 8.80959 127.366 8.98684 128.129 9.17855C128.202 9.19688 128.276 9.21398 128.349 9.2302C128.683 8.31307 129.117 7.37761 129.684 6.59689C130.419 5.58405 131.164 5.05546 132.44 5.00096C132.842 4.98379 133.18 5.20085 133.503 5.41207C133.564 5.45203 133.654 5.51764 133.727 5.55643C134.557 5.57404 135.323 5.82457 135.947 6.39531C137.008 7.36723 137.328 8.97763 137.533 10.345C137.539 10.3856 137.545 10.4262 137.551 10.4668C138.22 10.5458 138.888 10.6248 139.556 10.7049C140.561 10.8254 141.566 10.9436 142.567 11.0891C143.243 11.1873 144.084 11.4304 144.291 12.1799C144.343 12.3668 144.345 12.5603 144.298 12.7485C144.212 13.0974 143.974 13.3819 143.701 13.6034C143.205 14.0058 142.552 14.2852 141.957 14.5069C141.208 14.7863 140.435 15.0011 139.655 15.1704C139.198 15.2696 138.737 15.3527 138.273 15.4141C138.24 15.9151 138.124 16.5029 137.691 16.749C137.637 16.7795 137.582 16.807 137.526 16.8326C137.464 16.8609 137.401 16.8868 137.338 16.9118C137.267 17.0975 137.18 17.2717 137.075 17.4422C136.943 17.6576 136.831 17.8836 136.692 18.0948C136.631 18.1859 136.569 18.2757 136.505 18.3644C136.524 18.4132 136.537 18.4639 136.545 18.5159L136.722 19.6194L137.148 19.7775Z" fill="white"/>
<path fill-rule="evenodd" clip-rule="evenodd" d="M136.127 18.3397C136.18 18.4025 136.216 18.4801 136.23 18.5665L136.436 19.8533L136.45 19.8677C136.467 19.8695 136.485 19.8736 136.503 19.8803L138.012 20.4396C138.053 20.455 138.085 20.4792 138.111 20.5156L138.621 21.2297L141.256 22.942C141.293 22.9662 141.326 22.994 141.356 23.0273C141.446 23.1284 141.516 23.2658 141.557 23.3953C141.644 23.6761 141.612 23.9704 141.489 24.2352C141.445 24.3309 141.375 24.4176 141.31 24.5006C141.217 24.6206 141.121 24.7383 141.024 24.8555C140.714 25.2314 140.398 25.6023 140.082 25.9727C139.161 27.0504 138.231 28.1203 137.3 29.1892C136.088 30.5815 134.872 31.9711 133.653 33.3577L133.273 34.019L132.96 34.5709C132.921 34.6401 132.852 34.6795 132.773 34.6787C132.694 34.6779 132.626 34.637 132.588 34.567L132.291 34.0175L132.079 33.6473C130.775 32.1644 129.474 30.6785 128.177 29.1894C127.246 28.1205 126.316 27.0507 125.396 25.9729C125.079 25.6025 124.763 25.2315 124.453 24.8556C124.357 24.7384 124.26 24.6207 124.167 24.5007C124.103 24.4178 124.033 24.3311 123.988 24.2354C123.865 23.9706 123.833 23.6763 123.921 23.3954C123.961 23.266 124.031 23.1286 124.122 23.0274C124.152 22.9941 124.184 22.9664 124.221 22.9421L127.021 21.1228L127.455 20.5157C127.481 20.4794 127.512 20.4551 127.554 20.4397L129.063 19.8804C129.09 19.8703 129.117 19.8658 129.144 19.8669L129.352 18.5667C129.365 18.4859 129.397 18.413 129.445 18.3525C129.422 18.3201 129.4 18.2876 129.379 18.2549C129.084 17.8114 128.688 17.1809 128.495 16.6133C128.318 16.5554 128.156 16.452 128.024 16.292C127.846 16.0776 127.766 15.8111 127.734 15.5382C127.717 15.3946 127.714 15.2505 127.714 15.1062C127.714 15.0479 127.719 14.9672 127.71 14.9106C127.68 14.7179 127.644 14.5261 127.612 14.3338C127.578 14.1294 127.545 13.9232 127.529 13.7161C127.517 13.711 127.505 13.7059 127.493 13.7007C126.889 13.4431 126.3 13.1479 125.725 12.8289C124.908 12.3747 124.084 11.8637 123.365 11.2624C122.886 10.8622 122.121 10.1576 122.367 9.45495C122.61 8.75942 123.564 8.74839 124.167 8.78017C124.704 8.80844 125.24 8.88998 125.768 8.98569C126.535 9.1245 127.296 9.30028 128.052 9.49024C128.219 9.53218 128.387 9.56805 128.556 9.60056C128.908 8.58385 129.372 7.57029 129.941 6.7865C130.618 5.8541 131.276 5.37227 132.453 5.32193C132.772 5.30834 133.072 5.51408 133.329 5.68146C133.4 5.72785 133.572 5.84599 133.656 5.87668C134.432 5.88113 135.149 6.09966 135.732 6.63285C136.725 7.54282 137.025 9.11259 137.217 10.3929C137.236 10.5142 137.253 10.6356 137.27 10.757C138.019 10.8455 138.769 10.934 139.518 11.0238C140.52 11.144 141.523 11.2619 142.521 11.4071C143.052 11.4842 143.818 11.6671 143.983 12.2659C144.02 12.3996 144.022 12.5364 143.988 12.6711C143.92 12.9482 143.716 13.1783 143.5 13.3536C143.04 13.7272 142.399 13.9998 141.846 14.2059C141.112 14.4797 140.352 14.6907 139.587 14.8566C139.051 14.9728 138.51 15.0668 137.965 15.1285C137.955 15.6201 137.894 16.2649 137.534 16.4694C137.488 16.4953 137.441 16.5186 137.394 16.5403C137.316 16.5756 137.238 16.6068 137.159 16.6376C137.136 16.6463 137.107 16.6565 137.08 16.6675C137.077 16.6856 137.073 16.7038 137.066 16.7246C136.998 16.9213 136.912 17.096 136.803 17.2737C136.674 17.4855 136.563 17.7094 136.426 17.9168C136.33 18.0615 136.23 18.202 136.127 18.3397Z" fill="#1E2133"/>
<path fill-rule="evenodd" clip-rule="evenodd" d="M135.574 17.1812H130.009C129.912 17.1812 129.832 17.2613 129.832 17.3595V22.5802C129.832 22.6784 129.912 22.7584 130.009 22.7584H135.574C135.671 22.7584 135.751 22.6784 135.751 22.5802V17.3595C135.751 17.2612 135.671 17.1812 135.574 17.1812Z" fill="#1E2133"/>
<path fill-rule="evenodd" clip-rule="evenodd" d="M135.658 17.3589H133.91C133.723 17.4599 133.577 17.589 133.495 17.7543C133.101 18.5472 132.359 20.1613 132.359 20.1613L131.468 20.3316L132.913 21.9831L135.277 21.9265C135.277 21.9265 135.391 21.8353 135.573 21.6841L135.658 17.3589Z" fill="#1E2133"/>
<path fill-rule="evenodd" clip-rule="evenodd" d="M136.617 13.1109L136.537 12.8848C136.508 12.8007 136.423 12.7518 136.336 12.7691C136.249 12.7863 136.189 12.864 136.193 12.9531C136.214 13.3699 136.237 13.7868 136.262 14.2034C136.279 14.4886 136.297 14.7744 136.32 15.0592C136.328 15.1558 136.336 15.2529 136.348 15.3491C136.36 15.4522 136.371 15.5708 136.493 15.609C136.588 15.6387 136.759 15.6309 136.856 15.6152C136.95 15.5998 137.046 15.5694 137.122 15.5105C137.39 15.304 137.584 15.0089 137.669 14.6806C137.728 14.4533 137.748 14.1686 137.748 13.9343C137.747 13.633 137.71 13.1063 137.394 12.9612C137.336 12.9347 137.274 12.9234 137.211 12.9265C137.001 12.9368 136.798 12.9992 136.619 13.1096C136.618 13.1101 136.617 13.1105 136.617 13.1109Z" fill="#1E2133"/>
<path fill-rule="evenodd" clip-rule="evenodd" d="M128.888 13.0781L129 12.6348L129.568 12.7169L129.557 13.0055C129.538 13.5277 129.517 14.0499 129.494 14.572C129.478 14.9297 129.462 15.2877 129.441 15.6452C129.433 15.7665 129.426 15.8882 129.415 16.0092C129.401 16.1713 129.387 16.3351 129.204 16.4148L129.168 16.4302L129.13 16.4366C128.78 16.4962 128.426 16.4431 128.188 16.155C128.038 15.9738 127.973 15.7433 127.946 15.5131C127.93 15.3775 127.927 15.2417 127.927 15.1053C127.927 15.0382 127.931 14.9424 127.921 14.8771C127.891 14.6838 127.855 14.4912 127.822 14.2981C127.783 14.0628 127.744 13.8157 127.735 13.5772C127.726 13.3327 127.751 13.0336 127.997 12.9074C128.065 12.8727 128.14 12.8581 128.216 12.8632C128.429 12.8778 128.669 12.9649 128.888 13.0781Z" fill="#1E2133"/>
<path fill-rule="evenodd" clip-rule="evenodd" d="M129.238 12.9937L129.09 13.5818C129.09 13.5818 128.598 13.211 128.194 13.1837C127.9 13.1637 128.138 14.2038 128.236 14.8272C128.287 15.1519 128.064 16.2923 129.077 16.12C129.124 16.0996 129.238 12.9937 129.238 12.9937Z" fill="white"/>
<path fill-rule="evenodd" clip-rule="evenodd" d="M128.669 13.374C128.669 14.1011 128.577 15.0137 128.577 15.7408C128.577 15.9061 128.584 16.0705 128.613 16.2334C128.693 16.6728 129.006 17.3095 129.556 18.1362C130.059 18.8937 130.886 19.7688 131.124 20.1099C131.26 20.3061 131.559 20.5479 131.8 20.5824C132.122 20.6285 132.466 20.6372 132.791 20.6372C133.116 20.6372 133.46 20.6285 133.782 20.5824C134.035 20.5461 134.299 20.3148 134.453 20.1177C134.455 20.1151 134.457 20.1128 134.458 20.11C135.005 19.3237 135.676 18.6643 136.249 17.7985C136.375 17.607 136.503 17.3573 136.623 17.1616C136.731 16.9846 136.803 16.8335 136.866 16.654C136.881 16.6099 136.873 16.5496 136.911 16.5157C136.956 16.4743 137.231 16.3961 137.43 16.2833C137.774 16.0878 137.754 15.143 137.754 14.7775C137.754 14.0504 136.913 14.1011 136.913 13.374C136.926 13.2259 136.927 13.0772 136.915 12.929C136.907 12.8363 136.83 12.7656 136.738 12.7656H128.844C128.752 12.7656 128.675 12.8363 128.667 12.9291C128.655 13.0772 128.656 13.2259 128.669 13.374Z" fill="#1E2133"/>
<path fill-rule="evenodd" clip-rule="evenodd" d="M128.846 13.3658C128.846 13.3658 128.846 15.4025 128.846 15.9333C128.846 16.4641 128.92 16.7294 129.359 17.446C129.798 18.1625 131.269 19.9006 131.269 19.9006C131.269 19.9006 131.547 20.2588 131.825 20.2986C132.103 20.3384 132.461 20.3517 132.791 20.3517C133.121 20.3517 133.479 20.3384 133.757 20.2986C134.035 20.2588 134.313 19.9006 134.313 19.9006C134.313 19.9006 135.784 18.1625 136.224 17.446C136.507 16.9842 136.609 16.6764 136.669 16.3633C136.743 15.9741 136.736 15.5845 136.736 14.9765C136.736 14.2279 136.736 13.3659 136.736 13.3659C136.749 13.2172 136.749 13.077 136.738 12.9438H132.791H128.844C128.833 13.0769 128.833 13.2171 128.846 13.3658Z" fill="white"/>
<path fill-rule="evenodd" clip-rule="evenodd" d="M128.719 13.5397L128.846 14.7043C128.962 14.9795 129.109 15.2721 129.297 15.5706C130.164 15.8679 131.306 15.3481 131.544 15.6884C131.714 15.933 131.159 16.5372 131.159 16.5372L132.75 15.4196C132.75 15.8826 132.75 16.3458 132.75 16.8089C132.75 17.0595 132.766 17.3115 132.4 17.1702C132.297 17.1302 132.146 17.0832 132.067 17.1111C131.94 17.1564 131.823 17.247 131.951 17.2697C132.078 17.2924 132.48 17.315 132.48 17.315C132.48 17.315 132.69 17.3075 132.69 17.6322C132.69 17.9569 132.69 18.0476 132.69 18.0476C132.69 18.0476 132.593 18.2287 132.442 18.2287C132.292 18.2287 131.444 18.2287 131.444 18.2287C131.444 18.2287 131.279 18.123 131.249 18.0777C131.219 18.0324 131.272 18.3043 131.377 18.4251C131.482 18.5458 131.534 18.5458 131.534 18.5458C131.534 18.5458 131.429 18.3495 131.534 18.3495C131.639 18.3495 132.465 18.3495 132.465 18.3495C132.465 18.3495 132.876 18.4043 132.938 18.6364C132.999 18.8686 132.71 18.9184 132.452 18.9184C132.195 18.9184 132 19.0366 132.397 19.2405C132.795 19.4444 133.088 19.3236 133.088 19.3236C133.088 19.3236 133.171 20.0157 132.953 20.1684C132.735 20.3212 132.603 20.3083 132.525 20.3631C132.615 20.3651 132.621 20.6303 132.709 20.6303C133.279 20.6303 133.727 20.5019 134.114 20.1993C134.454 19.934 134.748 19.5174 135.036 19.1718C135.508 18.0329 135.508 17.9906 135.508 17.9906C135.508 17.9906 136.139 17.5374 136.349 16.5709C136.559 15.6043 136.529 15.121 136.529 15.121L136.824 15.04C136.789 14.2733 136.736 13.3659 136.736 13.3659C136.742 13.2929 136.746 13.2219 136.746 13.1529L135.931 12.9438H132.791H128.844C128.833 13.077 128.705 13.391 128.719 13.5397Z" fill="#1E2133"/>
<path fill-rule="evenodd" clip-rule="evenodd" d="M131.346 21.7392L131.802 23.3659C131.823 23.4384 131.895 23.4823 131.968 23.4667C132.03 23.4533 132.093 23.4434 132.155 23.4351C132.358 23.4088 132.582 23.3977 132.787 23.4029C132.79 23.4029 132.792 23.4029 132.795 23.4029C133 23.3978 133.223 23.4088 133.426 23.4351C133.489 23.4433 133.552 23.4533 133.614 23.4667C133.687 23.4823 133.759 23.4384 133.78 23.3659L134.236 21.7392C134.257 21.6637 134.213 21.5845 134.138 21.5632C134.009 21.5265 133.87 21.4989 133.738 21.4757C133.427 21.4209 133.107 21.3906 132.791 21.3906C132.474 21.3906 132.155 21.4209 131.843 21.4757C131.712 21.4989 131.572 21.5265 131.443 21.5632C131.368 21.5845 131.324 21.6637 131.346 21.7392Z" fill="#1E2133"/>
<path fill-rule="evenodd" clip-rule="evenodd" d="M134.089 21.6824C134.241 21.9349 134.398 22.1859 134.558 22.4331C134.668 22.6021 134.779 22.7716 134.898 22.9341C134.96 23.0189 135.084 23.1906 135.18 23.2336C135.31 23.2918 135.441 23.2619 135.538 23.1597C135.576 23.1188 135.613 23.0622 135.633 23.0094L136.621 20.4653C136.642 20.4116 136.63 20.3539 136.589 20.3128L135.674 19.3854C135.632 19.3434 135.573 19.3314 135.519 19.3539C135.465 19.3764 135.431 19.4269 135.431 19.4858V19.9008L133.879 21.1506C133.773 21.2176 133.716 21.3598 133.703 21.4784C133.694 21.5536 133.745 21.6225 133.819 21.6353L134.089 21.6824Z" fill="#1E2133"/>
<path fill-rule="evenodd" clip-rule="evenodd" d="M128.998 14.2148H128.698C128.642 14.2148 128.596 14.2609 128.596 14.3175V14.6388C128.596 14.6953 128.642 14.7415 128.698 14.7415H128.998C129.054 14.7415 129.1 14.6953 129.1 14.6388V14.3175C129.1 14.2609 129.054 14.2148 128.998 14.2148Z" fill="#1E2133"/>
<path fill-rule="evenodd" clip-rule="evenodd" d="M130.521 12.8047C129.602 12.8047 128.857 13.5541 128.857 14.4784C128.857 15.4028 129.602 16.1522 130.521 16.1522C131.439 16.1522 132.184 15.4028 132.184 14.4784C132.184 13.5541 131.439 12.8047 130.521 12.8047Z" fill="#1E2133"/>
<path fill-rule="evenodd" clip-rule="evenodd" d="M130.52 15.6299C129.888 15.6299 129.375 15.1141 129.375 14.4778C129.375 13.8416 129.888 13.3257 130.52 13.3257C131.153 13.3257 131.665 13.8415 131.665 14.4778C131.665 15.1141 131.153 15.6299 130.52 15.6299Z" fill="#1E2133"/>
<path fill-rule="evenodd" clip-rule="evenodd" d="M130.017 15.799C129.897 15.7602 129.785 15.702 129.686 15.628L130.924 14.3822C130.993 14.3126 131.105 14.3126 131.175 14.3822C131.244 14.4519 131.244 14.5648 131.175 14.6345L130.017 15.799ZM129.541 15.5004L130.614 14.4204C130.649 14.3855 130.649 14.3291 130.614 14.2942C130.58 14.2594 130.524 14.2594 130.489 14.2942L129.428 15.3621C129.462 15.4111 129.5 15.4573 129.541 15.5004Z" fill="white"/>
<path fill-rule="evenodd" clip-rule="evenodd" d="M130.52 12.8047C129.745 12.8047 129.094 13.3377 128.909 14.0592C129.402 14.2848 129.92 14.4677 130.435 14.6216C130.979 14.7843 131.534 14.918 132.092 15.027C132.152 14.8551 132.184 14.6706 132.184 14.4784C132.184 13.5541 131.439 12.8047 130.52 12.8047Z" fill="#1E2133"/>
<path fill-rule="evenodd" clip-rule="evenodd" d="M128.001 9.69781C128.384 9.79418 128.788 9.86161 129.179 9.92591C129.769 10.0232 130.362 10.1082 130.954 10.1897C132.462 10.397 133.974 10.5801 135.485 10.7608C136.821 10.9206 138.157 11.0761 139.493 11.2363C140.492 11.3562 141.496 11.4741 142.491 11.6188C142.921 11.6813 143.643 11.8317 143.779 12.3231C143.876 12.6753 143.62 12.9811 143.367 13.187C142.934 13.5388 142.292 13.8114 141.773 14.0052C141.052 14.2742 140.294 14.4844 139.543 14.6474C138.951 14.7757 138.349 14.8771 137.746 14.9363C136.956 15.014 136.148 15.0213 135.355 14.9934C134.463 14.9621 133.569 14.8835 132.684 14.7662C131.762 14.644 130.841 14.4789 129.937 14.2591C129.14 14.0655 128.332 13.8256 127.576 13.5036C126.98 13.2495 126.395 12.9561 125.829 12.6415C125.034 12.2001 124.2 11.682 123.501 11.0978C123.112 10.7729 122.363 10.1106 122.568 9.52612C122.769 8.95209 123.674 8.96853 124.157 8.99388C124.681 9.02149 125.214 9.10281 125.731 9.19633C126.492 9.33412 127.25 9.50932 128.001 9.69781Z" fill="#1E2133"/>
<path fill-rule="evenodd" clip-rule="evenodd" d="M127.924 10.0094C125.194 9.32377 123.755 9.19387 123.171 9.38923C124.879 12.2181 129.864 13.7138 132.989 14.1083C135.826 14.4663 141.016 14.3192 143.358 12.2441C143.176 12.0876 142.816 11.9905 142.446 11.9366C139.379 11.491 130.041 10.5415 127.924 10.0094ZM122.964 9.49984C124.73 12.4001 129.755 13.8927 132.969 14.2745C135.87 14.6191 140.929 14.5144 143.252 12.5128C143.326 12.4482 143.387 12.3927 143.441 12.3397C143.532 12.4912 143.474 12.6872 143.166 12.9373C142.281 13.6563 139.738 14.418 137.715 14.6169C134.861 14.8976 130.295 14.3139 127.701 13.2081C125.386 12.221 122.22 10.142 122.964 9.49984Z" fill="white"/>
<path fill-rule="evenodd" clip-rule="evenodd" d="M129.393 12.7012C129.216 12.6603 129.015 12.5595 128.87 12.4571C128.514 12.2066 128.303 11.9283 128.257 11.4934L128.252 11.4456L128.263 11.3988C128.596 9.94599 129.235 8.12306 130.113 6.91304C130.749 6.03785 131.347 5.58371 132.462 5.53607C132.719 5.52518 133.005 5.72522 133.213 5.86126C133.288 5.91029 133.55 6.08519 133.632 6.09096C134.364 6.09096 135.04 6.2891 135.589 6.79147C136.537 7.65986 136.824 9.20531 137.007 10.4251C137.112 11.1249 137.189 11.8342 137.322 12.5288L137.327 12.5555V12.587L137.327 12.5908C137.322 12.7764 137.234 12.9768 137.125 13.1226C136.856 13.4814 136.406 13.5512 135.978 13.6081C135.778 13.6349 135.562 13.6335 135.36 13.6275C135.086 13.6194 134.81 13.5985 134.537 13.573C133.866 13.5105 133.193 13.4186 132.527 13.3155C131.927 13.2227 131.329 13.1192 130.733 13.0025C130.287 12.915 129.831 12.8219 129.393 12.7012Z" fill="#1E2133"/>
<path fill-rule="evenodd" clip-rule="evenodd" d="M133.632 6.37612C133.328 6.37612 132.767 5.80844 132.474 5.82101C131.415 5.86623 130.9 6.31358 130.342 7.08122C129.468 8.28497 128.842 10.1441 128.539 11.4629C128.631 12.3241 129.552 11.9509 129.552 11.9509C130.895 12.322 134.842 13.1022 135.926 12.9575C137.011 12.813 137.042 12.6036 137.043 12.583V12.5825C136.569 10.0985 136.697 6.37612 133.632 6.37612Z" fill="white"/>
<path fill-rule="evenodd" clip-rule="evenodd" d="M133.632 6.37612C133.328 6.37612 132.767 5.80844 132.474 5.82101C132.16 5.83445 131.893 5.8834 131.659 5.96581C131.993 5.93798 132.144 6.0342 132.998 6.8052C134.169 7.86239 134.739 7.46976 134.739 9.22167C134.739 10.9736 135.37 12.212 132.458 11.7892C129.545 11.3663 129.515 11.3361 129.515 11.3361C129.515 11.3361 135.266 13.6658 136.976 12.1968C136.574 9.73163 136.543 6.37612 133.632 6.37612Z" fill="#E8A16B"/>
<path fill-rule="evenodd" clip-rule="evenodd" d="M129.076 10.567C129.363 10.6396 129.76 10.7234 130.224 10.8105C131.124 10.9796 132.273 11.1612 133.348 11.2966C134.614 11.4562 135.777 11.5516 136.306 11.487C136.688 11.4403 136.951 11.3409 137.133 11.2262V12.6173C137.133 12.6308 137.125 12.7203 136.829 12.9604C136.758 13.0183 136.67 13.0739 136.561 13.1225C136.53 13.136 136.498 13.1491 136.465 13.1615C136.338 13.2081 136.187 13.2459 136.008 13.2698C134.695 13.4449 130.873 12.759 129.391 12.3498C129.391 12.3498 128.543 12.353 128.449 11.4736C128.314 11.0492 128.566 10.3436 128.643 10.3893C128.871 10.5251 129.076 10.567 129.076 10.567Z" fill="#1E2133"/>
<path fill-rule="evenodd" clip-rule="evenodd" d="M136.022 19.8258L135.951 19.8686C135.951 19.8686 135.848 19.7951 135.751 19.8943C135.653 19.9934 134.177 21.5531 134.177 21.5531L134.136 21.6241L133.822 21.5368C133.822 21.5368 133.753 21.3598 133.929 21.23C134.105 21.1003 135.508 19.9722 135.508 19.9722L135.541 19.4248L135.63 19.4389L136.022 19.8258Z" fill="#1E2133"/>
<path fill-rule="evenodd" clip-rule="evenodd" d="M130.202 11.8631L129.943 12.7502C129.943 12.7502 127.816 12.5617 126.671 10.772C128.606 12 129.364 11.8343 130.202 11.8631Z" fill="#1E2133"/>
<path fill-rule="evenodd" clip-rule="evenodd" d="M135.665 13.6083C135.665 13.6083 139.049 13.4674 139.511 12.6764C139.511 12.6764 138.088 12.8916 137.929 12.7878C137.769 12.6839 137.46 11.0698 137.46 11.0698H137.043L135.665 13.6083Z" fill="#1E2133"/>
<path fill-rule="evenodd" clip-rule="evenodd" d="M128.468 15.4609C128.484 15.2326 128.491 15.0397 128.648 14.9421C128.365 14.6699 128.478 14.5388 128.638 14.1688L128.673 14.2168C128.564 13.9378 128.511 13.7995 128.301 13.6508C128.303 13.6485 128.304 13.6479 128.304 13.6451C128.268 13.6867 128.334 14.0319 128.34 14.1185C128.268 14.0105 128.128 13.714 128.205 13.5701C128.379 13.2486 128.808 14.0395 128.848 14.1241C128.732 14.5594 128.487 14.5481 128.826 14.9086L128.833 15.0696C128.635 15.1118 128.565 15.2784 128.468 15.4609Z" fill="#1E2133"/>
<path fill-rule="evenodd" clip-rule="evenodd" d="M137.475 15.8076C137.475 15.661 137.55 15.2431 137.525 15.1245C137.506 15.0286 137.404 15.0405 137.363 15.086C137.234 15.2289 137.394 15.6398 137.22 15.815C136.592 16.4469 137.475 16.074 137.475 15.8076Z" fill="#E8A16B"/>
<path fill-rule="evenodd" clip-rule="evenodd" d="M132.739 32.9852L135.654 26.8833L136.493 20.5873C136.507 20.4876 136.565 20.4082 136.656 20.3661C136.747 20.324 136.844 20.3309 136.928 20.3855L141.141 23.1223C141.163 23.1366 141.18 23.1514 141.198 23.1711C141.267 23.2488 141.323 23.3613 141.354 23.4598C141.425 23.6896 141.397 23.9286 141.296 24.1452C141.262 24.2189 141.193 24.3048 141.143 24.3693C141.051 24.4875 140.956 24.6037 140.86 24.7193C140.551 25.0942 140.236 25.4643 139.921 25.8338C139.001 26.9108 138.071 27.9804 137.141 29.0487C135.751 30.6441 134.357 32.2364 132.959 33.8246C132.949 33.837 132.938 33.8484 132.925 33.8592C132.873 33.9059 132.806 33.93 132.739 33.93C132.672 33.93 132.605 33.9059 132.553 33.8592C132.54 33.8484 132.529 33.837 132.519 33.8246C131.121 32.2364 129.727 30.6441 128.337 29.0487C127.407 27.9804 126.477 26.9108 125.557 25.8338C125.242 25.4643 124.927 25.0942 124.617 24.7193C124.522 24.6037 124.427 24.4875 124.335 24.3693C124.285 24.3048 124.216 24.2189 124.181 24.1452C124.081 23.9286 124.053 23.6896 124.124 23.4598C124.155 23.3612 124.211 23.2487 124.28 23.1711C124.298 23.1514 124.315 23.1366 124.337 23.1223L128.549 20.3855C128.634 20.331 128.731 20.324 128.822 20.3661C128.913 20.4082 128.971 20.4876 128.985 20.5873L129.824 26.8833L132.739 32.9852Z" fill="#1E2133"/>
<path fill-rule="evenodd" clip-rule="evenodd" d="M128.703 20.625L124.491 23.3618C124.491 23.3618 124.254 23.6268 124.438 24.0243C124.623 24.4217 132.739 33.6438 132.739 33.6438L129.548 26.9658L128.703 20.625Z" fill="white"/>
<path fill-rule="evenodd" clip-rule="evenodd" d="M136.774 20.625L140.987 23.3618C140.987 23.3618 141.224 23.6268 141.039 24.0243C140.855 24.4217 132.739 33.6438 132.739 33.6438L135.929 26.9658L136.774 20.625Z" fill="#1E2133"/>
<path fill-rule="evenodd" clip-rule="evenodd" d="M136.43 20.0815L137.938 20.6409L139.95 23.4593L137.568 23.7521L138.647 24.3769L133.089 33.9132L132.776 34.465L132.477 33.9132L126.82 24.3769L127.998 23.7521L125.617 23.4593L127.628 20.6409L129.137 20.0815L132.15 21.1689L136.43 20.0815Z" fill="#1E2133"/>
<path fill-rule="evenodd" clip-rule="evenodd" d="M128.948 20.4551L127.807 20.878L126.126 23.234L128.828 23.5663L127.387 24.4725L132.783 33.8751L128.948 20.4551Z" fill="white"/>
<path fill-rule="evenodd" clip-rule="evenodd" d="M136.618 20.4551L137.759 20.878L139.44 23.234L136.738 23.5663L138.179 24.4725L132.783 33.8751L136.618 20.4551Z" fill="#E8A16B"/>
<path fill-rule="evenodd" clip-rule="evenodd" d="M131.238 21.6624L130.261 23.4986C130.209 23.5955 130.106 23.6458 129.998 23.6265C129.891 23.6073 129.811 23.5242 129.796 23.4154L129.334 20.1011C129.33 20.0751 129.33 20.0526 129.334 20.0267L129.562 18.6009C129.58 18.4866 129.67 18.4021 129.785 18.3917C129.899 18.3813 130.003 18.4482 130.041 18.5573L130.297 19.287L131.952 21.3375C132.018 21.4197 132.026 21.5288 131.974 21.6202C131.921 21.7117 131.823 21.7585 131.719 21.7414L131.238 21.6624Z" fill="#1E2133"/>
<path fill-rule="evenodd" clip-rule="evenodd" d="M131.759 21.4952C130.967 20.5131 130.225 19.8314 129.807 18.6406C129.731 19.116 129.656 19.5912 129.58 20.0665C129.734 21.1714 129.888 22.2761 130.042 23.3809C130.396 22.7164 130.749 22.0518 131.103 21.3873C131.322 21.4233 131.541 21.4593 131.759 21.4952Z" fill="white"/>
<path fill-rule="evenodd" clip-rule="evenodd" d="M135.285 19.287L135.541 18.5573C135.579 18.4482 135.683 18.3813 135.797 18.3917C135.912 18.4021 136.002 18.4865 136.02 18.6009L136.248 20.0267C136.252 20.0526 136.252 20.0751 136.249 20.1011L135.786 23.4154C135.771 23.5242 135.692 23.6073 135.584 23.6265C135.476 23.6458 135.373 23.5955 135.322 23.4986L134.344 21.6624L133.863 21.7416C133.76 21.7586 133.661 21.7118 133.609 21.6204C133.556 21.529 133.564 21.4198 133.631 21.3377L135.285 19.287Z" fill="#1E2133"/>
<path fill-rule="evenodd" clip-rule="evenodd" d="M133.823 21.4952L135.505 19.4111L135.775 18.6406L136.003 20.0665L135.54 23.3809L134.479 21.3873L133.823 21.4952Z" fill="#E8A16B"/>
<path fill-rule="evenodd" clip-rule="evenodd" d="M133.187 5.76752C133.595 6.20786 134.031 6.6704 134.641 7.11519C133.982 6.87636 133.434 6.39336 132.883 5.97092C132.839 5.93636 132.832 5.87295 132.866 5.82933C132.901 5.78564 133.144 5.73296 133.187 5.76752Z" fill="#1E2133"/>
<path fill-rule="evenodd" clip-rule="evenodd" d="M134.093 26.7858L132.792 30.4381L131.473 26.7615L132.027 23.3452H133.529L134.093 26.7858Z" fill="#1E2133"/>
<path fill-rule="evenodd" clip-rule="evenodd" d="M133.801 26.7588L133.289 23.6304H132.778H132.268L131.765 26.734L132.791 30.8028L133.801 26.7588Z" fill="#AD6327"/>
<path fill-rule="evenodd" clip-rule="evenodd" d="M133.695 22.4331L133.301 23.3385H132.281C132.139 23.0129 131.997 22.6872 131.856 22.3616C131.637 21.8581 131.843 21.8885 132.352 21.8885C132.843 21.8885 132.627 21.8885 133.118 21.8885C133.684 21.8885 133.941 21.8676 133.695 22.4331Z" fill="#AD6327"/>
<path fill-rule="evenodd" clip-rule="evenodd" d="M131.654 20.7607C132.12 21.2138 132.195 21.4252 132.795 21.3799C133.045 21.361 133.338 21.483 133.673 21.1827C134.141 20.7628 134.732 19.8848 134.732 19.8848C134.732 19.8848 134.187 20.5709 133.509 20.9049C133.001 21.155 132.131 21.0151 131.654 20.7607Z" fill="white"/>
<path fill-rule="evenodd" clip-rule="evenodd" d="M137.51 11.3242C137.605 11.7832 137.809 12.71 137.928 12.7878C138.088 12.8917 139.51 12.6765 139.51 12.6765C139.309 13.0214 138.552 13.2428 137.762 13.3827C137.819 13.4483 137.806 13.5313 137.731 13.621C137.639 13.7313 137.454 13.8518 137.198 13.9625C137.074 14.016 136.933 14.0672 136.777 14.114C136.764 14.1181 136.75 14.1221 136.736 14.1262C136.59 14.1685 136.432 14.2067 136.264 14.2392C136.241 14.2436 136.218 14.2479 136.195 14.252C136.218 14.2515 136.241 14.2508 136.265 14.2501C136.421 14.2456 136.578 14.2395 136.736 14.2316C136.752 14.2308 136.768 14.23 136.783 14.2292C137.009 14.2175 137.236 14.2023 137.463 14.1834C137.556 14.1756 137.649 14.1672 137.742 14.1582C139.898 13.9491 142.063 13.3911 143.357 12.244C143.175 12.0876 142.816 11.9905 142.445 11.9366C141.374 11.7808 139.537 11.5636 137.51 11.3242Z" fill="#E8A16B"/>
<path fill-rule="evenodd" clip-rule="evenodd" d="M128.263 11.3984C128.354 11.0035 128.467 10.5813 128.601 10.1515C128.33 10.1015 128.101 10.0539 127.923 10.0093C127.027 9.78404 125.015 9.30331 124.201 9.31923C123.159 9.33962 127.159 11.5895 127.494 11.7009C127.195 11.4531 126.911 11.1478 126.671 10.7717C127.322 11.1849 127.84 11.4404 128.272 11.5985C128.266 11.5644 128.261 11.5293 128.257 11.4931L128.252 11.4453L128.263 11.3984Z" fill="#E8A16B"/>
<path fill-rule="evenodd" clip-rule="evenodd" d="M135.831 18.9922L135.775 18.6406L135.751 18.7104C135.415 19.6688 135.204 19.7838 134.586 20.5501L134.512 20.6412L134.221 21.0019L133.826 21.4919L133.823 21.4953L133.834 21.4936L134.308 21.4157L134.479 21.3874C134.596 21.2026 135.845 19.4886 135.831 18.9922Z" fill="white"/>
<path fill-rule="evenodd" clip-rule="evenodd" d="M131.026 22.8875L130.561 23.649L131.341 25.9664L131.927 23.4503L131.521 22.689L131.026 22.8875Z" fill="#E8A16B"/>
<path fill-rule="evenodd" clip-rule="evenodd" d="M134.54 22.8875L135.005 23.649L134.225 25.9664L133.639 23.4503L134.044 22.689L134.54 22.8875Z" fill="#E8A16B"/>
<path fill-rule="evenodd" clip-rule="evenodd" d="M131.162 21.5879C130.713 20.9106 129.875 19.7508 129.743 18.9752L129.714 18.7017L129.79 18.9645C130.052 19.8388 130.772 20.7429 131.298 21.4941C131.324 21.5319 131.314 21.5835 131.277 21.6095C131.239 21.6354 131.188 21.6258 131.162 21.5879Z" fill="#1E2133"/>
<path fill-rule="evenodd" clip-rule="evenodd" d="M134.436 21.5879C134.884 20.9106 135.723 19.7508 135.854 18.9752L135.884 18.7017L135.808 18.9645C135.545 19.8388 134.826 20.7429 134.3 21.4941C134.274 21.5319 134.283 21.5835 134.321 21.6095C134.359 21.6354 134.41 21.6258 134.436 21.5879Z" fill="#1E2133"/>
<path fill-rule="evenodd" clip-rule="evenodd" d="M128.564 20.15C129.905 24.5825 131.273 29.0292 132.57 33.4737C132.617 33.6331 132.75 34.054 132.779 34.22C132.71 34.0665 132.585 33.6432 132.534 33.4849C131.125 29.0753 129.773 24.6235 128.407 20.1987C128.393 20.1548 128.418 20.1085 128.461 20.095C128.505 20.0815 128.551 20.1061 128.564 20.15Z" fill="#1E2133"/>
<path fill-rule="evenodd" clip-rule="evenodd" d="M136.993 20.15C135.652 24.5825 134.284 29.0292 132.987 33.4737C132.941 33.6331 132.807 34.054 132.779 34.22C132.848 34.0665 132.973 33.6432 133.023 33.4849C134.433 29.0753 135.785 24.6235 137.151 20.1987C137.164 20.1548 137.14 20.1085 137.096 20.095C137.053 20.0815 137.007 20.1061 136.993 20.15Z" fill="#1E2133"/>
<path fill-rule="evenodd" clip-rule="evenodd" d="M129.982 15.8475C129.562 15.6254 129.237 15.3211 129.154 14.8236C129.154 14.8236 129.146 14.7551 129.163 14.7569C129.164 14.7584 129.164 14.7579 129.164 14.76C129.3 15.239 129.598 15.5245 130.033 15.7278C130.066 15.7419 130.081 15.7802 130.067 15.8132C130.053 15.8463 130.015 15.8617 129.982 15.8475Z" fill="white"/>
<path fill-rule="evenodd" clip-rule="evenodd" d="M133.779 23.4555C134.121 26.9438 133.964 25.1983 134.25 28.6921C133.776 25.219 134 26.9573 133.58 23.4776C133.574 23.4222 133.614 23.3724 133.669 23.3664C133.724 23.3601 133.773 23.4001 133.779 23.4555Z" fill="#1E2133"/>
</g>
<defs>
<filter id="filter0_d_309_20660" x="85.5664" y="13.9014" width="35.5352" height="17.0605" filterUnits="userSpaceOnUse" color-interpolation-filters="sRGB">
<feFlood flood-opacity="0" result="BackgroundImageFix"/>
<feColorMatrix in="SourceAlpha" type="matrix" values="0 0 0 0 0 0 0 0 0 0 0 0 0 0 0 0 0 0 127 0" result="hardAlpha"/>
<feOffset dy="2"/>
<feGaussianBlur stdDeviation="1"/>
<feComposite in2="hardAlpha" operator="out"/>
<feColorMatrix type="matrix" values="0 0 0 0 0 0 0 0 0 0 0 0 0 0 0 0 0 0 0.32 0"/>
<feBlend mode="normal" in2="BackgroundImageFix" result="effect1_dropShadow_309_20660"/>
<feBlend mode="normal" in="SourceGraphic" in2="effect1_dropShadow_309_20660" result="shape"/>
</filter>
<filter id="filter1_d_309_20660" x="107" y="0" width="52.3315" height="60" filterUnits="userSpaceOnUse" color-interpolation-filters="sRGB">
<feFlood flood-opacity="0" result="BackgroundImageFix"/>
<feColorMatrix in="SourceAlpha" type="matrix" values="0 0 0 0 0 0 0 0 0 0 0 0 0 0 0 0 0 0 127 0" result="hardAlpha"/>
<feOffset dy="10"/>
<feGaussianBlur stdDeviation="7.5"/>
<feComposite in2="hardAlpha" operator="out"/>
<feColorMatrix type="matrix" values="0 0 0 0 0 0 0 0 0 0 0 0 0 0 0 0 0 0 0.8 0"/>
<feBlend mode="normal" in2="BackgroundImageFix" result="effect1_dropShadow_309_20660"/>
<feBlend mode="normal" in="SourceGraphic" in2="effect1_dropShadow_309_20660" result="shape"/>
</filter>
</defs>
</svg>
