<svg width="154" height="60" viewBox="0 0 154 60" fill="none" xmlns="http://www.w3.org/2000/svg">
<rect width="154" height="40" rx="4" fill="#1E2133"/>
<rect width="77" height="40" rx="4" fill="#DEA71A"/>
<rect width="77" height="40" rx="4" fill="#AE2424"/>
<g filter="url(#filter0_d_309_20727)">
<path d="M18.7842 24C17.9932 24 17.3691 23.8682 16.9121 23.6045C16.4551 23.3408 16.1416 22.916 15.9717 22.3301H15.1104C15.0166 22.3301 14.9199 22.3037 14.8203 22.251C14.7266 22.1982 14.6797 22.1514 14.6797 22.1104V19.9746C14.6797 19.9102 14.7324 19.8604 14.8379 19.8252C14.9492 19.79 15.04 19.7725 15.1104 19.7725H18.3887V20.8887C18.3887 21 18.4268 21.1143 18.5029 21.2314C18.5791 21.3428 18.7373 21.4043 18.9775 21.416H19.3027V24H18.7842ZM14.1963 15.4922H18.8105V17.707H14.1963V15.4922ZM14.8115 22.3564C14.5713 23.335 14.2607 24.1963 13.8799 24.9404C13.5049 25.6846 13.1211 26.3584 12.7285 26.9619L10.5664 25.5381C10.8418 25.1279 11.0967 24.709 11.3311 24.2812C11.5654 23.8594 11.7676 23.417 11.9375 22.9541C12.1133 22.4912 12.2568 21.999 12.3682 21.4775C12.4854 20.9561 12.5674 20.3965 12.6143 19.7988H15.1719V22.3564H14.8115ZM23.6885 21.4775C23.6885 23.1592 22.7451 24 20.8584 24H19.3115C19.2178 24 19.124 23.9736 19.0303 23.9209C18.9307 23.8682 18.8809 23.8213 18.8809 23.7803V21.6094C18.8809 21.5449 18.9365 21.4951 19.0479 21.46C19.1533 21.4248 19.2412 21.4072 19.3115 21.4072H20.3398C20.6387 21.4072 20.8379 21.3047 20.9375 21.0996C21.043 20.8945 21.0957 20.7041 21.0957 20.5283V19.5352H23.6885V21.4775ZM22.2119 17.751C21.7666 17.751 21.3945 17.6016 21.0957 17.3027C20.7969 17.0039 20.6475 16.6318 20.6475 16.1865C20.6475 15.7529 20.7969 15.3867 21.0957 15.0879C21.3945 14.7891 21.7666 14.6396 22.2119 14.6396C22.6396 14.6396 23.0029 14.7891 23.3018 15.0879C23.6064 15.3867 23.7588 15.7529 23.7588 16.1865C23.7588 16.6318 23.6064 17.0039 23.3018 17.3027C23.0029 17.6016 22.6396 17.751 22.2119 17.751ZM32.9785 24C32.8262 24 32.6387 23.9678 32.416 23.9033C32.1934 23.833 31.9678 23.7041 31.7393 23.5166C31.6045 23.6221 31.4287 23.7305 31.2119 23.8418C31.001 23.9473 30.7637 24 30.5 24H24.9541V21.4072H27.2568L25.4199 16.8721L27.8193 15.8789L30.0078 21.3018C30.1426 21.2432 30.248 21.1494 30.3242 21.0205C30.4062 20.8857 30.4473 20.6777 30.4473 20.3965V15.1582H33.0312V20.3965C33.0312 20.6602 33.0635 20.8623 33.1279 21.0029C33.1982 21.1436 33.2861 21.2432 33.3916 21.3018C33.5029 21.3604 33.6289 21.3926 33.7695 21.3984C33.916 21.4043 34.0742 21.4072 34.2441 21.4072V24H32.9785ZM37.9619 21.4072L34.1123 16.9951L41.0557 13.9014L42.1016 16.3184L38.4102 17.9355L40.6602 20.4932C40.9238 20.792 41.082 21.1377 41.1348 21.5303C41.1934 21.917 41.1377 22.3008 40.9678 22.6816C40.7744 23.1035 40.4844 23.4287 40.0977 23.6572C39.7168 23.8857 39.2861 24 38.8057 24H34.2529C34.1592 24 34.0654 23.9736 33.9717 23.9209C33.8721 23.8682 33.8223 23.8213 33.8223 23.7803V21.6094C33.8223 21.5449 33.8779 21.4951 33.9893 21.46C34.0947 21.4248 34.1826 21.4072 34.2529 21.4072H37.9619Z" fill="white"/>
</g>
<g style="mix-blend-mode:luminosity" filter="url(#filter1_d_309_20727)">
<path fill-rule="evenodd" clip-rule="evenodd" d="M60.1481 19.7775C60.1622 19.7803 60.1763 19.7838 60.1902 19.7881C60.2187 19.7969 60.2454 19.8086 60.2704 19.8229L61.1221 20.1385C61.2235 20.1762 61.3072 20.2402 61.3703 20.3286L61.8446 20.9934L64.4292 22.6725C64.4899 22.712 64.5443 22.7586 64.5927 22.8127C64.7144 22.9487 64.8069 23.1255 64.8612 23.2998C64.9722 23.6571 64.9348 24.0339 64.7783 24.3713C64.7216 24.4935 64.6435 24.5934 64.5617 24.6985C64.4665 24.8211 64.3683 24.941 64.2696 25.0608C63.9585 25.4381 63.6414 25.8104 63.3238 26.1823C62.4023 27.2609 61.4719 28.3315 60.5403 29.4011C59.3344 30.7856 58.1255 32.1674 56.9133 33.5466L56.5506 34.1786L56.2372 34.7304C56.1406 34.9006 55.9647 35.002 55.7698 35C55.5748 34.9979 55.4014 34.8929 55.3082 34.7207L55.013 34.1747L54.8186 33.8359C53.5212 32.3609 52.2274 30.8824 50.9371 29.401C50.0055 28.3315 49.075 27.2608 48.1537 26.1822C47.8361 25.8104 47.5189 25.4381 47.2078 25.0607C47.1092 24.941 47.0109 24.821 46.9157 24.6985C46.834 24.5933 46.756 24.4934 46.6992 24.3712C46.5427 24.0338 46.5053 23.657 46.6164 23.2997C46.6706 23.1254 46.7631 22.9487 46.8849 22.8126C46.9332 22.7586 46.9877 22.7119 47.0485 22.6724L49.7977 20.8862L50.1957 20.3286C50.2587 20.2402 50.3424 20.1761 50.4439 20.1385L51.2736 19.831C51.3023 19.8131 51.3337 19.7986 51.3675 19.7881C51.3866 19.7822 51.406 19.7777 51.4253 19.7748L51.8618 19.613L52.0369 18.5158C52.0447 18.4669 52.057 18.4191 52.0735 18.3729C51.7672 17.9087 51.4457 17.3832 51.2447 16.8588C51.0649 16.7751 50.9079 16.6535 50.7788 16.4974C50.5607 16.2338 50.457 15.9119 50.4176 15.5756C50.3994 15.4199 50.3954 15.2637 50.3949 15.107C50.3947 15.0644 50.4006 15.0008 50.3955 14.9604C50.3655 14.7688 50.3298 14.5782 50.2978 14.3869C50.2727 14.2372 50.2485 14.0873 50.2305 13.9366C49.6643 13.6891 49.1119 13.4099 48.5714 13.1098C47.7311 12.6432 46.9006 12.1273 46.1611 11.5093C45.9327 11.3185 45.7107 11.1173 45.5163 10.8911C45.1492 10.4641 44.8662 9.91894 45.0662 9.34812C45.37 8.48053 46.4149 8.41879 47.1843 8.45934C47.7356 8.48835 48.2822 8.5712 48.825 8.66946C49.5992 8.80959 50.3664 8.98684 51.1294 9.17855C51.2024 9.19688 51.2757 9.21398 51.3491 9.2302C51.6833 8.31307 52.1169 7.37761 52.6838 6.59689C53.4194 5.58405 54.1645 5.05546 55.4397 5.00096C55.8423 4.98379 56.1796 5.20085 56.5029 5.41207C56.5641 5.45203 56.6543 5.51764 56.7272 5.55643C57.5568 5.57404 58.3234 5.82457 58.9467 6.39531C60.0081 7.36723 60.3283 8.97763 60.5333 10.345C60.5394 10.3856 60.5454 10.4262 60.5513 10.4668C61.2196 10.5458 61.8879 10.6248 62.556 10.7049C63.5608 10.8254 64.5658 10.9436 65.5673 11.0891C66.2431 11.1873 67.0842 11.4304 67.291 12.1799C67.3427 12.3668 67.3448 12.5603 67.2983 12.7485C67.2123 13.0974 66.9736 13.3819 66.7009 13.6034C66.2054 14.0058 65.5517 14.2852 64.9575 14.5069C64.2083 14.7863 63.4354 15.0011 62.6548 15.1704C62.1976 15.2696 61.7367 15.3527 61.273 15.4141C61.2404 15.9151 61.1244 16.5029 60.6909 16.749C60.6372 16.7795 60.5821 16.807 60.526 16.8326C60.4641 16.8609 60.4012 16.8868 60.3381 16.9118C60.2673 17.0975 60.1798 17.2717 60.0753 17.4422C59.9434 17.6576 59.8314 17.8836 59.6916 18.0948C59.6313 18.1859 59.5692 18.2757 59.5055 18.3644C59.5236 18.4132 59.537 18.4639 59.5453 18.5159L59.7215 19.6194L60.1481 19.7775Z" fill="white"/>
<path fill-rule="evenodd" clip-rule="evenodd" d="M59.1271 18.3397C59.1799 18.4025 59.2163 18.4801 59.2301 18.5665L59.4356 19.8533L59.4498 19.8677C59.4674 19.8695 59.4849 19.8736 59.5029 19.8803L61.0117 20.4396C61.0534 20.455 61.0852 20.4792 61.111 20.5156L61.6207 21.2297L64.256 22.942C64.2933 22.9662 64.3258 22.994 64.3556 23.0273C64.4461 23.1284 64.5163 23.2658 64.5566 23.3953C64.6439 23.6761 64.6119 23.9704 64.489 24.2352C64.4447 24.3309 64.3747 24.4176 64.3103 24.5006C64.2171 24.6206 64.1207 24.7383 64.024 24.8555C63.7141 25.2314 63.3982 25.6023 63.0817 25.9727C62.1611 27.0504 61.2312 28.1203 60.3002 29.1892C59.0876 30.5815 57.8718 31.9711 56.6529 33.3577L56.2735 34.019L55.96 34.5709C55.9208 34.6401 55.8524 34.6795 55.7731 34.6787C55.6939 34.6779 55.6264 34.637 55.5885 34.567L55.2913 34.0175L55.0788 33.6473C53.7746 32.1644 52.4741 30.6785 51.1769 29.1894C50.246 28.1205 49.3162 27.0507 48.3955 25.9729C48.0792 25.6025 47.7631 25.2315 47.4532 24.8556C47.3565 24.7384 47.2602 24.6207 47.1669 24.5007C47.1025 24.4178 47.0326 24.3311 46.9881 24.2354C46.8654 23.9706 46.8334 23.6763 46.9207 23.3954C46.961 23.266 47.0312 23.1286 47.1218 23.0274C47.1515 22.9941 47.1839 22.9664 47.2213 22.9421L50.0215 21.1228L50.4547 20.5157C50.4806 20.4794 50.5123 20.4551 50.554 20.4397L52.0629 19.8804C52.0902 19.8703 52.1171 19.8658 52.1442 19.8669L52.3517 18.5667C52.3646 18.4859 52.3973 18.413 52.4446 18.3525C52.4223 18.3201 52.4003 18.2876 52.3786 18.2549C52.0838 17.8114 51.6884 17.1809 51.4951 16.6133C51.3177 16.5554 51.1562 16.452 51.0239 16.292C50.8464 16.0776 50.7662 15.8111 50.7342 15.5382C50.7175 15.3946 50.7142 15.2505 50.7138 15.1062C50.7136 15.0479 50.7194 14.9672 50.7105 14.9106C50.6804 14.7179 50.6444 14.5261 50.6123 14.3338C50.5781 14.1294 50.545 13.9232 50.5292 13.7161C50.5171 13.711 50.5051 13.7059 50.4929 13.7007C49.8887 13.4431 49.2999 13.1479 48.7254 12.8289C47.9076 12.3747 47.0842 11.8637 46.3647 11.2624C45.8858 10.8622 45.1209 10.1576 45.3669 9.45495C45.6105 8.75942 46.5637 8.74839 47.1674 8.78017C47.7044 8.80844 48.2395 8.88998 48.7682 8.98569C49.5354 9.1245 50.2957 9.30028 51.0519 9.49024C51.2187 9.53218 51.3872 9.56805 51.5564 9.60056C51.9079 8.58385 52.3721 7.57029 52.9413 6.7865C53.6184 5.8541 54.276 5.37227 55.4529 5.32193C55.7715 5.30834 56.0725 5.51408 56.3287 5.68146C56.3998 5.72785 56.5724 5.84599 56.6559 5.87668C57.4318 5.88113 58.1494 6.09966 58.7317 6.63285C59.7253 7.54282 60.0255 9.11259 60.2175 10.3929C60.2357 10.5142 60.2529 10.6356 60.2698 10.757C61.0193 10.8455 61.7688 10.934 62.518 11.0238C63.5201 11.144 64.5225 11.2619 65.5214 11.4071C66.0525 11.4842 66.818 11.6671 66.9833 12.2659C67.0203 12.3996 67.0215 12.5364 66.9883 12.6711C66.9199 12.9482 66.7161 13.1783 66.5002 13.3536C66.0401 13.7272 65.3989 13.9998 64.8463 14.2059C64.1124 14.4797 63.3522 14.6907 62.5873 14.8566C62.0515 14.9728 61.5098 15.0668 60.9649 15.1285C60.9551 15.6201 60.8941 16.2649 60.5339 16.4694C60.4883 16.4953 60.4413 16.5186 60.3936 16.5403C60.3164 16.5756 60.2377 16.6068 60.1586 16.6376C60.1361 16.6463 60.1071 16.6565 60.0801 16.6675C60.077 16.6856 60.0735 16.7038 60.0662 16.7246C59.9976 16.9213 59.9124 17.096 59.8035 17.2737C59.6736 17.4855 59.5631 17.7094 59.4257 17.9168C59.33 18.0615 59.2299 18.202 59.1271 18.3397Z" fill="#1E2133"/>
<path fill-rule="evenodd" clip-rule="evenodd" d="M58.5735 17.1812H53.0092C52.9116 17.1812 52.832 17.2613 52.832 17.3595V22.5802C52.832 22.6784 52.9117 22.7584 53.0092 22.7584H58.5735C58.6712 22.7584 58.7508 22.6784 58.7508 22.5802V17.3595C58.7508 17.2612 58.6711 17.1812 58.5735 17.1812Z" fill="#1E2133"/>
<path fill-rule="evenodd" clip-rule="evenodd" d="M58.6577 17.3589H56.9105C56.7228 17.4599 56.5768 17.589 56.4946 17.7543C56.1006 18.5472 55.3594 20.1613 55.3594 20.1613L54.4678 20.3316L55.9129 21.9831L58.2773 21.9265C58.2773 21.9265 58.3906 21.8353 58.5731 21.6841L58.6577 17.3589Z" fill="#1E2133"/>
<path fill-rule="evenodd" clip-rule="evenodd" d="M59.6165 13.1109L59.5374 12.8848C59.508 12.8007 59.4229 12.7518 59.3359 12.7691C59.2489 12.7863 59.1887 12.864 59.1931 12.9531C59.2142 13.3699 59.237 13.7868 59.2622 14.2034C59.2794 14.4886 59.2973 14.7744 59.3203 15.0592C59.328 15.1558 59.3361 15.2529 59.3477 15.3491C59.3601 15.4522 59.3714 15.5708 59.4931 15.609C59.5878 15.6387 59.7594 15.6309 59.8558 15.6152C59.9497 15.5998 60.046 15.5694 60.1223 15.5105C60.3898 15.304 60.5841 15.0089 60.669 14.6806C60.7279 14.4533 60.7483 14.1686 60.7477 13.9343C60.7469 13.633 60.7105 13.1063 60.394 12.9612C60.3362 12.9347 60.2741 12.9234 60.2107 12.9265C60.0006 12.9368 59.798 12.9992 59.6188 13.1096C59.6179 13.1101 59.6173 13.1105 59.6165 13.1109Z" fill="#1E2133"/>
<path fill-rule="evenodd" clip-rule="evenodd" d="M51.888 13.0781L51.9998 12.6348L52.5681 12.7169L52.5575 13.0055C52.5382 13.5277 52.517 14.0499 52.4939 14.572C52.478 14.9297 52.4616 15.2877 52.4405 15.6452C52.4333 15.7665 52.4259 15.8882 52.4152 16.0092C52.4009 16.1713 52.3867 16.3351 52.2035 16.4148L52.1682 16.4302L52.1301 16.4366C51.78 16.4962 51.4261 16.4431 51.1877 16.155C51.0378 15.9738 50.9729 15.7433 50.946 15.5131C50.9301 15.3775 50.9274 15.2417 50.9269 15.1053C50.9267 15.0382 50.9313 14.9424 50.9211 14.8771C50.8908 14.6838 50.8548 14.4912 50.8225 14.2981C50.7832 14.0628 50.7436 13.8157 50.7349 13.5772C50.7259 13.3327 50.7514 13.0336 50.9973 12.9074C51.0648 12.8727 51.1403 12.8581 51.2158 12.8632C51.4289 12.8778 51.6691 12.9649 51.888 13.0781Z" fill="#1E2133"/>
<path fill-rule="evenodd" clip-rule="evenodd" d="M52.2383 12.9937L52.0901 13.5818C52.0901 13.5818 51.5984 13.211 51.1942 13.1837C50.9003 13.1637 51.1384 14.2038 51.2361 14.8272C51.2869 15.1519 51.0641 16.2923 52.0766 16.12C52.1238 16.0996 52.2383 12.9937 52.2383 12.9937Z" fill="white"/>
<path fill-rule="evenodd" clip-rule="evenodd" d="M51.6689 13.374C51.6689 14.1011 51.5767 15.0137 51.5767 15.7408C51.5767 15.9061 51.5836 16.0705 51.6133 16.2334C51.6934 16.6728 52.0062 17.3095 52.5556 18.1362C53.059 18.8937 53.8864 19.7688 54.1236 20.1099C54.2603 20.3061 54.5594 20.5479 54.8002 20.5824C55.1224 20.6285 55.4655 20.6372 55.7911 20.6372C56.1164 20.6372 56.4596 20.6285 56.7818 20.5824C57.0354 20.5461 57.2995 20.3148 57.4528 20.1177C57.4549 20.1151 57.4566 20.1128 57.4584 20.11C58.005 19.3237 58.6756 18.6643 59.2488 17.7985C59.3755 17.607 59.5025 17.3573 59.6225 17.1616C59.7309 16.9846 59.803 16.8335 59.8656 16.654C59.8811 16.6099 59.8733 16.5496 59.9106 16.5157C59.9559 16.4743 60.2306 16.3961 60.4295 16.2833C60.7738 16.0878 60.7539 15.143 60.7539 14.7775C60.7539 14.0504 59.9131 14.1011 59.9131 13.374C59.9261 13.2259 59.9269 13.0772 59.9147 12.929C59.9068 12.8363 59.8303 12.7656 59.738 12.7656H51.8442C51.7517 12.7656 51.6753 12.8363 51.6674 12.9291C51.655 13.0772 51.656 13.2259 51.6689 13.374Z" fill="#1E2133"/>
<path fill-rule="evenodd" clip-rule="evenodd" d="M51.8463 13.3658C51.8463 13.3658 51.8463 15.4025 51.8463 15.9333C51.8463 16.4641 51.9196 16.7294 52.3587 17.446C52.7979 18.1625 54.269 19.9006 54.269 19.9006C54.269 19.9006 54.5471 20.2588 54.8253 20.2986C55.1034 20.3384 55.4614 20.3517 55.7912 20.3517C56.1207 20.3517 56.4788 20.3384 56.757 20.2986C57.0351 20.2588 57.3133 19.9006 57.3133 19.9006C57.3133 19.9006 58.7844 18.1625 59.2235 17.446C59.5066 16.9842 59.6091 16.6764 59.669 16.3633C59.7435 15.9741 59.736 15.5845 59.736 14.9765C59.736 14.2279 59.736 13.3659 59.736 13.3659C59.7494 13.2172 59.7492 13.077 59.7381 12.9438H55.7912H51.8442C51.833 13.0769 51.8328 13.2171 51.8463 13.3658Z" fill="white"/>
<path fill-rule="evenodd" clip-rule="evenodd" d="M51.7188 13.5397L51.8464 14.7043C51.962 14.9795 52.1093 15.2721 52.2974 15.5706C53.1643 15.8679 54.3058 15.3481 54.5435 15.6884C54.7143 15.933 54.1589 16.5372 54.1589 16.5372L55.7501 15.4196C55.7501 15.8826 55.7501 16.3458 55.7501 16.8089C55.7501 17.0595 55.766 17.3115 55.4001 17.1702C55.2966 17.1302 55.146 17.0832 55.0671 17.1111C54.9395 17.1564 54.8232 17.247 54.9507 17.2697C55.0784 17.2924 55.4799 17.315 55.4799 17.315C55.4799 17.315 55.6901 17.3075 55.6901 17.6322C55.6901 17.9569 55.6901 18.0476 55.6901 18.0476C55.6901 18.0476 55.5925 18.2287 55.4424 18.2287C55.2923 18.2287 54.4441 18.2287 54.4441 18.2287C54.4441 18.2287 54.279 18.123 54.2489 18.0777C54.2189 18.0324 54.2715 18.3043 54.3765 18.4251C54.4817 18.5458 54.5342 18.5458 54.5342 18.5458C54.5342 18.5458 54.4291 18.3495 54.5342 18.3495C54.6393 18.3495 55.4649 18.3495 55.4649 18.3495C55.4649 18.3495 55.8759 18.4043 55.9377 18.6364C55.9995 18.8686 55.7098 18.9184 55.4522 18.9184C55.1947 18.9184 54.9995 19.0366 55.3973 19.2405C55.7951 19.4444 56.0878 19.3236 56.0878 19.3236C56.0878 19.3236 56.171 20.0157 55.9527 20.1684C55.7345 20.3212 55.6027 20.3083 55.5254 20.3631C55.6147 20.3651 55.6213 20.6303 55.7086 20.6303C56.2786 20.6303 56.7266 20.5019 57.1141 20.1993C57.4541 19.934 57.7477 19.5174 58.0365 19.1718C58.5082 18.0329 58.5084 17.9906 58.5084 17.9906C58.5084 17.9906 59.1389 17.5374 59.349 16.5709C59.5593 15.6043 59.5292 15.121 59.5292 15.121L59.8242 15.04C59.7886 14.2733 59.7359 13.3659 59.7359 13.3659C59.7425 13.2929 59.7458 13.2219 59.7461 13.1529L58.9306 12.9438H55.7912H51.8443C51.8331 13.077 51.7053 13.391 51.7188 13.5397Z" fill="#1E2133"/>
<path fill-rule="evenodd" clip-rule="evenodd" d="M54.3457 21.7392L54.8023 23.3659C54.8226 23.4384 54.8951 23.4823 54.9684 23.4667C55.0303 23.4533 55.0928 23.4434 55.1554 23.4351C55.3584 23.4088 55.5821 23.3977 55.7874 23.4029C55.7899 23.4029 55.792 23.4029 55.7945 23.4029C55.9998 23.3978 56.2234 23.4088 56.4264 23.4351C56.4891 23.4433 56.5518 23.4533 56.6135 23.4667C56.6868 23.4823 56.7592 23.4384 56.7795 23.3659L57.2362 21.7392C57.2574 21.6637 57.2134 21.5845 57.1383 21.5632C57.0093 21.5265 56.8702 21.4989 56.7384 21.4757C56.4268 21.4209 56.1074 21.3906 55.7909 21.3906C55.4744 21.3906 55.1549 21.4209 54.8433 21.4757C54.7116 21.4989 54.5725 21.5265 54.4434 21.5632C54.3684 21.5845 54.3245 21.6637 54.3457 21.7392Z" fill="#1E2133"/>
<path fill-rule="evenodd" clip-rule="evenodd" d="M57.0889 21.6824C57.2413 21.9349 57.3982 22.1859 57.5583 22.4331C57.6677 22.6021 57.7795 22.7716 57.8983 22.9341C57.9603 23.0189 58.0836 23.1906 58.1797 23.2336C58.3096 23.2918 58.4407 23.2619 58.5376 23.1597C58.5763 23.1188 58.6125 23.0622 58.6328 23.0094L59.6207 20.4653C59.6416 20.4116 59.6297 20.3539 59.5893 20.3128L58.6737 19.3854C58.6325 19.3434 58.5733 19.3314 58.5191 19.3539C58.4648 19.3764 58.4313 19.4269 58.4313 19.4858V19.9008L56.8787 21.1506C56.7733 21.2176 56.7163 21.3598 56.7026 21.4784C56.694 21.5536 56.7452 21.6225 56.8193 21.6353L57.0889 21.6824Z" fill="#1E2133"/>
<path fill-rule="evenodd" clip-rule="evenodd" d="M51.9979 14.2148H51.6981C51.642 14.2148 51.5962 14.2609 51.5962 14.3175V14.6388C51.5962 14.6953 51.642 14.7415 51.6981 14.7415H51.9979C52.054 14.7415 52.0999 14.6953 52.0999 14.6388V14.3175C52.0999 14.2609 52.054 14.2148 51.9979 14.2148Z" fill="#1E2133"/>
<path fill-rule="evenodd" clip-rule="evenodd" d="M53.5206 12.8047C52.6018 12.8047 51.8569 13.5541 51.8569 14.4784C51.8569 15.4028 52.6018 16.1522 53.5206 16.1522C54.4394 16.1522 55.1842 15.4028 55.1842 14.4784C55.1842 13.5541 54.4394 12.8047 53.5206 12.8047Z" fill="#1E2133"/>
<path fill-rule="evenodd" clip-rule="evenodd" d="M53.5202 15.6299C52.8878 15.6299 52.375 15.1141 52.375 14.4778C52.375 13.8416 52.8878 13.3257 53.5202 13.3257C54.1527 13.3257 54.6654 13.8415 54.6654 14.4778C54.6654 15.1141 54.1527 15.6299 53.5202 15.6299Z" fill="#1E2133"/>
<path fill-rule="evenodd" clip-rule="evenodd" d="M53.0171 15.799C52.8967 15.7602 52.785 15.702 52.6856 15.628L53.9238 14.3822C53.9931 14.3126 54.1053 14.3126 54.1745 14.3822C54.2437 14.4519 54.2437 14.5648 54.1745 14.6345L53.0171 15.799ZM52.541 15.5004L53.6145 14.4204C53.6491 14.3855 53.6491 14.3291 53.6145 14.2942C53.5798 14.2594 53.5238 14.2594 53.4891 14.2942L52.4277 15.3621C52.462 15.4111 52.4999 15.4573 52.541 15.5004Z" fill="white"/>
<path fill-rule="evenodd" clip-rule="evenodd" d="M53.5203 12.8047C52.7453 12.8047 52.0941 13.3377 51.9092 14.0592C52.4015 14.2848 52.92 14.4677 53.4346 14.6216C53.9787 14.7843 54.5339 14.918 55.0923 15.027C55.1516 14.8551 55.1838 14.6706 55.1838 14.4784C55.1839 13.5541 54.4391 12.8047 53.5203 12.8047Z" fill="#1E2133"/>
<path fill-rule="evenodd" clip-rule="evenodd" d="M51.0007 9.69781C51.3844 9.79418 51.7885 9.86161 52.1786 9.92591C52.7688 10.0232 53.3617 10.1082 53.9543 10.1897C55.462 10.397 56.974 10.5801 58.4852 10.7608C59.8211 10.9206 61.1574 11.0761 62.4931 11.2363C63.4922 11.3562 64.4956 11.4741 65.4913 11.6188C65.9214 11.6813 66.643 11.8317 66.7787 12.3231C66.876 12.6753 66.6203 12.9811 66.3669 13.187C65.9337 13.5388 65.2921 13.8114 64.7727 14.0052C64.0516 14.2742 63.2944 14.4844 62.5429 14.6474C61.9512 14.7757 61.3487 14.8771 60.7461 14.9363C59.9557 15.014 59.1483 15.0213 58.3549 14.9934C57.4627 14.9621 56.5691 14.8835 55.6841 14.7662C54.7622 14.644 53.8408 14.4789 52.9367 14.2591C52.14 14.0655 51.3317 13.8256 50.5764 13.5036C49.9804 13.2495 49.3953 12.9561 48.8287 12.6415C48.0337 12.2001 47.2003 11.682 46.5011 11.0978C46.1122 10.7729 45.3633 10.1106 45.568 9.52612C45.769 8.95209 46.6738 8.96853 47.1567 8.99388C47.6812 9.02149 48.2145 9.10281 48.7309 9.19633C49.4924 9.33412 50.2503 9.50932 51.0007 9.69781Z" fill="#1E2133"/>
<path fill-rule="evenodd" clip-rule="evenodd" d="M50.9235 10.0094C48.1943 9.32377 46.7546 9.19387 46.1708 9.38923C47.8793 12.2181 52.8641 13.7138 55.9889 14.1083C58.8259 14.4663 64.0159 14.3192 66.3577 12.2441C66.1759 12.0876 65.8163 11.9905 65.4457 11.9366C62.379 11.491 53.0413 10.5415 50.9235 10.0094ZM45.9636 9.49984C47.73 12.4001 52.7552 13.8927 55.9687 14.2745C58.8698 14.6191 63.9286 14.5144 66.2515 12.5128C66.3263 12.4482 66.3872 12.3927 66.4408 12.3397C66.5323 12.4912 66.4745 12.6872 66.1665 12.9373C65.2813 13.6563 62.7375 14.418 60.7151 14.6169C57.8609 14.8976 53.2949 14.3139 50.701 13.2081C48.3856 12.221 45.2202 10.142 45.9636 9.49984Z" fill="white"/>
<path fill-rule="evenodd" clip-rule="evenodd" d="M52.3926 12.7012C52.2163 12.6603 52.0152 12.5595 51.8698 12.4571C51.5143 12.2066 51.3033 11.9283 51.257 11.4934L51.252 11.4456L51.2626 11.3988C51.5962 9.94599 52.2347 8.12306 53.1133 6.91304C53.7488 6.03785 54.3474 5.58371 55.4622 5.53607C55.7188 5.52518 56.0049 5.72522 56.2132 5.86126C56.2881 5.91029 56.5496 6.08519 56.6318 6.09096C57.3638 6.09096 58.0402 6.2891 58.5886 6.79147C59.5369 7.65986 59.8244 9.20531 60.0073 10.4251C60.1122 11.1249 60.1891 11.8342 60.3217 12.5288L60.3268 12.5555V12.587L60.3266 12.5908C60.3218 12.7764 60.2344 12.9768 60.125 13.1226C59.8556 13.4814 59.4061 13.5512 58.9784 13.6081C58.778 13.6349 58.5621 13.6335 58.3601 13.6275C58.0857 13.6194 57.8105 13.5985 57.5371 13.573C56.8657 13.5105 56.1933 13.4186 55.527 13.3155C54.9275 13.2227 54.3286 13.1192 53.7332 13.0025C53.2873 12.915 52.8309 12.8219 52.3926 12.7012Z" fill="#1E2133"/>
<path fill-rule="evenodd" clip-rule="evenodd" d="M56.6318 6.37612C56.3276 6.37612 55.7668 5.80844 55.4743 5.82101C54.4154 5.86623 53.8998 6.31358 53.3424 7.08122C52.4683 8.28497 51.8418 10.1441 51.5391 11.4629C51.6307 12.3241 52.5515 11.9509 52.5515 11.9509C53.8949 12.322 57.8415 13.1022 58.926 12.9575C60.0107 12.813 60.0425 12.6036 60.0431 12.583V12.5825C59.5692 10.0985 59.6974 6.37612 56.6318 6.37612Z" fill="white"/>
<path fill-rule="evenodd" clip-rule="evenodd" d="M56.632 6.37612C56.3278 6.37612 55.7671 5.80844 55.4745 5.82101C55.1597 5.83445 54.8929 5.8834 54.6589 5.96581C54.9927 5.93798 55.144 6.0342 55.9979 6.8052C57.1688 7.86239 57.7393 7.46976 57.7393 9.22167C57.7393 10.9736 58.3698 12.212 55.4576 11.7892C52.5452 11.3663 52.5151 11.3361 52.5151 11.3361C52.5151 11.3361 58.2663 13.6658 59.9755 12.1968C59.5743 9.73163 59.5426 6.37612 56.632 6.37612Z" fill="#E8A16B"/>
<path fill-rule="evenodd" clip-rule="evenodd" d="M52.076 10.567C52.3627 10.6396 52.7602 10.7234 53.2238 10.8105C54.1236 10.9796 55.273 11.1612 56.3477 11.2966C57.6139 11.4562 58.7765 11.5516 59.3059 11.487C59.6881 11.4403 59.9515 11.3409 60.1329 11.2262V12.6173C60.1326 12.6308 60.1255 12.7203 59.8294 12.9604C59.7581 13.0183 59.6698 13.0739 59.5606 13.1225C59.5303 13.136 59.4983 13.1491 59.4647 13.1615C59.338 13.2081 59.1871 13.2459 59.0077 13.2698C57.6951 13.4449 53.8726 12.759 52.3912 12.3498C52.3912 12.3498 51.5429 12.353 51.4493 11.4736C51.314 11.0492 51.5665 10.3436 51.6433 10.3893C51.8711 10.5251 52.076 10.567 52.076 10.567Z" fill="#1E2133"/>
<path fill-rule="evenodd" clip-rule="evenodd" d="M59.0216 19.8258L58.951 19.8686C58.951 19.8686 58.848 19.7951 58.7507 19.8943C58.6534 19.9934 57.1772 21.5531 57.1772 21.5531L57.1358 21.6241L56.8215 21.5368C56.8215 21.5368 56.7535 21.3598 56.9294 21.23C57.1053 21.1003 58.508 19.9722 58.508 19.9722L58.5408 19.4248L58.63 19.4389L59.0216 19.8258Z" fill="#1E2133"/>
<path fill-rule="evenodd" clip-rule="evenodd" d="M53.2025 11.8631L52.9429 12.7502C52.9429 12.7502 50.8155 12.5617 49.6709 10.772C51.6057 12 52.3637 11.8343 53.2025 11.8631Z" fill="#1E2133"/>
<path fill-rule="evenodd" clip-rule="evenodd" d="M58.6646 13.6083C58.6646 13.6083 62.0491 13.4674 62.5107 12.6764C62.5107 12.6764 61.0883 12.8916 60.9288 12.7878C60.7694 12.6839 60.4597 11.0698 60.4597 11.0698H60.0435L58.6646 13.6083Z" fill="#1E2133"/>
<path fill-rule="evenodd" clip-rule="evenodd" d="M51.4679 15.4609C51.4844 15.2326 51.4907 15.0397 51.6481 14.9421C51.3648 14.6699 51.4779 14.5388 51.6376 14.1688L51.6729 14.2168C51.5645 13.9378 51.5109 13.7995 51.3008 13.6508C51.3027 13.6485 51.3041 13.6479 51.304 13.6451C51.2677 13.6867 51.3339 14.0319 51.3403 14.1185C51.268 14.0105 51.1277 13.714 51.2053 13.5701C51.3787 13.2486 51.8082 14.0395 51.8483 14.1241C51.7324 14.5594 51.4868 14.5481 51.8256 14.9086L51.8327 15.0696C51.6348 15.1118 51.5654 15.2784 51.4679 15.4609Z" fill="#1E2133"/>
<path fill-rule="evenodd" clip-rule="evenodd" d="M60.4747 15.8076C60.4747 15.661 60.5501 15.2431 60.5255 15.1245C60.5056 15.0286 60.4043 15.0405 60.3632 15.086C60.2338 15.2289 60.3938 15.6398 60.2195 15.815C59.5917 16.4469 60.4747 16.074 60.4747 15.8076Z" fill="#E8A16B"/>
<path fill-rule="evenodd" clip-rule="evenodd" d="M55.7388 32.9852L58.654 26.8833L59.4933 20.5873C59.5067 20.4876 59.5648 20.4082 59.6558 20.3661C59.7465 20.324 59.8444 20.3309 59.9284 20.3855L64.1407 23.1223C64.1628 23.1366 64.18 23.1514 64.1975 23.1711C64.2671 23.2488 64.3231 23.3613 64.3537 23.4598C64.4251 23.6896 64.397 23.9286 64.2965 24.1452C64.2623 24.2189 64.1929 24.3048 64.1429 24.3693C64.051 24.4875 63.9558 24.6037 63.8604 24.7193C63.5514 25.0942 63.236 25.4643 62.9206 25.8338C62.0005 26.9108 61.0709 27.9804 60.1406 29.0487C58.7508 30.6441 57.3569 32.2364 55.959 33.8246C55.9489 33.837 55.9378 33.8484 55.9255 33.8592C55.8728 33.9059 55.8062 33.93 55.739 33.93C55.6717 33.93 55.6052 33.9059 55.5525 33.8592C55.5402 33.8484 55.5291 33.837 55.519 33.8246C54.121 32.2364 52.7272 30.6441 51.3374 29.0487C50.4071 27.9804 49.4775 26.9108 48.5573 25.8338C48.2419 25.4643 47.9265 25.0942 47.6175 24.7193C47.5221 24.6037 47.4269 24.4875 47.3351 24.3693C47.285 24.3048 47.2156 24.2189 47.1815 24.1452C47.081 23.9286 47.0529 23.6896 47.1242 23.4598C47.1549 23.3612 47.2108 23.2487 47.2803 23.1711C47.2979 23.1514 47.3152 23.1366 47.3372 23.1223L51.5495 20.3855C51.6335 20.331 51.7314 20.324 51.8222 20.3661C51.913 20.4082 51.9713 20.4876 51.9845 20.5873L52.8239 26.8833L55.7388 32.9852Z" fill="#1E2133"/>
<path fill-rule="evenodd" clip-rule="evenodd" d="M51.7033 20.625L47.491 23.3618C47.491 23.3618 47.254 23.6268 47.4384 24.0243C47.6228 24.4217 55.7389 33.6438 55.7389 33.6438L52.5485 26.9658L51.7033 20.625Z" fill="white"/>
<path fill-rule="evenodd" clip-rule="evenodd" d="M59.7743 20.625L63.9866 23.3618C63.9866 23.3618 64.2236 23.6268 64.0393 24.0243C63.8549 24.4217 55.7388 33.6438 55.7388 33.6438L58.9292 26.9658L59.7743 20.625Z" fill="#1E2133"/>
<path fill-rule="evenodd" clip-rule="evenodd" d="M59.4296 20.0815L60.9385 20.6409L62.9498 23.4593L60.5682 23.7521L61.6468 24.3769L56.0891 33.9132L55.7758 34.465L55.4773 33.9132L49.8203 24.3769L50.9983 23.7521L48.6167 23.4593L50.628 20.6409L52.137 20.0815L55.1499 21.1689L59.4296 20.0815Z" fill="#1E2133"/>
<path fill-rule="evenodd" clip-rule="evenodd" d="M51.9482 20.4551L50.8073 20.878L49.126 23.234L51.8281 23.5663L50.3869 24.4725L55.7828 33.8751L51.9482 20.4551Z" fill="white"/>
<path fill-rule="evenodd" clip-rule="evenodd" d="M59.6178 20.4551L60.7587 20.878L62.4401 23.234L59.7379 23.5663L61.179 24.4725L55.7832 33.8751L59.6178 20.4551Z" fill="#E8A16B"/>
<path fill-rule="evenodd" clip-rule="evenodd" d="M54.2379 21.6624L53.2606 23.4986C53.209 23.5955 53.1058 23.6458 52.9983 23.6265C52.8908 23.6073 52.8112 23.5242 52.796 23.4154L52.3336 20.1011C52.3299 20.0751 52.3302 20.0526 52.3344 20.0267L52.562 18.6009C52.5803 18.4866 52.6702 18.4021 52.7848 18.3917C52.8994 18.3813 53.0029 18.4482 53.0412 18.5573L53.2972 19.287L54.9517 21.3375C55.018 21.4197 55.0265 21.5288 54.9738 21.6202C54.921 21.7117 54.8227 21.7585 54.719 21.7414L54.2379 21.6624Z" fill="#1E2133"/>
<path fill-rule="evenodd" clip-rule="evenodd" d="M54.7593 21.4952C53.9667 20.5131 53.2249 19.8314 52.8073 18.6406C52.7314 19.116 52.6556 19.5912 52.5796 20.0665C52.7338 21.1714 52.8879 22.2761 53.042 23.3809C53.3957 22.7164 53.7494 22.0518 54.1031 21.3873C54.3219 21.4233 54.5405 21.4593 54.7593 21.4952Z" fill="white"/>
<path fill-rule="evenodd" clip-rule="evenodd" d="M58.2851 19.287L58.5411 18.5573C58.5793 18.4482 58.6829 18.3813 58.7975 18.3917C58.912 18.4021 59.002 18.4865 59.0203 18.6009L59.2479 20.0267C59.2521 20.0526 59.2522 20.0751 59.2487 20.1011L58.7864 23.4154C58.7711 23.5242 58.6915 23.6073 58.584 23.6265C58.4764 23.6458 58.3732 23.5955 58.3217 23.4986L57.3443 21.6624L56.8634 21.7416C56.7596 21.7586 56.6613 21.7118 56.6086 21.6204C56.5558 21.529 56.5644 21.4198 56.6306 21.3377L58.2851 19.287Z" fill="#1E2133"/>
<path fill-rule="evenodd" clip-rule="evenodd" d="M56.8232 21.4952L58.5049 19.4111L58.7751 18.6406L59.0029 20.0665L58.5404 23.3809L57.4794 21.3873L56.8232 21.4952Z" fill="#E8A16B"/>
<path fill-rule="evenodd" clip-rule="evenodd" d="M56.1872 5.76752C56.5953 6.20786 57.0309 6.6704 57.6413 7.11519C56.982 6.87636 56.4342 6.39336 55.8827 5.97092C55.8393 5.93636 55.8321 5.87295 55.8663 5.82933C55.9008 5.78564 56.1438 5.73296 56.1872 5.76752Z" fill="#1E2133"/>
<path fill-rule="evenodd" clip-rule="evenodd" d="M57.0929 26.7858L55.7919 30.4381L54.4727 26.7615L55.0266 23.3452H56.5293L57.0929 26.7858Z" fill="#1E2133"/>
<path fill-rule="evenodd" clip-rule="evenodd" d="M56.8013 26.7588L56.2888 23.6304H55.7783H55.268L54.7646 26.734L55.7911 30.8028L56.8013 26.7588Z" fill="#AD6327"/>
<path fill-rule="evenodd" clip-rule="evenodd" d="M56.6951 22.4331L56.3014 23.3385H55.2806C55.139 23.0129 54.9974 22.6872 54.8558 22.3616C54.6368 21.8581 54.8434 21.8885 55.3522 21.8885C55.8425 21.8885 55.6274 21.8885 56.1177 21.8885C56.6843 21.8885 56.941 21.8676 56.6951 22.4331Z" fill="#AD6327"/>
<path fill-rule="evenodd" clip-rule="evenodd" d="M54.6543 20.7607C55.1196 21.2138 55.1947 21.4252 55.7952 21.3799C56.0455 21.361 56.3379 21.483 56.6725 21.1827C57.1405 20.7628 57.7316 19.8848 57.7316 19.8848C57.7316 19.8848 57.1866 20.5709 56.5088 20.9049C56.0014 21.155 55.1309 21.0151 54.6543 20.7607Z" fill="white"/>
<path fill-rule="evenodd" clip-rule="evenodd" d="M60.5102 11.3242C60.6048 11.7832 60.8087 12.71 60.9283 12.7878C61.0878 12.8917 62.5102 12.6765 62.5102 12.6765C62.3088 13.0214 61.5518 13.2428 60.7618 13.3827C60.8195 13.4483 60.8055 13.5313 60.7306 13.621C60.6386 13.7313 60.4543 13.8518 60.1976 13.9625C60.0737 14.016 59.9328 14.0672 59.7772 14.114C59.7635 14.1181 59.7496 14.1221 59.7357 14.1262C59.5902 14.1685 59.4323 14.2067 59.264 14.2392C59.2412 14.2436 59.218 14.2479 59.1948 14.252C59.2181 14.2515 59.2414 14.2508 59.2647 14.2501C59.4206 14.2456 59.5778 14.2395 59.7357 14.2316C59.7517 14.2308 59.7675 14.23 59.7833 14.2292C60.0087 14.2175 60.2358 14.2023 60.4632 14.1834C60.5559 14.1756 60.6487 14.1672 60.7416 14.1582C62.8981 13.9491 65.0627 13.3911 66.3573 12.244C66.1754 12.0876 65.8159 11.9905 65.4453 11.9366C64.374 11.7808 62.5371 11.5636 60.5102 11.3242Z" fill="#E8A16B"/>
<path fill-rule="evenodd" clip-rule="evenodd" d="M51.2628 11.3984C51.3535 11.0035 51.4667 10.5813 51.6011 10.1515C51.3297 10.1015 51.1011 10.0539 50.9235 10.0093C50.0269 9.78404 48.0152 9.30331 47.2012 9.31923C46.1586 9.33962 50.1591 11.5895 50.4936 11.7009C50.1952 11.4531 49.9112 11.1478 49.6708 10.7717C50.3219 11.1849 50.8397 11.4404 51.2721 11.5985C51.266 11.5644 51.261 11.5293 51.2572 11.4931L51.2521 11.4453L51.2628 11.3984Z" fill="#E8A16B"/>
<path fill-rule="evenodd" clip-rule="evenodd" d="M58.8313 18.9922L58.7751 18.6406L58.7506 18.7104C58.4146 19.6688 58.2042 19.7838 57.5859 20.5501L57.5124 20.6412L57.2213 21.0019L56.8259 21.4919L56.8232 21.4953L56.8342 21.4936L57.3077 21.4157L57.4794 21.3874C57.5964 21.2026 58.8453 19.4886 58.8313 18.9922Z" fill="white"/>
<path fill-rule="evenodd" clip-rule="evenodd" d="M54.0259 22.8875L53.5605 23.649L54.3411 25.9664L54.9267 23.4503L54.5214 22.689L54.0259 22.8875Z" fill="#E8A16B"/>
<path fill-rule="evenodd" clip-rule="evenodd" d="M57.5399 22.8875L58.0051 23.649L57.2245 25.9664L56.6392 23.4503L57.0445 22.689L57.5399 22.8875Z" fill="#E8A16B"/>
<path fill-rule="evenodd" clip-rule="evenodd" d="M54.1621 21.5879C53.7134 20.9106 52.8747 19.7508 52.7434 18.9752L52.7139 18.7017L52.7901 18.9645C53.0524 19.8388 53.772 20.7429 54.2981 21.4941C54.3239 21.5319 54.3144 21.5835 54.2768 21.6095C54.2392 21.6354 54.1879 21.6258 54.1621 21.5879Z" fill="#1E2133"/>
<path fill-rule="evenodd" clip-rule="evenodd" d="M57.4357 21.5879C57.8843 20.9106 58.7231 19.7508 58.8543 18.9752L58.8839 18.7017L58.8077 18.9645C58.5453 19.8388 57.8257 20.7429 57.2996 21.4941C57.2739 21.5319 57.2834 21.5835 57.321 21.6095C57.3586 21.6354 57.4099 21.6258 57.4357 21.5879Z" fill="#1E2133"/>
<path fill-rule="evenodd" clip-rule="evenodd" d="M51.5642 20.15C52.9054 24.5825 54.2734 29.0292 55.5705 33.4737C55.617 33.6331 55.7503 34.054 55.7787 34.22C55.7097 34.0665 55.5848 33.6432 55.5342 33.4849C54.1249 29.0753 52.7727 24.6235 51.4065 20.1987C51.3931 20.1548 51.4176 20.1085 51.4611 20.095C51.5047 20.0815 51.5508 20.1061 51.5642 20.15Z" fill="#1E2133"/>
<path fill-rule="evenodd" clip-rule="evenodd" d="M59.9933 20.15C58.6521 24.5825 57.2841 29.0292 55.9871 33.4737C55.9405 33.6331 55.8073 34.054 55.7788 34.22C55.848 34.0665 55.9728 33.6432 56.0232 33.4849C57.4327 29.0753 58.7848 24.6235 60.151 20.1987C60.1643 20.1548 60.1399 20.1085 60.0964 20.095C60.0529 20.0815 60.0067 20.1061 59.9933 20.15Z" fill="#1E2133"/>
<path fill-rule="evenodd" clip-rule="evenodd" d="M52.9817 15.8475C52.5615 15.6254 52.2372 15.3211 52.1544 14.8236C52.1544 14.8236 52.1461 14.7551 52.1627 14.7569C52.1639 14.7584 52.1637 14.7579 52.1642 14.76C52.2996 15.239 52.5979 15.5245 53.0326 15.7278C53.0655 15.7419 53.0807 15.7802 53.0666 15.8132C53.0526 15.8463 53.0146 15.8617 52.9817 15.8475Z" fill="white"/>
<path fill-rule="evenodd" clip-rule="evenodd" d="M56.7795 23.4555C57.1209 26.9438 56.9639 25.1983 57.2503 28.6921C56.7762 25.219 56.9995 26.9573 56.5802 23.4776C56.5741 23.4222 56.6138 23.3724 56.6689 23.3664C56.724 23.3601 56.7734 23.4001 56.7795 23.4555Z" fill="#1E2133"/>
</g>
<path d="M96.3176 27C95.7031 27 95.1027 26.8351 94.5167 26.5054C93.9363 26.1815 93.4782 25.7487 93.1425 25.2069C93.0003 24.9773 92.8694 24.7094 92.7499 24.4032C92.6361 24.097 92.5593 23.7495 92.5194 23.3609C92.4796 22.9664 92.4967 22.5277 92.5707 22.0448C92.6446 21.5619 92.8125 21.032 93.0742 20.4549L95.4641 21.5767C95.2422 22.0419 95.1227 22.4688 95.1056 22.8574C95.0885 23.2461 95.1625 23.567 95.3275 23.8202C95.4527 24.0204 95.6092 24.1706 95.7969 24.2707C95.9847 24.3649 96.1583 24.412 96.3176 24.412C96.4598 24.412 96.6249 24.4032 96.8126 24.3855C97.0004 24.3678 97.1796 24.2972 97.3503 24.1735C97.5267 24.044 97.6747 23.8437 97.7942 23.5729C97.9193 23.302 97.9819 22.9192 97.9819 22.4246V16.277H100.5V22.4246C100.5 23.1371 100.403 23.776 100.21 24.3413C100.016 24.9066 99.7373 25.3836 99.3732 25.7722C99.0147 26.1668 98.5766 26.47 98.0588 26.682C97.541 26.894 96.9606 27 96.3176 27Z" fill="#AE2424"/>
<path d="M104.469 25.1186C102.642 25.1186 101.729 24.2736 101.729 22.5836V16.2328H104.247V21.6297C104.247 21.8063 104.292 21.9977 104.383 22.2038C104.48 22.4099 104.679 22.5129 104.981 22.5129H105.203V25.1186H104.469Z" fill="#AE2424"/>
<path d="M105.211 25.1186C105.12 25.1186 105.029 25.0921 104.938 25.0391C104.841 24.9861 104.793 24.939 104.793 24.8978V22.7161C104.793 22.6513 104.847 22.6013 104.955 22.5659C105.058 22.5306 105.143 22.5129 105.211 22.5129H108.079L105.843 19.1653H113.618L111.28 22.5129H114.352V25.1186H105.211Z" fill="#AE2424"/>
<path d="M118.663 22.5129C118.651 22.4423 118.646 22.3628 118.646 22.2744C118.634 22.2038 118.628 22.1213 118.628 22.0271C118.628 21.927 118.617 21.824 118.594 21.718H116.35C116.059 21.718 115.8 21.6414 115.573 21.4883C115.345 21.3293 115.231 21.085 115.231 20.7552V20.5432C115.266 20.1192 115.368 19.707 115.539 19.3066C115.709 18.9003 115.934 18.5234 116.213 18.176C116.446 17.8934 116.725 17.6637 117.049 17.4871C117.379 17.3045 117.741 17.2132 118.133 17.2132C118.634 17.2132 119.058 17.3369 119.405 17.5842C119.758 17.8315 120.079 18.1495 120.37 18.5382C120.666 18.9209 120.896 19.3832 121.061 19.9249C121.232 20.4667 121.345 21.0526 121.402 21.6826C121.414 21.9005 121.425 22.0713 121.437 22.195C121.448 22.3127 121.456 22.4069 121.462 22.4776C121.468 22.5483 121.473 22.613 121.479 22.6719C121.491 22.7249 121.496 22.7868 121.496 22.8574C121.519 23.5817 121.371 24.1411 121.052 24.5356C120.739 24.9243 120.327 25.1186 119.815 25.1186H114.378C114.287 25.1186 114.196 25.0921 114.105 25.0391C114.008 24.9861 113.96 24.939 113.96 24.8978V22.7161C113.96 22.6513 114.014 22.6013 114.122 22.5659C114.224 22.5306 114.31 22.5129 114.378 22.5129H118.663ZM118.185 16.1268C117.758 16.1268 117.397 15.9767 117.101 15.6763C116.81 15.376 116.665 15.0021 116.665 14.5546C116.665 14.1188 116.81 13.7508 117.101 13.4505C117.397 13.1502 117.758 13 118.185 13C118.606 13 118.961 13.1502 119.252 13.4505C119.547 13.7508 119.695 14.1188 119.695 14.5546C119.695 15.0021 119.547 15.376 119.252 15.6763C118.961 15.9767 118.606 16.1268 118.185 16.1268Z" fill="#AE2424"/>
<path d="M131.716 23.7617C130.925 23.7617 130.301 23.6299 129.844 23.3662C129.387 23.1025 129.074 22.6777 128.904 22.0918H128.042C127.949 22.0918 127.852 22.0654 127.752 22.0127C127.659 21.96 127.612 21.9131 127.612 21.8721V19.7363C127.612 19.6719 127.665 19.6221 127.77 19.5869C127.881 19.5518 127.972 19.5342 128.042 19.5342H131.321V20.6504C131.321 20.7617 131.359 20.876 131.435 20.9932C131.511 21.1045 131.669 21.166 131.91 21.1777H132.235V23.7617H131.716ZM126.856 25.1855H131.461V27.4004H126.856V25.1855ZM127.744 22.1182C127.503 23.0967 127.193 23.958 126.812 24.7021C126.437 25.4463 126.053 26.1201 125.661 26.7236L123.499 25.2998C123.774 24.8896 124.029 24.4707 124.263 24.043C124.498 23.6211 124.7 23.1787 124.87 22.7158C125.045 22.2529 125.189 21.7607 125.3 21.2393C125.417 20.7178 125.5 20.1582 125.546 19.5605H128.104V22.1182H127.744Z" fill="#AE2424"/>
<path d="M133.351 21.1689C133.216 20.583 133.234 20.0146 133.404 19.4639C133.574 18.9072 133.887 18.4268 134.344 18.0225C135.276 17.167 136.559 16.8242 138.194 16.9941L137.939 19.4199C137.482 19.3848 137.098 19.3994 136.788 19.4639C136.477 19.5225 136.213 19.6543 135.997 19.8594C135.792 20.0469 135.701 20.2725 135.724 20.5361C135.748 20.7998 135.838 21.0107 135.997 21.1689H138.501V23.7617H132.235C132.141 23.7617 132.047 23.7354 131.954 23.6826C131.854 23.6299 131.804 23.583 131.804 23.542V21.3711C131.804 21.3066 131.86 21.2568 131.971 21.2217C132.077 21.1865 132.165 21.1689 132.235 21.1689H133.351ZM136.084 15.7197C135.639 15.7197 135.267 15.5703 134.968 15.2715C134.669 14.9668 134.52 14.5918 134.52 14.1465C134.52 13.7188 134.669 13.3555 134.968 13.0566C135.267 12.752 135.639 12.5996 136.084 12.5996C136.518 12.5996 136.884 12.752 137.183 13.0566C137.482 13.3555 137.631 13.7188 137.631 14.1465C137.631 14.5918 137.482 14.9668 137.183 15.2715C136.884 15.5703 136.518 15.7197 136.084 15.7197Z" fill="#AE2424"/>
<defs>
<filter id="filter0_d_309_20727" x="8.56641" y="13.9014" width="35.5352" height="17.0605" filterUnits="userSpaceOnUse" color-interpolation-filters="sRGB">
<feFlood flood-opacity="0" result="BackgroundImageFix"/>
<feColorMatrix in="SourceAlpha" type="matrix" values="0 0 0 0 0 0 0 0 0 0 0 0 0 0 0 0 0 0 127 0" result="hardAlpha"/>
<feOffset dy="2"/>
<feGaussianBlur stdDeviation="1"/>
<feComposite in2="hardAlpha" operator="out"/>
<feColorMatrix type="matrix" values="0 0 0 0 0 0 0 0 0 0 0 0 0 0 0 0 0 0 0.32 0"/>
<feBlend mode="normal" in2="BackgroundImageFix" result="effect1_dropShadow_309_20727"/>
<feBlend mode="normal" in="SourceGraphic" in2="effect1_dropShadow_309_20727" result="shape"/>
</filter>
<filter id="filter1_d_309_20727" x="30" y="0" width="52.3315" height="60" filterUnits="userSpaceOnUse" color-interpolation-filters="sRGB">
<feFlood flood-opacity="0" result="BackgroundImageFix"/>
<feColorMatrix in="SourceAlpha" type="matrix" values="0 0 0 0 0 0 0 0 0 0 0 0 0 0 0 0 0 0 127 0" result="hardAlpha"/>
<feOffset dy="10"/>
<feGaussianBlur stdDeviation="7.5"/>
<feComposite in2="hardAlpha" operator="out"/>
<feColorMatrix type="matrix" values="0 0 0 0 0 0 0 0 0 0 0 0 0 0 0 0 0 0 0.8 0"/>
<feBlend mode="normal" in2="BackgroundImageFix" result="effect1_dropShadow_309_20727"/>
<feBlend mode="normal" in="SourceGraphic" in2="effect1_dropShadow_309_20727" result="shape"/>
</filter>
</defs>
</svg>
