<svg width="330" height="461" viewBox="0 0 330 461" fill="none" xmlns="http://www.w3.org/2000/svg">
<g clip-path="url(#clip0_124_12850)">
<rect width="330" height="461" rx="15" fill="#1E2133"/>
<g clip-path="url(#clip1_124_12850)">
<g filter="url(#filter0_d_124_12850)">
<path d="M142.203 152C141.617 153.419 140.764 154.741 139.645 155.965C138.525 157.189 137.125 158.283 135.445 159.246C135.146 158.921 134.833 158.562 134.508 158.172C134.195 157.794 133.87 157.41 133.531 157.02C133.206 156.629 132.887 156.251 132.574 155.887C132.275 155.535 132.001 155.216 131.754 154.93C132.509 154.552 133.212 154.142 133.863 153.699C134.514 153.257 135.107 152.69 135.641 152H130.074C129.866 151.701 129.632 151.128 129.371 150.281C129.124 149.422 129 148.432 129 147.312C129 146.466 129.124 145.574 129.371 144.637C129.632 143.699 130.055 142.846 130.641 142.078C131.227 141.31 131.982 140.672 132.906 140.164C133.844 139.656 134.983 139.402 136.324 139.402C137.444 139.402 138.401 139.637 139.195 140.105C140.003 140.574 140.673 141.16 141.207 141.863C141.741 142.566 142.151 143.315 142.438 144.109C142.737 144.891 142.939 145.6 143.043 146.238H144.352V152H142.203ZM137.75 146.238C137.75 145.73 137.548 145.288 137.145 144.91C136.754 144.52 136.292 144.324 135.758 144.324C135.276 144.324 134.827 144.513 134.41 144.891C134.007 145.255 133.805 145.704 133.805 146.238H137.75Z" fill="white"/>
<path d="M144.352 152C144.143 152 143.935 151.941 143.727 151.824C143.505 151.707 143.395 151.603 143.395 151.512V146.688C143.395 146.544 143.518 146.434 143.766 146.355C144 146.277 144.195 146.238 144.352 146.238H148.355V152H144.352Z" fill="white"/>
<path d="M148.375 152C148.167 152 147.958 151.941 147.75 151.824C147.529 151.707 147.418 151.603 147.418 151.512V146.688C147.418 146.544 147.542 146.434 147.789 146.355C148.023 146.277 148.219 146.238 148.375 146.238H152.379V152H148.375Z" fill="white"/>
<path d="M152.398 152C152.19 152 151.982 151.941 151.773 151.824C151.552 151.707 151.441 151.603 151.441 151.512V146.688C151.441 146.544 151.565 146.434 151.812 146.355C152.047 146.277 152.242 146.238 152.398 146.238H156.402V152H152.398Z" fill="white"/>
<path d="M156.422 152C156.214 152 156.005 151.941 155.797 151.824C155.576 151.707 155.465 151.603 155.465 151.512V146.688C155.465 146.544 155.589 146.434 155.836 146.355C156.07 146.277 156.266 146.238 156.422 146.238H160.426V152H156.422Z" fill="white"/>
<path d="M160.445 152C160.237 152 160.029 151.941 159.82 151.824C159.599 151.707 159.488 151.603 159.488 151.512V146.688C159.488 146.544 159.612 146.434 159.859 146.355C160.094 146.277 160.289 146.238 160.445 146.238H164.449V152H160.445Z" fill="white"/>
<path d="M164.469 152C164.26 152 164.052 151.941 163.844 151.824C163.622 151.707 163.512 151.603 163.512 151.512V146.688C163.512 146.544 163.635 146.434 163.883 146.355C164.117 146.277 164.312 146.238 164.469 146.238H168.473V152H164.469Z" fill="white"/>
<path d="M168.492 152C168.284 152 168.076 151.941 167.867 151.824C167.646 151.707 167.535 151.603 167.535 151.512V146.688C167.535 146.544 167.659 146.434 167.906 146.355C168.141 146.277 168.336 146.238 168.492 146.238H172.496V152H168.492Z" fill="white"/>
<path d="M172.516 152C172.307 152 172.099 151.941 171.891 151.824C171.669 151.707 171.559 151.603 171.559 151.512V146.688C171.559 146.544 171.682 146.434 171.93 146.355C172.164 146.277 172.359 146.238 172.516 146.238H176.52V152H172.516Z" fill="white"/>
<path d="M176.539 152C176.331 152 176.122 151.941 175.914 151.824C175.693 151.707 175.582 151.603 175.582 151.512V146.688C175.582 146.544 175.706 146.434 175.953 146.355C176.188 146.277 176.383 146.238 176.539 146.238H180.543V152H176.539Z" fill="white"/>
<path d="M180.562 152C180.354 152 180.146 151.941 179.938 151.824C179.716 151.707 179.605 151.603 179.605 151.512V146.688C179.605 146.544 179.729 146.434 179.977 146.355C180.211 146.277 180.406 146.238 180.562 146.238H184.566V152H180.562Z" fill="white"/>
<path d="M184.586 152C184.378 152 184.169 151.941 183.961 151.824C183.74 151.707 183.629 151.603 183.629 151.512V146.688C183.629 146.544 183.753 146.434 184 146.355C184.234 146.277 184.43 146.238 184.586 146.238H188.59V152H184.586Z" fill="white"/>
<path d="M198.336 146.395C198.336 150.132 196.24 152 192.047 152H188.609C188.401 152 188.193 151.941 187.984 151.824C187.763 151.707 187.652 151.603 187.652 151.512V146.688C187.652 146.544 187.776 146.434 188.023 146.355C188.258 146.277 188.453 146.238 188.609 146.238H190.895C191.559 146.238 192.001 146.01 192.223 145.555C192.457 145.099 192.574 144.676 192.574 144.285V142.078H198.336V146.395ZM189.938 133.074H200.172V137.996H189.938V133.074Z" fill="white"/>
</g>
<g filter="url(#filter1_d_124_12850)">
<path d="M89.1523 230C88.8268 230.82 88.4557 231.576 88.0391 232.266C87.6354 232.969 87.1797 233.633 86.6719 234.258C86.1641 234.883 85.6042 235.482 84.9922 236.055C84.3802 236.628 83.6966 237.22 82.9414 237.832L79.2305 233.281C79.9466 232.721 80.5911 232.174 81.1641 231.641C81.737 231.107 82.2383 230.508 82.668 229.844C83.0977 229.18 83.4492 228.398 83.7227 227.5C84.0091 226.602 84.2174 225.514 84.3477 224.238H91.1055V230H89.1523ZM91.1055 230C90.8971 230 90.6888 229.941 90.4805 229.824C90.2591 229.707 90.1484 229.603 90.1484 229.512V224.688C90.1484 224.544 90.2721 224.434 90.5195 224.355C90.7539 224.277 90.9492 224.238 91.1055 224.238H95.0703L91.8281 221.602C92.1667 221.172 92.6029 220.664 93.1367 220.078C93.6706 219.492 94.263 218.893 94.9141 218.281V210.605H100.617V214.688C101.268 214.57 101.88 214.564 102.453 214.668C103.026 214.759 103.56 214.935 104.055 215.195C104.562 215.443 105.031 215.755 105.461 216.133C105.891 216.497 106.268 216.882 106.594 217.285C107.258 218.105 107.844 219.16 108.352 220.449C108.859 221.725 109.152 222.988 109.23 224.238H110.539V230H91.1055ZM101.906 224.238C102.258 224.238 102.538 224.212 102.746 224.16C102.954 224.108 103.098 224.056 103.176 224.004C103.215 223.73 103.169 223.411 103.039 223.047C102.922 222.669 102.766 222.298 102.57 221.934C102.388 221.556 102.186 221.224 101.965 220.938C101.743 220.638 101.535 220.43 101.34 220.312C101.132 220.404 100.852 220.566 100.5 220.801C100.161 221.035 99.7904 221.328 99.3867 221.68C98.9831 222.031 98.5534 222.428 98.0977 222.871C97.6549 223.301 97.2188 223.757 96.7891 224.238H101.906ZM106.223 212.93C105.233 212.93 104.406 212.598 103.742 211.934C103.078 211.257 102.746 210.423 102.746 209.434C102.746 208.483 103.078 207.676 103.742 207.012C104.406 206.335 105.233 205.996 106.223 205.996C107.186 205.996 108 206.335 108.664 207.012C109.328 207.676 109.66 208.483 109.66 209.434C109.66 210.423 109.328 211.257 108.664 211.934C108 212.598 107.186 212.93 106.223 212.93ZM120.246 224.395C120.246 228.132 118.15 230 113.957 230H110.52C110.311 230 110.103 229.941 109.895 229.824C109.673 229.707 109.562 229.603 109.562 229.512V224.688C109.562 224.544 109.686 224.434 109.934 224.355C110.168 224.277 110.363 224.238 110.52 224.238H112.805C113.469 224.238 113.911 224.01 114.133 223.555C114.367 223.099 114.484 222.676 114.484 222.285V220.078H120.246V224.395ZM116.965 216.113C115.975 216.113 115.148 215.781 114.484 215.117C113.82 214.453 113.488 213.626 113.488 212.637C113.488 211.673 113.82 210.859 114.484 210.195C115.148 209.531 115.975 209.199 116.965 209.199C117.915 209.199 118.723 209.531 119.387 210.195C120.064 210.859 120.402 211.673 120.402 212.637C120.402 213.626 120.064 214.453 119.387 215.117C118.723 215.781 117.915 216.113 116.965 216.113ZM136.945 227.637C136.633 228.145 136.242 228.555 135.773 228.867C135.305 229.167 134.797 229.408 134.25 229.59C133.703 229.759 133.137 229.87 132.551 229.922C131.965 229.974 131.379 230 130.793 230H124.035V224.238H129.465C130.376 224.238 130.832 223.88 130.832 223.164C130.832 222.865 130.728 222.474 130.52 221.992L128.234 217.363L133.43 214.844L135.949 220.039C136.327 220.807 136.691 221.641 137.043 222.539C137.408 223.438 137.59 224.349 137.59 225.273C137.59 225.677 137.544 226.081 137.453 226.484C137.362 226.875 137.193 227.259 136.945 227.637ZM136.574 233.281C137.368 232.643 138.065 232.038 138.664 231.465C139.263 230.892 139.777 230.234 140.207 229.492C140.637 228.737 140.975 227.832 141.223 226.777C141.483 225.723 141.665 224.395 141.77 222.793L147.531 223.164C147.401 225.13 147.16 226.823 146.809 228.242C146.457 229.648 145.982 230.905 145.383 232.012C144.784 233.118 144.048 234.128 143.176 235.039C142.316 235.951 141.314 236.855 140.168 237.754L136.574 233.281ZM163.332 230C162.746 231.419 161.893 232.741 160.773 233.965C159.654 235.189 158.254 236.283 156.574 237.246C156.275 236.921 155.962 236.562 155.637 236.172C155.324 235.794 154.999 235.41 154.66 235.02C154.335 234.629 154.016 234.251 153.703 233.887C153.404 233.535 153.13 233.216 152.883 232.93C153.638 232.552 154.341 232.142 154.992 231.699C155.643 231.257 156.236 230.69 156.77 230H151.203C150.995 229.701 150.76 229.128 150.5 228.281C150.253 227.422 150.129 226.432 150.129 225.312C150.129 224.466 150.253 223.574 150.5 222.637C150.76 221.699 151.184 220.846 151.77 220.078C152.355 219.31 153.111 218.672 154.035 218.164C154.973 217.656 156.112 217.402 157.453 217.402C158.573 217.402 159.53 217.637 160.324 218.105C161.132 218.574 161.802 219.16 162.336 219.863C162.87 220.566 163.28 221.315 163.566 222.109C163.866 222.891 164.068 223.6 164.172 224.238H165.48V230H163.332ZM158.879 224.238C158.879 223.73 158.677 223.288 158.273 222.91C157.883 222.52 157.421 222.324 156.887 222.324C156.405 222.324 155.956 222.513 155.539 222.891C155.135 223.255 154.934 223.704 154.934 224.238H158.879ZM183.117 225.996C182.635 227.311 182.076 228.418 181.438 229.316C180.799 230.202 180.109 230.918 179.367 231.465C178.638 232.012 177.889 232.402 177.121 232.637C176.353 232.884 175.591 233.008 174.836 233.008C174.445 233.008 174.074 232.975 173.723 232.91C173.371 232.858 173.013 232.78 172.648 232.676C171.919 232.467 171.229 232.129 170.578 231.66C169.927 231.191 169.374 230.638 168.918 230H165.324C165.103 229.974 164.921 229.909 164.777 229.805C164.634 229.701 164.562 229.603 164.562 229.512V224.688C164.562 224.544 164.66 224.434 164.855 224.355C165.038 224.277 165.207 224.238 165.363 224.238H165.559H167.766C167.818 223.952 167.883 223.646 167.961 223.32C168.039 222.995 168.143 222.676 168.273 222.363L167.688 222.129L170.168 216.914L183.996 223.555L183.117 225.996ZM174.328 227.207C174.771 227.337 175.174 227.311 175.539 227.129C175.904 226.934 176.229 226.667 176.516 226.328L173.488 224.883C173.397 225.117 173.345 225.371 173.332 225.645C173.319 225.905 173.371 226.146 173.488 226.367C173.566 226.628 173.69 226.823 173.859 226.953C174.029 227.07 174.185 227.155 174.328 227.207ZM202.434 230L198.938 226.484C198.247 226.94 197.427 227.559 196.477 228.34C195.539 229.121 194.628 230.085 193.742 231.23L189.23 227.715C190.22 226.439 191.236 225.345 192.277 224.434C193.332 223.509 194.296 222.747 195.168 222.148C196.04 221.536 196.757 221.087 197.316 220.801C197.876 220.501 198.182 220.339 198.234 220.312L200.07 219.473L204.836 224.238H207.395V230H202.434ZM223.234 230C222.909 230.885 222.492 231.667 221.984 232.344C221.49 233.021 220.91 233.587 220.246 234.043C219.595 234.499 218.898 234.837 218.156 235.059C217.414 235.28 216.665 235.391 215.91 235.391C215.168 235.391 214.432 235.28 213.703 235.059C212.987 234.837 212.316 234.499 211.691 234.043C211.066 233.587 210.5 233.021 209.992 232.344C209.484 231.667 209.1 230.885 208.84 230H207.395C207.186 230 206.978 229.941 206.77 229.824C206.548 229.707 206.438 229.603 206.438 229.512V224.688C206.438 224.544 206.561 224.434 206.809 224.355C207.043 224.277 207.238 224.238 207.395 224.238H209.68L216.105 216.797L222.473 224.238H226.398V230H223.234ZM214.875 227.93C214.875 228.242 214.986 228.522 215.207 228.77C215.441 229.004 215.728 229.121 216.066 229.121C216.418 229.121 216.704 229.004 216.926 228.77C217.16 228.522 217.277 228.242 217.277 227.93C217.277 227.578 217.16 227.292 216.926 227.07C216.704 226.836 216.418 226.719 216.066 226.719C215.728 226.719 215.441 226.836 215.207 227.07C214.986 227.292 214.875 227.578 214.875 227.93ZM236.496 230C235.65 230 234.901 229.928 234.25 229.785C233.612 229.629 233.026 229.408 232.492 229.121C232.388 229.069 232.297 229.01 232.219 228.945C232.141 228.88 232.049 228.802 231.945 228.711C231.828 228.802 231.73 228.88 231.652 228.945C231.574 229.01 231.47 229.069 231.34 229.121C230.324 229.707 228.99 230 227.336 230H226.418C226.21 230 226.001 229.941 225.793 229.824C225.572 229.707 225.461 229.603 225.461 229.512V224.688C225.461 224.544 225.585 224.434 225.832 224.355C226.066 224.277 226.262 224.238 226.418 224.238H227.336C227.922 224.238 228.332 224.082 228.566 223.77C228.814 223.444 228.964 223.118 229.016 222.793C229.016 222.689 229.022 222.598 229.035 222.52C229.048 222.441 229.055 222.363 229.055 222.285V210.449H234.777V222.285C234.777 222.493 234.79 222.663 234.816 222.793C234.868 223.118 235.018 223.444 235.266 223.77C235.526 224.082 235.936 224.238 236.496 224.238H237.414V230H236.496ZM245.676 224.238L237.121 214.434L252.551 207.559L254.875 212.93L246.672 216.523L251.672 222.207C252.258 222.871 252.609 223.639 252.727 224.512C252.857 225.371 252.733 226.224 252.355 227.07C251.926 228.008 251.281 228.73 250.422 229.238C249.576 229.746 248.618 230 247.551 230H237.434C237.225 230 237.017 229.941 236.809 229.824C236.587 229.707 236.477 229.603 236.477 229.512V224.688C236.477 224.544 236.6 224.434 236.848 224.355C237.082 224.277 237.277 224.238 237.434 224.238H245.676Z" fill="white"/>
</g>
<g filter="url(#filter2_d_124_12850)">
<path d="M156.059 305C155.525 305 154.945 304.974 154.32 304.922C153.695 304.87 153.07 304.727 152.445 304.492C151.82 304.245 151.228 303.874 150.668 303.379C150.108 302.884 149.626 302.188 149.223 301.289C149.118 301.12 148.975 300.892 148.793 300.605C148.624 300.306 148.435 299.974 148.226 299.609L144.789 301.152L149.379 305.391L146.664 307.559C145.974 308.092 145.206 308.594 144.359 309.062C143.526 309.531 142.641 309.928 141.703 310.254C140.766 310.592 139.796 310.859 138.793 311.055C137.803 311.263 136.814 311.367 135.824 311.367C134.444 311.367 133.103 311.12 131.801 310.625C130.512 310.13 129.385 309.323 128.422 308.203C127.732 307.37 127.243 306.478 126.957 305.527C126.684 304.59 126.54 303.639 126.527 302.676C126.514 301.712 126.592 300.794 126.762 299.922C126.944 299.036 127.159 298.236 127.406 297.52C127.654 296.803 127.888 296.198 128.109 295.703C128.344 295.208 128.513 294.896 128.617 294.766L133.754 297.441C133.559 297.845 133.344 298.366 133.109 299.004C132.888 299.642 132.712 300.299 132.582 300.977C132.452 301.654 132.406 302.311 132.445 302.949C132.484 303.574 132.68 304.082 133.031 304.473C133.292 304.798 133.669 305.046 134.164 305.215C134.659 305.397 135.212 305.495 135.824 305.508C136.436 305.521 137.1 305.456 137.816 305.312C138.546 305.182 139.255 304.987 139.945 304.727L134.457 299.648L150.707 291.992C151.215 292.982 151.71 293.893 152.191 294.727C152.556 295.417 152.934 296.094 153.324 296.758C153.715 297.422 153.975 297.878 154.105 298.125C154.236 298.411 154.437 298.672 154.711 298.906C154.997 299.128 155.407 299.238 155.941 299.238H156.508V305H156.059ZM142.875 284.082H153.109V289.004H142.875V284.082Z" fill="white"/>
<path d="M156.508 305C156.299 305 156.091 304.941 155.883 304.824C155.661 304.707 155.551 304.603 155.551 304.512V299.688C155.551 299.544 155.674 299.434 155.922 299.355C156.156 299.277 156.351 299.238 156.508 299.238H179.75V305H156.508Z" fill="white"/>
<path d="M179.75 305C179.542 305 179.333 304.941 179.125 304.824C178.904 304.707 178.793 304.603 178.793 304.512V299.688C178.793 299.544 178.917 299.434 179.164 299.355C179.398 299.277 179.594 299.238 179.75 299.238H181.508C181.351 298.652 181.273 298.014 181.273 297.324C181.273 296.257 181.469 295.267 181.859 294.355C182.263 293.431 182.81 292.624 183.5 291.934C184.203 291.23 185.01 290.684 185.922 290.293C186.846 289.889 187.842 289.688 188.91 289.688L190.062 285.918C190.232 285.97 190.577 286.087 191.098 286.27C191.618 286.439 192.243 286.68 192.973 286.992C193.702 287.292 194.509 287.656 195.394 288.086C196.293 288.503 197.185 288.978 198.07 289.512C198.956 290.046 199.796 290.651 200.59 291.328C201.384 291.992 202.081 292.708 202.68 293.477C203.734 294.896 204.392 296.315 204.652 297.734C204.926 299.141 204.769 300.456 204.184 301.68C203.65 302.721 202.855 303.535 201.801 304.121C200.759 304.707 199.555 305 198.187 305H179.75ZM186.996 297.324C186.996 297.858 187.185 298.314 187.562 298.691C187.953 299.056 188.415 299.238 188.949 299.238C189.483 299.238 189.926 299.056 190.277 298.691C190.642 298.314 190.824 297.858 190.824 297.324C190.824 296.79 190.642 296.335 190.277 295.957C189.926 295.579 189.483 295.391 188.949 295.391C188.415 295.391 187.953 295.579 187.562 295.957C187.185 296.335 186.996 296.79 186.996 297.324ZM199.027 299.082C199.053 299.004 199.021 298.776 198.93 298.398C198.838 298.021 198.565 297.526 198.109 296.914C197.901 296.654 197.641 296.387 197.328 296.113C197.029 295.827 196.69 295.56 196.312 295.312C196.495 295.872 196.586 296.543 196.586 297.324C196.586 298.014 196.508 298.652 196.351 299.238H198.187C198.643 299.238 198.923 299.186 199.027 299.082Z" fill="white"/>
</g>
<g filter="url(#filter3_d_124_12850)">
<path d="M321.683 487.859C321.407 487.859 321.183 487.635 321.183 487.359L321.184 487.223C321.252 480.558 320.256 421.198 265.001 389.492C264.762 389.354 264.679 389.049 264.816 388.809C264.953 388.569 265.258 388.486 265.499 388.624C321.248 420.613 322.253 480.508 322.184 487.232L322.183 487.358C322.183 487.635 321.959 487.859 321.683 487.859Z" fill="#4A6173"/>
<path d="M314.474 364.099C314.823 364.487 315.115 364.936 315.354 365.411C316.802 331.294 321.649 313.19 321.74 312.861C321.814 312.594 321.658 312.319 321.392 312.246C321.121 312.169 320.851 312.328 320.777 312.594C320.686 312.92 315.934 330.642 314.413 364.055C314.433 364.071 314.455 364.077 314.474 364.099Z" fill="#4A6173"/>
<path d="M315.894 416.062C315.482 414.892 315.184 413.684 314.699 412.543C315.84 434.224 318.416 459.244 323.266 487.444C323.308 487.687 323.52 487.859 323.758 487.859C323.786 487.859 323.815 487.857 323.844 487.852C324.115 487.805 324.299 487.546 324.252 487.274C319.673 460.652 317.122 436.868 315.894 416.062Z" fill="#4A6173"/>
<path d="M321.139 307.59C321.139 307.59 321.117 301.549 317.764 299.237C314.41 296.925 316.563 302.814 321.139 307.59Z" fill="#4A6173"/>
<path d="M320.351 309.236C320.351 309.236 317.662 303.111 313.489 303.308C309.315 303.504 316.697 308.437 320.351 309.236Z" fill="#4A6173"/>
<path d="M320.531 310.762C320.531 310.762 313.472 313.662 311.391 312.424C309.31 311.185 313.919 308.941 320.531 310.762Z" fill="#4A6173"/>
<path d="M320.947 311.667C321.033 311.631 320.316 315.487 317.411 317.049C314.507 318.611 316.627 313.466 320.947 311.667Z" fill="#4A6173"/>
<path d="M315.839 302.435C315.839 302.435 313.233 302.6 311.115 300.683C308.998 298.767 311.994 295.813 315.839 302.435Z" fill="#4A6173"/>
<path d="M315.998 308.854C315.998 308.854 311.75 310.708 309.128 309.389C306.506 308.071 309.127 304.951 315.998 308.854Z" fill="#4A6173"/>
<path d="M317.082 296.753C317.082 296.753 317.067 292.725 314.348 292.094C311.628 291.462 313.467 295.57 317.082 296.753Z" fill="#4A6173"/>
<path d="M314.725 298.11C314.725 298.11 313.913 293.944 311.408 293.581C308.904 293.217 309.649 297.139 314.725 298.11Z" fill="#4A6173"/>
<path d="M311.612 305.962C311.612 305.962 306.291 306.955 305.217 303.116C304.143 299.276 311.081 303.081 311.612 305.962Z" fill="#4A6173"/>
<path d="M310.369 301.829C310.369 301.829 305.058 300.541 305.374 297.886C305.69 295.231 309.534 298.062 310.369 301.829Z" fill="#4A6173"/>
<path d="M309.48 296.07C309.48 296.07 308.799 291.844 306.896 292.477C304.993 293.11 306.899 295.914 309.48 296.07Z" fill="#4A6173"/>
<path d="M312.162 293.223C312.162 293.223 308.57 292.74 308.813 290.496C309.056 288.254 312.512 289.441 312.162 293.223Z" fill="#4A6173"/>
<path d="M315.612 291.337C315.596 291.447 312.572 291.797 312.475 289.263C312.378 286.729 316.13 287.702 315.612 291.337Z" fill="#4A6173"/>
<path d="M317.03 312.823C317.03 312.823 312.092 312.751 310.827 314.891C309.563 317.029 314.138 317.909 317.03 312.823Z" fill="#4A6173"/>
<path d="M309.614 311.046C309.614 311.046 307.736 308.653 305.761 309.743C303.786 310.833 305.22 314.232 309.614 311.046Z" fill="#4A6173"/>
<path d="M317.996 318.044C317.989 317.644 314.63 319.579 315.127 322.162C315.625 324.745 318.069 322.369 317.996 318.044Z" fill="#4A6173"/>
<path d="M314.806 316.367C314.806 316.367 309.829 317.51 309.809 320.163C309.789 322.817 314.573 321.403 314.806 316.367Z" fill="#4A6173"/>
<path d="M309.859 313.127C309.859 313.127 307.557 312.334 306.29 314.406C305.023 316.477 308.478 318.406 309.859 313.127Z" fill="#4A6173"/>
<path d="M306.985 307.091C306.985 307.091 304.987 303.662 302.991 304.908C300.995 306.153 303.354 309.142 306.985 307.091Z" fill="#4A6173"/>
<path d="M259.795 386.758C259.795 386.758 250.013 384.032 250.969 379.868C251.925 375.705 258.802 384.369 259.795 386.758Z" fill="#4A6173"/>
<path d="M261.734 388.684C261.734 388.684 255.951 386.936 252.758 389.465C249.566 391.995 255.827 391.661 261.734 388.684Z" fill="#4A6173"/>
<path d="M263.077 389.921C263.077 389.921 256.434 390.697 255.399 394.745C254.365 398.793 261.243 393.18 263.077 389.921Z" fill="#4A6173"/>
<path d="M263.453 389.278C263.453 389.278 259.599 386.869 260.294 383.581C260.989 380.292 263.072 386.116 263.453 389.278Z" fill="#4A6173"/>
<path d="M264.339 388.041C264.339 388.041 266.995 384.016 265.642 381.45C264.29 378.884 263.563 384.446 264.339 388.041Z" fill="#4A6173"/>
<path d="M262.946 383.604C262.946 383.604 264.059 379.041 262.05 376.914C260.042 374.787 258.977 375.938 260 378.87C261.023 381.801 262.946 383.604 262.946 383.604Z" fill="#4A6173"/>
<path d="M264.589 390.194C264.589 390.194 265.295 397.793 263.501 399.42C261.708 401.047 260.912 395.983 264.589 390.194Z" fill="#4A6173"/>
<path d="M265.576 390.062C265.567 389.969 269.043 391.784 269.687 395.019C270.33 398.253 266.032 394.72 265.576 390.062Z" fill="#4A6173"/>
<path d="M265.609 387.871C265.609 387.871 270.081 388.542 270.995 386.187C271.91 383.833 266.316 386.558 265.609 387.871Z" fill="#4A6173"/>
<path d="M267.13 388.785C267.13 388.785 269.764 391.592 272.044 391.192C274.323 390.793 271.183 387.649 267.13 388.785Z" fill="#4A6173"/>
<path d="M266.065 386.097C266.048 385.973 266.259 382.603 268.245 380.95C270.231 379.297 271.638 382.041 269.927 383.152C268.216 384.264 266.065 386.097 266.065 386.097Z" fill="#4A6173"/>
<path d="M258.91 382.351C258.91 382.351 253.408 379.878 253.658 375.619C253.908 371.361 258.391 377.055 258.91 382.351Z" fill="#4A6173"/>
<path d="M265.206 379.686C265.206 379.686 267.057 375.848 265.37 372.667C263.683 369.485 261.678 374.294 265.206 379.686Z" fill="#4A6173"/>
<path d="M267.911 380.401C267.911 380.401 272.273 376.659 271.338 373.442C270.403 370.225 267.224 374.382 267.911 380.401Z" fill="#4A6173"/>
<path d="M255.766 386.797C255.766 386.797 249.961 389.924 247.73 387.385C245.498 384.847 251.308 384.729 255.766 386.797Z" fill="#4A6173"/>
<path d="M255.253 392.243C255.253 392.243 254.647 394.783 252.195 396.247C249.743 397.71 247.795 393.98 255.253 392.243Z" fill="#4A6173"/>
<path d="M261.437 393.97C261.437 393.97 261.966 398.574 259.937 400.695C257.909 402.817 255.693 399.397 261.437 393.97Z" fill="#4A6173"/>
<path d="M252.113 384.957C252.113 384.957 245.413 385.783 244.877 382.408C244.341 379.033 250.273 382.836 252.113 384.957Z" fill="#4A6173"/>
<path d="M250.184 389.39C250.184 389.39 246.329 388.225 244.928 390.64C243.528 393.056 247.994 392.5 250.184 389.39Z" fill="#4A6173"/>
<path d="M250.791 392.041C250.791 392.041 246.57 391.597 245.489 393.886C244.408 396.175 248.376 396.61 250.791 392.041Z" fill="#4A6173"/>
<path d="M249.056 380.965C249.056 380.965 242.441 378.198 243.956 375.533C245.471 372.869 249.244 377.346 249.056 380.965Z" fill="#4A6173"/>
<path d="M245.953 385.416C246.051 385.256 243.04 383.914 241.245 386.046C239.449 388.179 243.78 388.942 245.953 385.416Z" fill="#4A6173"/>
<path d="M250.097 377.183C250.04 377.391 246.842 373.694 248.349 371.286C249.855 368.877 251.138 373.402 250.097 377.183Z" fill="#4A6173"/>
<path d="M257.973 375.294C257.973 375.294 254.053 372.225 255.864 369.144C257.676 366.065 259.258 371.654 257.973 375.294Z" fill="#4A6173"/>
<path d="M261.28 374.62C261.28 374.62 263.835 370.663 262.387 367.914C260.939 365.165 258.279 369.473 261.28 374.62Z" fill="#4A6173"/>
<path d="M257.387 397.317C257.387 397.317 256.779 402.695 252.793 402.598C248.808 402.501 254.477 396.981 257.387 397.317Z" fill="#4A6173"/>
<path d="M253.071 397.296C253.071 397.296 250.285 401.997 247.839 400.917C245.393 399.837 249.226 396.991 253.071 397.296Z" fill="#4A6173"/>
<path d="M247.305 396.46C247.305 396.46 243.065 395.873 243.112 397.879C243.159 399.885 246.4 398.882 247.305 396.46Z" fill="#4A6173"/>
<path d="M245.368 393.062C245.368 393.062 243.854 396.355 241.78 395.466C239.707 394.576 241.854 391.62 245.368 393.062Z" fill="#4A6173"/>
<path d="M244.575 389.209C244.675 389.256 244.125 392.251 241.673 391.601C239.222 390.952 241.251 387.651 244.575 389.209Z" fill="#4A6173"/>
<path d="M252.341 374.73C252.341 374.73 249.472 370.568 251.042 368.171C252.613 365.775 256.162 370.649 252.341 374.73Z" fill="#4A6173"/>
<path d="M265.534 394.145C265.534 394.145 264.019 398.846 265.694 400.681C267.369 402.516 269.551 398.4 265.534 394.145Z" fill="#4A6173"/>
<path d="M270.926 384.427C270.878 384.533 276.184 385.458 276.366 382.107C276.548 378.756 272.336 381.302 270.926 384.427Z" fill="#4A6173"/>
<path d="M271.926 380.341C271.926 380.341 275.736 379.284 275.129 376.633C274.521 373.982 271.055 374.783 271.926 380.341Z" fill="#4A6173"/>
<path d="M271.704 388.106C271.635 388.168 275.114 390.97 277.06 389.491C279.006 388.011 276.545 383.759 271.704 388.106Z" fill="#4A6173"/>
<path d="M267.786 373.329C267.786 373.329 270.143 370.165 268.176 367.717C266.208 365.269 264.394 369.474 267.786 373.329Z" fill="#4A6173"/>
<path d="M261.665 400.717C261.665 400.717 258.827 401.812 259.291 404.02C259.754 406.227 263.424 405.851 261.665 400.717Z" fill="#4A6173"/>
<path d="M243.621 383.716C243.586 384.011 238.002 382.95 239.157 379.832C240.31 376.713 244.141 379.3 243.621 383.716Z" fill="#4A6173"/>
<path d="M270.81 394.75C270.425 394.639 271.292 398.418 273.908 398.699C276.523 398.98 274.967 395.947 270.81 394.75Z" fill="#4A6173"/>
<path d="M268.272 397.31C268.272 397.31 267.907 402.404 270.439 403.2C272.97 403.995 273.019 399.007 268.272 397.31Z" fill="#4A6173"/>
<path d="M263.725 401.091C263.725 401.091 262.293 403.06 263.903 404.878C265.512 406.696 268.369 403.957 263.725 401.091Z" fill="#4A6173"/>
<path d="M257.113 402.072C257.113 402.072 253.25 402.978 253.856 405.251C254.463 407.524 258.012 406.145 257.113 402.072Z" fill="#4A6173"/>
<path d="M242.621 377.875C242.621 377.875 239.618 377.344 240.092 375.393C240.566 373.442 242.966 374.256 242.621 377.875Z" fill="#4A6173"/>
<path d="M326.612 481.996L325.49 478.378C325.374 478.001 313.966 440.428 327.165 415.78C334.834 401.46 348.181 396.061 359.955 391.298C368.719 387.753 376.997 384.404 381.79 377.909L383.848 375.122L382.772 378.415C376.54 397.489 365.68 405.023 356.099 411.671C351.966 414.538 348.062 417.246 344.796 420.664C334.206 431.746 326.446 460.185 326.583 478.208L326.612 481.996ZM380.715 380.903C375.644 386.158 368.199 389.169 360.374 392.335C348.774 397.026 335.628 402.345 328.15 416.308C317.605 435.997 323.068 464.201 325.548 474.286C326.431 456.073 333.962 430.381 343.986 419.891C347.331 416.392 351.279 413.653 355.46 410.752C364.405 404.546 374.481 397.555 380.715 380.903Z" fill="#4A6173"/>
<path d="M318.051 452.659L318.42 447.299C319.074 437.787 315.753 408.396 305.109 383.557C294.477 358.748 292.412 344.354 295.902 319.383L296.46 315.395L297.01 319.384C298.327 328.936 305.149 343.14 311.744 356.876C317.539 368.945 323.531 381.425 325.639 390.528C330.09 409.763 319.623 447.114 319.517 447.489L318.051 452.659ZM296.554 322.983C293.765 345.643 296.098 359.694 306.135 383.115C315.492 404.95 319.228 430.314 319.586 442.795C322.185 432.363 328.034 405.847 324.547 390.78C322.468 381.798 316.503 369.374 310.734 357.36C304.847 345.099 298.782 332.468 296.554 322.983Z" fill="#4A6173"/>
<path d="M318.978 447.896C318.957 447.896 318.936 447.894 318.915 447.892C318.608 447.858 318.388 447.581 318.422 447.274C319.978 433.374 323.619 400.821 311.337 378.593C299.621 357.392 297.09 333.445 297.066 333.205C297.036 332.897 297.259 332.623 297.566 332.592C297.871 332.562 298.148 332.784 298.179 333.092C298.202 333.329 300.714 357.058 312.316 378.052C324.771 400.591 321.101 433.392 319.534 447.399C319.501 447.684 319.258 447.896 318.978 447.896Z" fill="#4A6173"/>
<path d="M321.272 485.711L320.201 484.824C320.092 484.734 309.161 475.517 298.728 451.959C288.331 428.48 270.513 415.867 263.981 413.719L260.89 412.702L264.143 412.629C276.407 412.33 289.039 418.306 298.886 428.957C310.723 441.761 318.408 460.908 321.113 484.329L321.272 485.711ZM266.981 413.795C274.989 417.866 290.384 430.355 299.749 451.506C308.153 470.485 316.823 480.01 319.819 482.946C316.992 460.45 309.484 442.069 298.064 429.716C289.192 420.119 278.003 414.422 266.981 413.795Z" fill="#4A6173"/>
<path d="M320.557 484.954C320.327 484.954 320.111 484.811 320.03 484.58C319.944 484.335 311.284 459.87 302.076 442.112C292.942 424.496 271.86 415.521 271.648 415.432C271.363 415.313 271.229 414.986 271.348 414.7C271.467 414.415 271.794 414.281 272.079 414.4C272.294 414.49 293.749 423.624 303.067 441.595C312.312 459.424 320.997 483.961 321.084 484.207C321.187 484.498 321.034 484.817 320.742 484.92C320.681 484.943 320.619 484.954 320.557 484.954Z" fill="#4A6173"/>
<path d="M320.149 482.749L319.527 482.181C313.513 476.685 296.697 440.324 295.984 438.778C295.925 438.653 295.98 438.505 296.106 438.447C296.227 438.388 296.38 438.442 296.437 438.569C296.606 438.933 312.758 473.863 319.215 481.144C314.262 462.306 307.92 447.161 304.945 442.34C304.873 442.223 304.909 442.068 305.027 441.996C305.142 441.924 305.298 441.96 305.371 442.078C308.41 447.002 314.939 462.622 319.938 481.933L320.149 482.749Z" fill="#4A6173"/>
<path d="M319.725 441.193L319.23 441.122C320.428 429.006 316.814 398.894 309.557 383.712C302.377 368.691 300.184 358.412 300.162 358.31C300.135 358.175 300.221 358.042 300.356 358.014C300.489 357.991 300.623 358.074 300.652 358.208C300.673 358.31 302.856 368.535 310.007 383.497C316.608 397.306 320.209 423.404 319.94 437.254C323.085 419.522 324.873 399.626 317.853 382.446C317.801 382.318 317.862 382.172 317.99 382.12C318.118 382.066 318.263 382.129 318.316 382.257C325.898 400.81 323.283 422.46 319.725 441.193Z" fill="#4A6173"/>
</g>
<g filter="url(#filter4_d_124_12850)">
<path d="M8.14605 -26.9999C8.42205 -26.9999 8.64605 -26.7759 8.64605 -26.4999L8.64504 -26.364C8.57704 -19.699 9.57304 39.6611 64.828 71.3671C65.067 71.5051 65.15 71.81 65.013 72.05C64.876 72.29 64.571 72.373 64.33 72.235C8.58104 40.246 7.57604 -19.649 7.64504 -26.373L7.64605 -26.4989C7.64605 -26.7759 7.87005 -26.9999 8.14605 -26.9999Z" fill="#4A6173"/>
<path d="M15.355 96.7599C15.006 96.3719 14.714 95.9229 14.475 95.4479C13.027 129.565 8.18002 147.669 8.08902 147.998C8.01502 148.265 8.17101 148.54 8.43701 148.613C8.70801 148.69 8.978 148.531 9.052 148.265C9.143 147.939 13.895 130.217 15.416 96.8039C15.396 96.7879 15.374 96.7819 15.355 96.7599Z" fill="#4A6173"/>
<path d="M13.9349 44.7969C14.3469 45.9669 14.6449 47.1749 15.1299 48.3159C13.9889 26.6349 11.4129 1.61495 6.5629 -26.5851C6.5209 -26.828 6.30889 -27.0001 6.07089 -27.0001C6.04289 -27.0001 6.01389 -26.9981 5.98489 -26.9931C5.71389 -26.9461 5.5299 -26.6871 5.5769 -26.4151C10.1559 0.206932 12.7069 23.9909 13.9349 44.7969Z" fill="#4A6173"/>
<path d="M8.6896 153.269C8.6896 153.269 8.7116 159.31 12.0646 161.622C15.4186 163.934 13.2656 158.045 8.6896 153.269Z" fill="#4A6173"/>
<path d="M9.47859 151.623C9.47859 151.623 12.1666 157.748 16.3396 157.551C20.5136 157.355 13.1326 152.422 9.47859 151.623Z" fill="#4A6173"/>
<path d="M9.29763 150.097C9.29763 150.097 16.3566 147.197 18.4376 148.435C20.5186 149.674 15.9096 151.918 9.29763 150.097Z" fill="#4A6173"/>
<path d="M8.8818 149.192C8.7958 149.228 9.51278 145.372 12.4178 143.81C15.3218 142.248 13.2018 147.393 8.8818 149.192Z" fill="#4A6173"/>
<path d="M13.9898 158.424C13.9898 158.424 16.5958 158.259 18.7138 160.176C20.8308 162.092 17.8348 165.046 13.9898 158.424Z" fill="#4A6173"/>
<path d="M13.8307 152.005C13.8307 152.005 18.0787 150.151 20.7007 151.47C23.3227 152.788 20.7017 155.908 13.8307 152.005Z" fill="#4A6173"/>
<path d="M12.7467 164.106C12.7467 164.106 12.7618 168.134 15.4808 168.765C18.2008 169.397 16.3617 165.289 12.7467 164.106Z" fill="#4A6173"/>
<path d="M15.1038 162.749C15.1038 162.749 15.9158 166.915 18.4208 167.278C20.9248 167.642 20.1798 163.72 15.1038 162.749Z" fill="#4A6173"/>
<path d="M18.2169 154.897C18.2169 154.897 23.5378 153.904 24.6118 157.743C25.6858 161.583 18.7479 157.778 18.2169 154.897Z" fill="#4A6173"/>
<path d="M19.4597 159.03C19.4597 159.03 24.7707 160.318 24.4547 162.973C24.1387 165.628 20.2947 162.797 19.4597 159.03Z" fill="#4A6173"/>
<path d="M20.3496 164.789C20.3496 164.789 21.0306 169.015 22.9336 168.382C24.8366 167.749 22.9306 164.945 20.3496 164.789Z" fill="#4A6173"/>
<path d="M17.6675 167.636C17.6675 167.636 21.2595 168.119 21.0165 170.363C20.7735 172.605 17.3175 171.418 17.6675 167.636Z" fill="#4A6173"/>
<path d="M14.2166 169.522C14.2326 169.412 17.2566 169.062 17.3536 171.596C17.4506 174.13 13.6986 173.157 14.2166 169.522Z" fill="#4A6173"/>
<path d="M12.7988 148.036C12.7988 148.036 17.7369 148.108 19.0019 145.968C20.2659 143.83 15.6908 142.95 12.7988 148.036Z" fill="#4A6173"/>
<path d="M20.2156 149.813C20.2156 149.813 22.0936 152.206 24.0686 151.116C26.0436 150.026 24.6096 146.627 20.2156 149.813Z" fill="#4A6173"/>
<path d="M11.8328 142.815C11.8398 143.215 15.1988 141.28 14.7018 138.697C14.2038 136.114 11.7598 138.49 11.8328 142.815Z" fill="#4A6173"/>
<path d="M15.0229 144.492C15.0229 144.492 20 143.349 20.02 140.696C20.04 138.042 15.2559 139.456 15.0229 144.492Z" fill="#4A6173"/>
<path d="M19.9696 147.732C19.9696 147.732 22.2716 148.525 23.5386 146.453C24.8056 144.382 21.3506 142.453 19.9696 147.732Z" fill="#4A6173"/>
<path d="M22.8438 153.768C22.8438 153.768 24.8418 157.197 26.8378 155.951C28.8338 154.706 26.4748 151.717 22.8438 153.768Z" fill="#4A6173"/>
<path d="M70.034 74.1011C70.034 74.1011 79.816 76.8272 78.86 80.9912C77.904 85.1542 71.027 76.4901 70.034 74.1011Z" fill="#4A6173"/>
<path d="M68.0949 72.1751C68.0949 72.1751 73.8779 73.9231 77.0709 71.3941C80.2629 68.8641 74.0019 69.1981 68.0949 72.1751Z" fill="#4A6173"/>
<path d="M66.7519 70.938C66.7519 70.938 73.3949 70.162 74.4299 66.114C75.4639 62.066 68.5859 67.679 66.7519 70.938Z" fill="#4A6173"/>
<path d="M66.3758 71.5809C66.3758 71.5809 70.2298 73.9899 69.5348 77.2779C68.8398 80.5669 66.7568 74.7429 66.3758 71.5809Z" fill="#4A6173"/>
<path d="M65.49 72.8179C65.49 72.8179 62.834 76.8429 64.187 79.4089C65.539 81.9749 66.266 76.4129 65.49 72.8179Z" fill="#4A6173"/>
<path d="M66.8829 77.2552C66.8829 77.2552 65.7699 81.8182 67.7789 83.9452C69.7869 86.0722 70.8519 84.9211 69.8289 81.9891C68.8059 79.0581 66.8829 77.2552 66.8829 77.2552Z" fill="#4A6173"/>
<path d="M65.2397 70.665C65.2397 70.665 64.5337 63.066 66.3277 61.439C68.1207 59.812 68.9167 64.876 65.2397 70.665Z" fill="#4A6173"/>
<path d="M64.2529 70.7969C64.2619 70.8899 60.7859 69.0749 60.1419 65.8399C59.4989 62.6059 63.7969 66.1389 64.2529 70.7969Z" fill="#4A6173"/>
<path d="M64.2197 72.9878C64.2197 72.9878 59.7477 72.3168 58.8337 74.6718C57.9187 77.0258 63.5127 74.3008 64.2197 72.9878Z" fill="#4A6173"/>
<path d="M62.6987 72.0743C62.6987 72.0743 60.0647 69.2673 57.7847 69.6673C55.5057 70.0663 58.6457 73.2103 62.6987 72.0743Z" fill="#4A6173"/>
<path d="M63.7638 74.762C63.7808 74.886 63.5698 78.256 61.5838 79.909C59.5978 81.562 58.1908 78.818 59.9018 77.707C61.6128 76.595 63.7638 74.762 63.7638 74.762Z" fill="#4A6173"/>
<path d="M70.9189 78.5083C70.9189 78.5083 76.4209 80.9812 76.1709 85.2402C75.9209 89.4982 71.4379 83.8043 70.9189 78.5083Z" fill="#4A6173"/>
<path d="M64.6226 81.1732C64.6226 81.1732 62.7716 85.0112 64.4586 88.1922C66.1456 91.3742 68.1506 86.5652 64.6226 81.1732Z" fill="#4A6173"/>
<path d="M61.9178 80.458C61.9178 80.458 57.5558 84.1999 58.4908 87.4169C59.4258 90.6339 62.6048 86.477 61.9178 80.458Z" fill="#4A6173"/>
<path d="M74.0629 74.062C74.0629 74.062 79.8679 70.935 82.0989 73.474C84.3309 76.012 78.5209 76.13 74.0629 74.062Z" fill="#4A6173"/>
<path d="M74.5759 68.6162C74.5759 68.6162 75.1819 66.0762 77.6339 64.6122C80.0859 63.1492 82.0339 66.8792 74.5759 68.6162Z" fill="#4A6173"/>
<path d="M68.3919 66.8892C68.3919 66.8892 67.8629 62.2852 69.8919 60.1642C71.9199 58.0422 74.1359 61.4622 68.3919 66.8892Z" fill="#4A6173"/>
<path d="M77.7157 75.9019C77.7157 75.9019 84.4157 75.0758 84.9517 78.4508C85.4877 81.8258 79.5557 78.0229 77.7157 75.9019Z" fill="#4A6173"/>
<path d="M79.645 71.4691C79.645 71.4691 83.5 72.6341 84.901 70.2191C86.301 67.8031 81.835 68.3591 79.645 71.4691Z" fill="#4A6173"/>
<path d="M79.0378 68.8179C79.0378 68.8179 83.2588 69.2619 84.3398 66.9729C85.4208 64.6839 81.4528 64.2489 79.0378 68.8179Z" fill="#4A6173"/>
<path d="M80.7726 79.8941C80.7726 79.8941 87.3876 82.6611 85.8726 85.3261C84.3576 87.9901 80.5846 83.5131 80.7726 79.8941Z" fill="#4A6173"/>
<path d="M83.8759 75.4429C83.7779 75.6029 86.789 76.9449 88.584 74.8129C90.38 72.6799 86.0489 71.9169 83.8759 75.4429Z" fill="#4A6173"/>
<path d="M79.732 83.6758C79.789 83.4678 82.987 87.1648 81.48 89.5728C79.974 91.9818 78.691 87.4568 79.732 83.6758Z" fill="#4A6173"/>
<path d="M71.856 85.5651C71.856 85.5651 75.776 88.6341 73.965 91.7151C72.153 94.7941 70.571 89.2051 71.856 85.5651Z" fill="#4A6173"/>
<path d="M68.5489 86.239C68.5489 86.239 65.9939 90.196 67.4419 92.945C68.8899 95.694 71.5499 91.386 68.5489 86.239Z" fill="#4A6173"/>
<path d="M72.4416 63.5419C72.4416 63.5419 73.0496 58.1639 77.0356 58.2609C81.0206 58.3579 75.3516 63.8779 72.4416 63.5419Z" fill="#4A6173"/>
<path d="M76.7579 63.5632C76.7579 63.5632 79.5439 58.8622 81.9899 59.9422C84.4359 61.0222 80.6029 63.8682 76.7579 63.5632Z" fill="#4A6173"/>
<path d="M82.5239 64.399C82.5239 64.399 86.7639 64.986 86.7169 62.98C86.6699 60.974 83.4289 61.977 82.5239 64.399Z" fill="#4A6173"/>
<path d="M84.461 67.797C84.461 67.797 85.975 64.504 88.049 65.393C90.122 66.283 87.975 69.239 84.461 67.797Z" fill="#4A6173"/>
<path d="M85.254 71.6501C85.154 71.6031 85.7039 68.6081 88.1559 69.2581C90.6069 69.9071 88.578 73.2081 85.254 71.6501Z" fill="#4A6173"/>
<path d="M77.4876 86.1288C77.4876 86.1288 80.3566 90.2908 78.7866 92.6878C77.2156 95.0838 73.6666 90.2098 77.4876 86.1288Z" fill="#4A6173"/>
<path d="M64.295 66.7139C64.295 66.7139 65.81 62.0129 64.135 60.1779C62.46 58.3429 60.278 62.4589 64.295 66.7139Z" fill="#4A6173"/>
<path d="M58.903 76.4322C58.951 76.3262 53.645 75.4011 53.463 78.7522C53.281 82.1032 57.493 79.5572 58.903 76.4322Z" fill="#4A6173"/>
<path d="M57.9029 80.518C57.9029 80.518 54.0929 81.575 54.6999 84.226C55.3079 86.877 58.7739 86.076 57.9029 80.518Z" fill="#4A6173"/>
<path d="M58.125 72.7531C58.194 72.6911 54.715 69.8891 52.769 71.3681C50.823 72.8481 53.284 77.1001 58.125 72.7531Z" fill="#4A6173"/>
<path d="M62.0428 87.53C62.0428 87.53 59.6858 90.694 61.6528 93.142C63.6208 95.59 65.4348 91.385 62.0428 87.53Z" fill="#4A6173"/>
<path d="M68.1646 60.1421C68.1646 60.1421 71.0026 59.0471 70.5386 56.8391C70.0756 54.6321 66.4056 55.0081 68.1646 60.1421Z" fill="#4A6173"/>
<path d="M86.2078 77.143C86.2428 76.848 91.8268 77.909 90.6718 81.027C89.5188 84.146 85.6878 81.559 86.2078 77.143Z" fill="#4A6173"/>
<path d="M59.0189 66.1089C59.4039 66.2199 58.5369 62.4409 55.9209 62.1599C53.3059 61.8789 54.8619 64.9119 59.0189 66.1089Z" fill="#4A6173"/>
<path d="M61.5569 63.5488C61.5569 63.5488 61.9219 58.4548 59.3899 57.6588C56.8589 56.8638 56.8099 61.8518 61.5569 63.5488Z" fill="#4A6173"/>
<path d="M66.1036 59.7681C66.1036 59.7681 67.5356 57.799 65.9256 55.981C64.3166 54.163 61.4596 56.9021 66.1036 59.7681Z" fill="#4A6173"/>
<path d="M72.7166 58.7871C72.7166 58.7871 76.5796 57.8811 75.9736 55.6081C75.3666 53.3351 71.8176 54.7141 72.7166 58.7871Z" fill="#4A6173"/>
<path d="M87.2079 82.9839C87.2079 82.9839 90.2109 83.5149 89.7369 85.4659C89.2629 87.4169 86.8629 86.6029 87.2079 82.9839Z" fill="#4A6173"/>
<path d="M3.21705 -21.1372L4.33905 -17.5192C4.45505 -17.1422 15.863 20.4308 2.66404 45.0788C-5.00496 59.3988 -18.3519 64.7978 -30.1259 69.5608C-38.8899 73.1058 -47.168 76.4548 -51.961 82.9498L-54.0189 85.7368L-52.943 82.4438C-46.711 63.3698 -35.851 55.8358 -26.27 49.1878C-22.137 46.3208 -18.2329 43.6128 -14.9669 40.1948C-4.37695 29.1128 3.38304 0.67382 3.24604 -17.3492L3.21705 -21.1372ZM-50.886 79.9558C-45.815 74.7008 -38.3699 71.6898 -30.5449 68.5238C-18.9449 63.8328 -5.79895 58.5138 1.67905 44.5508C12.2241 24.8618 6.76104 -3.34219 4.28104 -13.4272C3.39804 4.78581 -4.13295 30.4778 -14.1569 40.9678C-17.5019 44.4668 -21.4499 47.2058 -25.6309 50.1068C-34.5759 56.3128 -44.652 63.3038 -50.886 79.9558Z" fill="#4A6173"/>
<path d="M11.778 8.19986L11.409 13.5599C10.755 23.0719 14.0759 52.4629 24.7199 77.3019C35.3519 102.111 37.4169 116.505 33.9269 141.476L33.369 145.464L32.8189 141.475C31.5019 131.923 24.68 117.719 18.085 103.983C12.29 91.9139 6.29794 79.4339 4.18994 70.3309C-0.261055 51.0959 10.206 13.7449 10.312 13.3699L11.778 8.19986ZM33.275 137.876C36.064 115.216 33.7309 101.165 23.6939 77.7439C14.3369 55.9089 10.601 30.5449 10.243 18.0639C7.64395 28.4959 1.79495 55.0119 5.28195 70.0789C7.36095 79.0609 13.3259 91.4849 19.0949 103.499C24.9819 115.76 31.047 128.391 33.275 137.876Z" fill="#4A6173"/>
<path d="M10.8509 12.9628C10.8719 12.9628 10.8929 12.9648 10.9139 12.9668C11.2209 13.0008 11.4409 13.2778 11.4069 13.5848C9.85093 27.4848 6.20992 60.0378 18.4919 82.2658C30.2079 103.467 32.7389 127.414 32.7629 127.654C32.7929 127.962 32.5699 128.236 32.2629 128.267C31.9579 128.297 31.6809 128.075 31.6499 127.767C31.6269 127.53 29.1149 103.801 17.5129 82.8068C5.05792 60.2678 8.72793 27.4668 10.2949 13.4598C10.3279 13.1748 10.5709 12.9628 10.8509 12.9628Z" fill="#4A6173"/>
<path d="M8.55696 -24.852L9.62798 -23.965C9.73698 -23.875 20.668 -14.658 31.101 8.90003C41.498 32.379 59.316 44.992 65.848 47.14L68.939 48.157L65.686 48.23C53.422 48.529 40.79 42.553 30.943 31.902C19.106 19.098 11.421 -0.0489655 8.71596 -23.47L8.55696 -24.852ZM62.848 47.064C54.84 42.993 39.445 30.504 30.08 9.35303C21.676 -9.62597 13.006 -19.151 10.01 -22.087C12.837 0.409035 20.345 18.79 31.765 31.143C40.637 40.74 51.826 46.437 62.848 47.064Z" fill="#4A6173"/>
<path d="M9.27199 -24.095C9.50199 -24.095 9.71799 -23.952 9.799 -23.721C9.88499 -23.476 18.545 0.989021 27.753 18.747C36.887 36.363 57.969 45.338 58.181 45.427C58.466 45.546 58.6 45.873 58.481 46.159C58.362 46.444 58.035 46.578 57.75 46.459C57.535 46.369 36.08 37.2351 26.762 19.2641C17.517 1.43505 8.83201 -23.1019 8.74501 -23.3479C8.64201 -23.6389 8.79499 -23.958 9.08699 -24.061C9.14799 -24.084 9.20999 -24.095 9.27199 -24.095Z" fill="#4A6173"/>
<path d="M9.67996 -21.8898L10.3019 -21.3218C16.3159 -15.8258 33.1319 20.5352 33.8449 22.0812C33.9039 22.2062 33.849 22.3542 33.723 22.4122C33.602 22.4712 33.4489 22.4172 33.3919 22.2902C33.2229 21.9262 17.071 -13.0038 10.614 -20.2848C15.567 -1.44683 21.9089 13.6982 24.8839 18.5192C24.9559 18.6362 24.9199 18.7912 24.8019 18.8632C24.6869 18.9352 24.5309 18.8992 24.4579 18.7812C21.4189 13.8572 14.89 -1.76283 9.89096 -21.0738L9.67996 -21.8898Z" fill="#4A6173"/>
<path d="M10.1039 19.6658L10.5989 19.7368C9.4009 31.8528 13.0149 61.9648 20.2719 77.1468C27.4519 92.1678 29.6449 102.447 29.6669 102.549C29.6939 102.684 29.6079 102.817 29.4729 102.845C29.3399 102.868 29.2059 102.785 29.1769 102.651C29.1559 102.549 26.9729 92.3238 19.8219 77.3618C13.2209 63.5528 9.61991 37.4548 9.88891 23.6048C6.74391 41.3368 4.95591 61.2328 11.9759 78.4128C12.0279 78.5408 11.9669 78.6868 11.8389 78.7388C11.7109 78.7928 11.5659 78.7298 11.5129 78.6018C3.9309 60.0488 6.5459 38.3988 10.1039 19.6658Z" fill="#4A6173"/>
</g>
<g filter="url(#filter5_d_124_12850)">
<path d="M19.4779 473.6C19.3169 473.6 19.1599 473.523 19.0629 473.379C18.9089 473.15 18.9689 472.839 19.1979 472.685C37.0829 460.627 43.3229 430.424 43.3829 430.121C43.4369 429.85 43.6989 429.672 43.9709 429.729C44.2419 429.783 44.4169 430.047 44.3629 430.317C44.3009 430.625 37.9779 461.229 19.7559 473.514C19.6709 473.572 19.5739 473.6 19.4779 473.6Z" fill="#4A6173"/>
<path d="M-0.971112 400.271C-0.979112 400.271 -0.988106 400.271 -0.996106 400.27C-1.27211 400.256 -1.48411 400.022 -1.47111 399.746C0.249888 364.486 41.0979 332.921 41.5109 332.606C41.7309 332.437 42.0439 332.481 42.2119 332.7C42.3789 332.919 42.3379 333.233 42.1179 333.401C41.7089 333.713 1.22589 365.001 -0.471112 399.795C-0.486112 400.063 -0.707112 400.271 -0.971112 400.271Z" fill="#4A6173"/>
<path d="M15.6667 360.345C15.5797 360.345 15.4907 360.322 15.4107 360.274C15.1737 360.132 15.0967 359.825 15.2387 359.588C26.3157 341.088 19.1577 311.085 19.0837 310.783C19.0187 310.515 19.1827 310.244 19.4507 310.179C19.7157 310.113 19.9887 310.278 20.0547 310.546C20.1287 310.851 27.3857 341.247 16.0967 360.102C16.0027 360.258 15.8367 360.345 15.6667 360.345Z" fill="#4A6173"/>
<path d="M7.47892 372.951C7.22892 372.951 7.01291 372.763 6.98291 372.509C6.95091 372.235 7.14692 371.987 7.42092 371.954C37.8029 368.39 67.9769 343.683 68.2779 343.433C68.4909 343.257 68.8069 343.288 68.9819 343.499C69.1579 343.712 69.1279 344.027 68.9159 344.203C68.6119 344.454 38.2159 369.347 7.53692 372.946C7.51792 372.95 7.49792 372.951 7.47892 372.951Z" fill="#4A6173"/>
<path d="M30.8848 462.027L30.6828 461.641C30.5778 461.44 20.5008 441.259 45.4938 420.745L46.0728 420.271L46.2898 420.986C52.3038 440.846 41.6098 458.19 31.2958 461.88L30.8848 462.027ZM45.5458 422.003C23.8048 440.248 30.1528 457.913 31.3868 460.777C40.8438 457.009 50.7448 440.445 45.5458 422.003Z" fill="#4A6173"/>
<path d="M31.0927 461.273L31.0417 460.791C30.0127 451.126 35.2047 437.446 35.2577 437.309C35.3077 437.18 35.4517 437.117 35.5807 437.165C35.7097 437.214 35.7737 437.359 35.7247 437.488C35.6737 437.622 30.6977 450.735 31.4927 460.247C34.8367 457.201 41.0207 450.426 42.7507 444.413C42.7897 444.28 42.9237 444.202 43.0607 444.242C43.1927 444.28 43.2697 444.419 43.2317 444.552C41.4047 450.904 34.7307 458.057 31.4567 460.953L31.0927 461.273Z" fill="#4A6173"/>
<path d="M21.0002 346.454L20.6672 346.172C20.4942 346.025 3.5162 331.175 18.8622 302.715L19.2172 302.056L19.6902 302.637C32.7872 318.733 29.4692 338.835 21.3252 346.161L21.0002 346.454ZM19.3862 303.86C6.1892 328.987 18.7622 342.926 20.9902 345.107C28.3122 338.036 31.1922 318.953 19.3862 303.86Z" fill="#4A6173"/>
<path d="M20.9064 345.678L20.6764 345.252C16.0594 336.699 15.6754 322.072 15.6724 321.925C15.6694 321.787 15.7784 321.672 15.9164 321.669C16.0614 321.691 16.1694 321.776 16.1724 321.913C16.1754 322.056 16.5444 336.078 20.8874 344.578C22.8264 340.49 25.9794 331.875 25.3004 325.657C25.2854 325.52 25.3844 325.396 25.5214 325.381C25.6524 325.368 25.7824 325.465 25.7974 325.602C26.5154 332.171 23.0524 341.323 21.1214 345.244L20.9064 345.678Z" fill="#4A6173"/>
<path d="M28.8238 348.6C27.7188 348.6 26.6608 348.501 25.6648 348.304L25.2368 348.22L25.2628 347.784C25.2768 347.557 26.9878 325.067 58.9668 320.293L59.7078 320.183L59.5258 320.909C54.9568 339.175 39.6488 348.6 28.8238 348.6ZM26.3098 347.404C36.3568 349.033 53.3588 339.894 58.3648 321.398C30.3778 325.889 26.7258 344.313 26.3098 347.404Z" fill="#4A6173"/>
<path d="M25.8008 347.68L26.0038 347.24C30.0828 338.417 41.5618 329.343 41.6778 329.253C41.7848 329.168 41.9428 329.186 42.0288 329.296C42.1138 329.404 42.0948 329.562 41.9868 329.647C41.8748 329.735 30.8708 338.434 26.6708 347.005C31.1048 346.107 39.8908 343.468 44.4618 339.196C44.5638 339.102 44.7208 339.107 44.8158 339.208C44.9098 339.309 44.9048 339.467 44.8038 339.562C39.9748 344.074 30.5738 346.787 26.2778 347.591L25.8008 347.68Z" fill="#4A6173"/>
<path d="M42.9951 364.399C40.9751 364.399 39.0921 364.124 37.4311 363.579L37.0161 363.443L37.0951 363.014C37.1361 362.79 41.5521 340.672 73.8731 339.796L74.6221 339.776L74.3541 340.475C68.1091 356.758 53.6351 364.399 42.9951 364.399ZM38.1801 362.764C47.9571 365.588 65.9381 358.576 73.1411 340.821C44.8171 341.898 38.9671 359.745 38.1801 362.764Z" fill="#4A6173"/>
<path d="M37.6421 362.976L37.8971 362.564C43.0111 354.299 55.5021 346.678 55.6281 346.602C55.7471 346.532 55.9001 346.568 55.9711 346.686C56.0421 346.804 56.0051 346.958 55.8861 347.029C55.7631 347.103 43.7901 354.409 38.5861 362.41C43.0951 362.054 52.1361 360.496 57.1901 356.807C57.3011 356.727 57.4581 356.75 57.5401 356.862C57.6211 356.974 57.5971 357.13 57.4851 357.212C52.1471 361.108 42.4871 362.666 38.1261 362.945L37.6421 362.976Z" fill="#4A6173"/>
<path d="M-10.9982 498.361C-11.1232 498.361 -11.2492 498.315 -11.3462 498.221C-11.5442 498.029 -11.5492 497.712 -11.3572 497.514C-11.0992 497.247 14.5458 470.621 18.3198 451.562C20.0458 442.845 20.8388 433.899 21.5378 426.006C22.3918 416.371 23.1288 408.05 25.3098 403.491C25.4288 403.242 25.7258 403.136 25.9768 403.256C26.2258 403.375 26.3308 403.675 26.2118 403.924C24.1078 408.32 23.3788 416.556 22.5328 426.094C21.8308 434.012 21.0358 442.986 19.2988 451.756C15.4678 471.105 -10.3802 497.941 -10.6412 498.21C-10.7382 498.312 -10.8682 498.361 -10.9982 498.361Z" fill="#4A6173"/>
<path d="M28.4617 402.07C28.4617 403.108 27.6197 403.95 26.5817 403.95C25.5437 403.95 24.7017 403.108 24.7017 402.07C24.7017 401.032 25.5437 400.19 26.5817 400.19C27.6197 400.19 28.4617 401.032 28.4617 402.07Z" fill="#4A6173"/>
<path d="M24.1809 404.404C24.1809 405.442 23.3389 406.284 22.3009 406.284C21.2629 406.284 20.4209 405.442 20.4209 404.404C20.4209 403.366 21.2629 402.524 22.3009 402.524C23.3389 402.524 24.1809 403.365 24.1809 404.404Z" fill="#4A6173"/>
<path d="M29.0295 408.164C29.0295 409.202 28.1875 410.044 27.1495 410.044C26.1115 410.044 25.2695 409.202 25.2695 408.164C25.2695 407.126 26.1115 406.284 27.1495 406.284C28.1875 406.284 29.0295 407.125 29.0295 408.164Z" fill="#4A6173"/>
<path d="M23.9875 409.539C23.9875 410.577 23.1455 411.419 22.1075 411.419C21.0695 411.419 20.2275 410.577 20.2275 409.539C20.2275 408.501 21.0695 407.659 22.1075 407.659C23.1455 407.659 23.9875 408.5 23.9875 409.539Z" fill="#4A6173"/>
<path d="M27.6418 413.299C27.6418 414.337 26.7998 415.179 25.7618 415.179C24.7238 415.179 23.8818 414.337 23.8818 413.299C23.8818 412.261 24.7238 411.419 25.7618 411.419C26.7998 411.419 27.6418 412.26 27.6418 413.299Z" fill="#4A6173"/>
<path d="M24.7668 417.059C24.7668 418.097 23.9248 418.939 22.8868 418.939C21.8488 418.939 21.0068 418.097 21.0068 417.059C21.0068 416.021 21.8488 415.179 22.8868 415.179C23.9248 415.179 24.7668 416.02 24.7668 417.059Z" fill="#4A6173"/>
<path d="M19.1266 415.897C20.1649 415.897 21.0066 415.056 21.0066 414.017C21.0066 412.979 20.1649 412.137 19.1266 412.137C18.0883 412.137 17.2466 412.979 17.2466 414.017C17.2466 415.056 18.0883 415.897 19.1266 415.897Z" fill="#4A6173"/>
<path d="M29.0295 418.94C29.0295 419.978 28.1875 420.82 27.1495 420.82C26.1115 420.82 25.2695 419.978 25.2695 418.94C25.2695 417.902 26.1115 417.06 27.1495 417.06C28.1875 417.06 29.0295 417.902 29.0295 418.94Z" fill="#4A6173"/>
<path d="M25.4045 422.699C25.4045 423.737 24.5625 424.579 23.5245 424.579C22.4865 424.579 21.6445 423.737 21.6445 422.699C21.6445 421.661 22.4865 420.819 23.5245 420.819C24.5625 420.819 25.4045 421.661 25.4045 422.699Z" fill="#4A6173"/>
<path d="M19.1266 422.699C20.1649 422.699 21.0066 421.858 21.0066 420.819C21.0066 419.781 20.1649 418.939 19.1266 418.939C18.0883 418.939 17.2466 419.781 17.2466 420.819C17.2466 421.858 18.0883 422.699 19.1266 422.699Z" fill="#4A6173"/>
<path d="M22.887 426.752C22.887 427.79 22.045 428.632 21.007 428.632C19.969 428.632 19.127 427.79 19.127 426.752C19.127 425.714 19.969 424.872 21.007 424.872C22.045 424.872 22.887 425.713 22.887 426.752Z" fill="#4A6173"/>
<path d="M27.2849 426.752C27.2849 427.79 26.4429 428.632 25.4049 428.632C24.3669 428.632 23.5249 427.79 23.5249 426.752C23.5249 425.714 24.3669 424.872 25.4049 424.872C26.4429 424.872 27.2849 425.713 27.2849 426.752Z" fill="#4A6173"/>
<path d="M26.2219 436.355C26.2219 437.393 25.3799 438.235 24.3419 438.235C23.3039 438.235 22.4619 437.393 22.4619 436.355C22.4619 435.317 23.3039 434.475 24.3419 434.475C25.3799 434.475 26.2219 435.317 26.2219 436.355Z" fill="#4A6173"/>
<path d="M22.887 440.115C22.887 441.153 22.045 441.995 21.007 441.995C19.969 441.995 19.127 441.153 19.127 440.115C19.127 439.077 19.969 438.235 21.007 438.235C22.045 438.234 22.887 439.076 22.887 440.115Z" fill="#4A6173"/>
<path d="M24.7668 445.302C24.7668 446.34 23.9248 447.182 22.8868 447.182C21.8488 447.182 21.0068 446.34 21.0068 445.302C21.0068 444.264 21.8488 443.422 22.8868 443.422C23.9248 443.422 24.7668 444.264 24.7668 445.302Z" fill="#4A6173"/>
<path d="M17.2467 445.031C18.285 445.031 19.1267 444.189 19.1267 443.15C19.1267 442.112 18.285 441.271 17.2467 441.271C16.2084 441.271 15.3667 442.112 15.3667 443.15C15.3667 444.189 16.2084 445.031 17.2467 445.031Z" fill="#4A6173"/>
<path d="M19.4768 429.673C19.4768 430.711 18.6348 431.553 17.5968 431.553C16.5588 431.553 15.7168 430.711 15.7168 429.673C15.7168 428.635 16.5588 427.793 17.5968 427.793C18.6348 427.793 19.4768 428.634 19.4768 429.673Z" fill="#4A6173"/>
<path d="M26.6466 432.928C27.6849 432.928 28.5266 432.087 28.5266 431.048C28.5266 430.01 27.6849 429.168 26.6466 429.168C25.6083 429.168 24.7666 430.01 24.7666 431.048C24.7666 432.087 25.6083 432.928 26.6466 432.928Z" fill="#4A6173"/>
<path d="M23.9875 431.553C23.9875 432.591 23.1455 433.433 22.1075 433.433C21.0695 433.433 20.2275 432.591 20.2275 431.553C20.2275 430.515 21.0695 429.673 22.1075 429.673C23.1455 429.673 23.9875 430.514 23.9875 431.553Z" fill="#4A6173"/>
<path d="M20.7097 435.795C20.7097 436.833 19.8677 437.675 18.8297 437.675C17.7917 437.675 16.9497 436.833 16.9497 435.795C16.9497 434.757 17.7917 433.915 18.8297 433.915C19.8677 433.915 20.7097 434.757 20.7097 435.795Z" fill="#4A6173"/>
<path d="M17.2939 357.282C17.2209 357.282 17.1459 357.266 17.0759 357.232C16.8279 357.111 16.7239 356.812 16.8449 356.564C16.9459 356.356 27.0929 335.605 38.2879 322.339C45.4999 313.794 55.0999 307.565 62.8129 302.561C68.7879 298.685 73.9479 295.336 76.1109 292.137C76.2649 291.908 76.5769 291.848 76.8049 292.003C77.0339 292.157 77.0939 292.468 76.9389 292.697C74.6629 296.066 69.4229 299.465 63.3569 303.401C55.6989 308.37 46.1679 314.554 39.0519 322.985C27.9349 336.157 17.8439 356.796 17.7439 357.003C17.6569 357.179 17.4789 357.282 17.2939 357.282Z" fill="#4A6173"/>
<path d="M76.5711 289.258C75.6751 289.783 75.3751 290.935 75.9001 291.831C76.4251 292.727 77.5771 293.027 78.4731 292.502C79.3691 291.977 79.6691 290.825 79.1441 289.929C78.6191 289.034 77.4671 288.733 76.5711 289.258Z" fill="#4A6173"/>
<path d="M76.7229 294.132C75.8269 294.657 75.5269 295.809 76.0519 296.705C76.5769 297.601 77.7289 297.901 78.6249 297.376C79.5209 296.851 79.8209 295.699 79.2959 294.803C78.7709 293.907 77.6189 293.607 76.7229 294.132Z" fill="#4A6173"/>
<path d="M71.0271 291.85C70.1311 292.375 69.8311 293.527 70.3561 294.423C70.8811 295.319 72.0331 295.619 72.9291 295.094C73.8251 294.569 74.1251 293.417 73.6001 292.521C73.0751 291.625 71.9231 291.325 71.0271 291.85Z" fill="#4A6173"/>
<path d="M72.3909 296.895C71.4949 297.42 71.1949 298.572 71.7199 299.468C72.2449 300.364 73.3969 300.664 74.2929 300.139C75.1889 299.614 75.4889 298.462 74.9639 297.566C74.4379 296.67 73.2859 296.37 72.3909 296.895Z" fill="#4A6173"/>
<path d="M67.2991 295.644C66.4031 296.169 66.1031 297.321 66.6281 298.217C67.1531 299.113 68.3051 299.413 69.2011 298.888C70.0971 298.363 70.3971 297.211 69.8721 296.315C69.3471 295.419 68.1951 295.119 67.2991 295.644Z" fill="#4A6173"/>
<path d="M65.5091 300.025C64.6131 300.55 64.3131 301.702 64.8381 302.598C65.3631 303.494 66.5151 303.794 67.4111 303.269C68.3071 302.744 68.6071 301.592 68.0821 300.696C67.5571 299.801 66.4051 299.5 65.5091 300.025Z" fill="#4A6173"/>
<path d="M70.034 301.731C69.138 302.256 68.838 303.408 69.363 304.304C69.888 305.2 71.04 305.5 71.936 304.975C72.832 304.45 73.132 303.298 72.607 302.402C72.082 301.507 70.93 301.206 70.034 301.731Z" fill="#4A6173"/>
<path d="M61.7308 297.299C60.8348 297.824 60.5347 298.976 61.0597 299.872C61.5847 300.768 62.7367 301.068 63.6327 300.543C64.5287 300.018 64.8288 298.866 64.3038 297.97C63.7788 297.074 62.6268 296.774 61.7308 297.299Z" fill="#4A6173"/>
<path d="M60.3211 302.327C59.4251 302.852 59.1251 304.004 59.6501 304.9C60.1751 305.796 61.3271 306.096 62.2231 305.571C63.1191 305.046 63.4191 303.894 62.8941 302.998C62.3681 302.103 61.2161 301.802 60.3211 302.327Z" fill="#4A6173"/>
<path d="M64.1658 305.171C63.2698 305.696 62.9698 306.848 63.4948 307.744C64.0198 308.64 65.1718 308.94 66.0678 308.415C66.9638 307.89 67.2638 306.738 66.7388 305.842C66.2138 304.946 65.0618 304.646 64.1658 305.171Z" fill="#4A6173"/>
<path d="M58.0979 306.548C57.2019 307.073 56.9019 308.225 57.4269 309.121C57.9519 310.017 59.1039 310.317 59.9999 309.792C60.8959 309.267 61.1959 308.115 60.6709 307.219C60.1459 306.324 58.9939 306.023 58.0979 306.548Z" fill="#4A6173"/>
<path d="M55.8738 302.754C54.9778 303.279 54.6778 304.431 55.2028 305.327C55.7278 306.223 56.8798 306.523 57.7758 305.998C58.6718 305.473 58.9718 304.321 58.4468 303.425C57.9218 302.53 56.7698 302.229 55.8738 302.754Z" fill="#4A6173"/>
<path d="M48.1258 308.527C47.2298 309.052 46.9298 310.204 47.4548 311.1C47.9798 311.996 49.1318 312.296 50.0278 311.771C50.9238 311.246 51.2238 310.094 50.6988 309.198C50.1738 308.303 49.0218 308.002 48.1258 308.527Z" fill="#4A6173"/>
<path d="M46.5691 313.306C45.6731 313.831 45.3731 314.983 45.8981 315.879C46.4231 316.775 47.5751 317.075 48.4711 316.55C49.3671 316.025 49.6671 314.873 49.1421 313.977C48.6161 313.081 47.4651 312.781 46.5691 313.306Z" fill="#4A6173"/>
<path d="M41.1429 314.307C40.2469 314.832 39.9469 315.984 40.4719 316.88C40.9969 317.776 42.1489 318.076 43.0449 317.551C43.9409 317.026 44.2409 315.874 43.7159 314.978C43.1899 314.083 42.0389 313.782 41.1429 314.307Z" fill="#4A6173"/>
<path d="M45.8509 318.085C44.9549 318.61 44.6549 319.762 45.1799 320.658C45.7049 321.554 46.8569 321.854 47.7529 321.329C48.6489 320.804 48.9489 319.652 48.4239 318.756C47.8989 317.86 46.7469 317.56 45.8509 318.085Z" fill="#4A6173"/>
<path d="M57.302 310.968C56.406 311.493 56.106 312.645 56.631 313.541C57.156 314.437 58.3081 314.737 59.2041 314.212C60.1001 313.687 60.4 312.535 59.875 311.639C59.349 310.743 58.198 310.442 57.302 310.968Z" fill="#4A6173"/>
<path d="M51.5389 303.855C50.6429 304.38 50.3429 305.532 50.8679 306.428C51.3929 307.324 52.5449 307.624 53.4409 307.099C54.3369 306.574 54.6369 305.422 54.1119 304.526C53.5869 303.631 52.4349 303.33 51.5389 303.855Z" fill="#4A6173"/>
<path d="M39.2039 319.396C38.3079 319.921 38.0079 321.073 38.5329 321.969C39.0579 322.865 40.2099 323.165 41.1059 322.64C42.0019 322.115 42.3019 320.963 41.7769 320.067C41.2519 319.171 40.0999 318.871 39.2039 319.396Z" fill="#4A6173"/>
<path d="M53.3987 308.026C52.5027 308.551 52.2027 309.703 52.7277 310.599C53.2527 311.495 54.4047 311.795 55.3007 311.27C56.1967 310.745 56.4967 309.593 55.9717 308.697C55.4457 307.802 54.2947 307.501 53.3987 308.026Z" fill="#4A6173"/>
<path d="M51.3968 312.999C50.5008 313.524 50.2008 314.676 50.7258 315.572C51.2508 316.468 52.4028 316.768 53.2988 316.243C54.1948 315.718 54.4948 314.566 53.9698 313.67C53.4438 312.775 52.2918 312.474 51.3968 312.999Z" fill="#4A6173"/>
</g>
<g filter="url(#filter6_d_124_12850)">
<path d="M310.107 -12.8806C310.268 -12.8806 310.425 -12.8037 310.522 -12.6597C310.676 -12.4307 310.616 -12.1197 310.387 -11.9657C292.502 0.0923424 286.262 30.2953 286.202 30.5983C286.148 30.8693 285.886 31.0473 285.614 30.9903C285.343 30.9363 285.168 30.6723 285.222 30.4023C285.284 30.0943 291.607 -0.509651 309.829 -12.7947C309.914 -12.8526 310.011 -12.8806 310.107 -12.8806Z" fill="#4A6173"/>
<path d="M330.556 60.4482C330.564 60.4482 330.573 60.4482 330.581 60.4492C330.857 60.4632 331.069 60.6972 331.056 60.9732C329.335 96.2332 288.487 127.798 288.074 128.113C287.854 128.282 287.541 128.238 287.373 128.019C287.206 127.8 287.247 127.486 287.467 127.318C287.876 127.006 328.359 95.7182 330.056 60.9242C330.071 60.6562 330.292 60.4482 330.556 60.4482Z" fill="#4A6173"/>
<path d="M313.918 100.374C314.005 100.374 314.094 100.397 314.174 100.445C314.411 100.587 314.488 100.894 314.346 101.131C303.269 119.631 310.427 149.634 310.501 149.936C310.566 150.204 310.402 150.475 310.134 150.54C309.869 150.606 309.596 150.441 309.53 150.173C309.456 149.868 302.199 119.472 313.488 100.617C313.582 100.461 313.748 100.374 313.918 100.374Z" fill="#4A6173"/>
<path d="M322.106 87.768C322.356 87.768 322.572 87.956 322.602 88.21C322.634 88.484 322.438 88.732 322.164 88.765C291.782 92.329 261.608 117.036 261.307 117.286C261.094 117.462 260.778 117.431 260.603 117.22C260.427 117.007 260.457 116.692 260.669 116.516C260.973 116.265 291.369 91.372 322.048 87.773C322.067 87.769 322.087 87.768 322.106 87.768Z" fill="#4A6173"/>
<path d="M298.7 -1.30777L298.902 -0.920776C299.007 -0.719776 309.084 19.4602 284.091 39.9742L283.512 40.4492L283.295 39.7332C277.281 19.8732 287.975 2.53022 298.289 -1.15977L298.7 -1.30777ZM284.039 38.7172C305.78 20.4722 299.432 2.80623 298.198 -0.0577698C288.741 3.71023 278.84 20.2752 284.039 38.7172Z" fill="#4A6173"/>
<path d="M298.492 -0.553743L298.543 -0.0717487C299.572 9.59325 294.38 23.2732 294.327 23.4102C294.277 23.5392 294.133 23.6023 294.004 23.5543C293.875 23.5053 293.811 23.3603 293.86 23.2313C293.911 23.0973 298.887 9.98426 298.092 0.472258C294.748 3.51826 288.564 10.2933 286.834 16.3063C286.795 16.4393 286.661 16.5172 286.524 16.4772C286.392 16.4392 286.315 16.3003 286.353 16.1673C288.18 9.81525 294.854 2.66225 298.128 -0.233751L298.492 -0.553743Z" fill="#4A6173"/>
<path d="M308.585 114.265L308.918 114.547C309.091 114.694 326.069 129.544 310.723 158.004L310.368 158.663L309.895 158.082C296.798 141.986 300.116 121.884 308.26 114.558L308.585 114.265ZM310.199 156.859C323.396 131.732 310.823 117.793 308.595 115.612C301.273 122.683 298.393 141.766 310.199 156.859Z" fill="#4A6173"/>
<path d="M308.679 115.041L308.909 115.467C313.526 124.02 313.91 138.647 313.913 138.794C313.916 138.932 313.807 139.047 313.669 139.05C313.524 139.028 313.416 138.943 313.413 138.806C313.41 138.663 313.041 124.641 308.698 116.141C306.759 120.229 303.606 128.844 304.285 135.062C304.3 135.199 304.201 135.323 304.064 135.338C303.933 135.351 303.803 135.254 303.788 135.117C303.07 128.548 306.533 119.396 308.464 115.475L308.679 115.041Z" fill="#4A6173"/>
<path d="M300.761 112.119C301.866 112.119 302.924 112.218 303.92 112.415L304.348 112.499L304.322 112.935C304.308 113.162 302.597 135.652 270.618 140.426L269.877 140.536L270.059 139.81C274.628 121.544 289.936 112.119 300.761 112.119ZM303.275 113.315C293.228 111.686 276.226 120.825 271.22 139.321C299.207 134.83 302.859 116.406 303.275 113.315Z" fill="#4A6173"/>
<path d="M303.784 113.039L303.581 113.479C299.502 122.302 288.023 131.376 287.907 131.466C287.8 131.551 287.642 131.533 287.556 131.423C287.471 131.315 287.49 131.157 287.598 131.072C287.71 130.984 298.714 122.285 302.914 113.714C298.48 114.612 289.694 117.251 285.123 121.523C285.021 121.617 284.864 121.612 284.769 121.511C284.675 121.41 284.68 121.252 284.781 121.157C289.61 116.645 299.011 113.932 303.307 113.128L303.784 113.039Z" fill="#4A6173"/>
<path d="M286.59 96.3199C288.61 96.3199 290.493 96.5949 292.154 97.1399L292.569 97.2759L292.49 97.7049C292.449 97.9289 288.033 120.047 255.712 120.923L254.963 120.943L255.231 120.244C261.476 103.961 275.95 96.3199 286.59 96.3199ZM291.405 97.9549C281.628 95.1309 263.647 102.143 256.444 119.898C284.768 118.821 290.618 100.974 291.405 97.9549Z" fill="#4A6173"/>
<path d="M291.943 97.7428L291.688 98.1548C286.574 106.42 274.083 114.041 273.957 114.117C273.838 114.187 273.685 114.151 273.614 114.033C273.543 113.915 273.58 113.761 273.699 113.69C273.822 113.616 285.795 106.31 290.999 98.3088C286.49 98.6648 277.449 100.223 272.395 103.912C272.284 103.992 272.127 103.969 272.045 103.857C271.964 103.745 271.988 103.589 272.1 103.507C277.438 99.6108 287.098 98.0528 291.459 97.7738L291.943 97.7428Z" fill="#4A6173"/>
<path d="M340.583 -37.6423C340.708 -37.6423 340.834 -37.5953 340.931 -37.5013C341.129 -37.3093 341.134 -36.9923 340.942 -36.7943C340.684 -36.5273 315.039 -9.90226 311.265 9.15674C309.539 17.8737 308.746 26.8197 308.047 34.7127C307.193 44.3477 306.456 52.6687 304.275 57.2277C304.156 57.4767 303.859 57.5827 303.608 57.4627C303.359 57.3437 303.254 57.0447 303.373 56.7957C305.477 52.3997 306.206 44.1627 307.052 34.6247C307.754 26.7067 308.549 17.7327 310.286 8.96274C314.117 -10.3863 339.965 -37.2213 340.226 -37.4903C340.323 -37.5923 340.453 -37.6423 340.583 -37.6423Z" fill="#4A6173"/>
<path d="M301.123 58.6488C301.123 57.6108 301.965 56.7688 303.003 56.7688C304.041 56.7688 304.883 57.6108 304.883 58.6488C304.883 59.6868 304.041 60.5288 303.003 60.5288C301.965 60.5288 301.123 59.6868 301.123 58.6488Z" fill="#4A6173"/>
<path d="M305.404 56.3148C305.404 55.2768 306.246 54.4348 307.284 54.4348C308.322 54.4348 309.164 55.2768 309.164 56.3148C309.164 57.3528 308.322 58.1948 307.284 58.1948C306.246 58.1948 305.404 57.3538 305.404 56.3148Z" fill="#4A6173"/>
<path d="M300.555 52.5546C300.555 51.5166 301.397 50.6746 302.435 50.6746C303.473 50.6746 304.315 51.5166 304.315 52.5546C304.315 53.5926 303.473 54.4346 302.435 54.4346C301.397 54.4346 300.555 53.5936 300.555 52.5546Z" fill="#4A6173"/>
<path d="M305.597 51.1796C305.597 50.1416 306.439 49.2996 307.477 49.2996C308.515 49.2996 309.357 50.1416 309.357 51.1796C309.357 52.2176 308.515 53.0596 307.477 53.0596C306.439 53.0596 305.597 52.2186 305.597 51.1796Z" fill="#4A6173"/>
<path d="M301.943 47.4198C301.943 46.3818 302.785 45.5398 303.823 45.5398C304.861 45.5398 305.703 46.3818 305.703 47.4198C305.703 48.4578 304.861 49.2998 303.823 49.2998C302.785 49.2998 301.943 48.4588 301.943 47.4198Z" fill="#4A6173"/>
<path d="M304.818 43.66C304.818 42.622 305.66 41.78 306.698 41.78C307.736 41.78 308.578 42.622 308.578 43.66C308.578 44.698 307.736 45.54 306.698 45.54C305.66 45.54 304.818 44.699 304.818 43.66Z" fill="#4A6173"/>
<path d="M310.458 44.822C309.42 44.822 308.578 45.6637 308.578 46.702C308.578 47.7403 309.42 48.582 310.458 48.582C311.497 48.582 312.338 47.7403 312.338 46.702C312.338 45.6637 311.497 44.822 310.458 44.822Z" fill="#4A6173"/>
<path d="M300.555 41.7797C300.555 40.7417 301.397 39.8997 302.435 39.8997C303.473 39.8997 304.315 40.7417 304.315 41.7797C304.315 42.8177 303.473 43.6597 302.435 43.6597C301.397 43.6597 300.555 42.8177 300.555 41.7797Z" fill="#4A6173"/>
<path d="M304.18 38.0199C304.18 36.9819 305.022 36.1399 306.06 36.1399C307.098 36.1399 307.94 36.9819 307.94 38.0199C307.94 39.0579 307.098 39.8999 306.06 39.8999C305.022 39.8999 304.18 39.0579 304.18 38.0199Z" fill="#4A6173"/>
<path d="M310.458 38.0198C309.42 38.0198 308.578 38.8615 308.578 39.8998C308.578 40.9381 309.42 41.7798 310.458 41.7798C311.497 41.7798 312.338 40.9381 312.338 39.8998C312.338 38.8615 311.497 38.0198 310.458 38.0198Z" fill="#4A6173"/>
<path d="M306.698 33.9677C306.698 32.9297 307.54 32.0877 308.578 32.0877C309.616 32.0877 310.458 32.9297 310.458 33.9677C310.458 35.0057 309.616 35.8477 308.578 35.8477C307.54 35.8477 306.698 35.0067 306.698 33.9677Z" fill="#4A6173"/>
<path d="M302.3 33.9677C302.3 32.9297 303.142 32.0877 304.18 32.0877C305.218 32.0877 306.06 32.9297 306.06 33.9677C306.06 35.0057 305.218 35.8477 304.18 35.8477C303.142 35.8477 302.3 35.0067 302.3 33.9677Z" fill="#4A6173"/>
<path d="M303.363 24.3646C303.363 23.3266 304.205 22.4846 305.243 22.4846C306.281 22.4846 307.123 23.3266 307.123 24.3646C307.123 25.4026 306.281 26.2446 305.243 26.2446C304.205 26.2446 303.363 25.4026 303.363 24.3646Z" fill="#4A6173"/>
<path d="M306.698 20.6039C306.698 19.5659 307.54 18.7239 308.578 18.7239C309.616 18.7239 310.458 19.5659 310.458 20.6039C310.458 21.6419 309.616 22.4839 308.578 22.4839C307.54 22.4849 306.698 21.6429 306.698 20.6039Z" fill="#4A6173"/>
<path d="M304.818 15.4169C304.818 14.3789 305.66 13.5369 306.698 13.5369C307.736 13.5369 308.578 14.3789 308.578 15.4169C308.578 16.4549 307.736 17.2969 306.698 17.2969C305.66 17.2969 304.818 16.4549 304.818 15.4169Z" fill="#4A6173"/>
<path d="M312.338 15.6887C311.3 15.6887 310.458 16.5304 310.458 17.5687C310.458 18.607 311.3 19.4487 312.338 19.4487C313.377 19.4487 314.218 18.607 314.218 17.5687C314.218 16.5304 313.377 15.6887 312.338 15.6887Z" fill="#4A6173"/>
<path d="M310.108 31.0458C310.108 30.0078 310.95 29.1658 311.988 29.1658C313.026 29.1658 313.868 30.0078 313.868 31.0458C313.868 32.0838 313.026 32.9258 311.988 32.9258C310.95 32.9258 310.108 32.0848 310.108 31.0458Z" fill="#4A6173"/>
<path d="M302.938 27.7908C301.9 27.7908 301.058 28.6325 301.058 29.6708C301.058 30.7091 301.9 31.5508 302.938 31.5508C303.977 31.5508 304.818 30.7091 304.818 29.6708C304.818 28.6325 303.977 27.7908 302.938 27.7908Z" fill="#4A6173"/>
<path d="M305.597 29.1659C305.597 28.1279 306.439 27.2859 307.477 27.2859C308.515 27.2859 309.357 28.1279 309.357 29.1659C309.357 30.2039 308.515 31.0459 307.477 31.0459C306.439 31.0459 305.597 30.2049 305.597 29.1659Z" fill="#4A6173"/>
<path d="M308.875 24.9247C308.875 23.8867 309.717 23.0447 310.755 23.0447C311.793 23.0447 312.635 23.8867 312.635 24.9247C312.635 25.9627 311.793 26.8047 310.755 26.8047C309.717 26.8047 308.875 25.9627 308.875 24.9247Z" fill="#4A6173"/>
<path d="M312.291 103.437C312.364 103.437 312.439 103.453 312.509 103.487C312.757 103.608 312.861 103.907 312.74 104.155C312.639 104.363 302.492 125.114 291.297 138.38C284.085 146.925 274.485 153.154 266.772 158.158C260.797 162.034 255.637 165.383 253.474 168.582C253.32 168.811 253.008 168.871 252.78 168.716C252.551 168.562 252.491 168.251 252.646 168.022C254.922 164.653 260.162 161.254 266.228 157.318C273.886 152.349 283.417 146.165 290.533 137.734C301.65 124.562 311.741 103.923 311.841 103.716C311.928 103.54 312.106 103.437 312.291 103.437Z" fill="#4A6173"/>
<path d="M253.014 171.461C253.91 170.936 254.21 169.784 253.685 168.888C253.16 167.992 252.008 167.692 251.112 168.217C250.216 168.742 249.916 169.894 250.441 170.79C250.966 171.685 252.118 171.986 253.014 171.461Z" fill="#4A6173"/>
<path d="M252.862 166.587C253.758 166.062 254.058 164.91 253.533 164.014C253.008 163.118 251.856 162.818 250.96 163.343C250.064 163.868 249.764 165.02 250.289 165.916C250.814 166.812 251.966 167.112 252.862 166.587Z" fill="#4A6173"/>
<path d="M258.558 168.869C259.454 168.344 259.754 167.192 259.229 166.296C258.704 165.4 257.552 165.1 256.656 165.625C255.76 166.15 255.46 167.302 255.985 168.198C256.51 169.094 257.662 169.394 258.558 168.869Z" fill="#4A6173"/>
<path d="M257.194 163.824C258.09 163.299 258.39 162.147 257.865 161.251C257.34 160.355 256.188 160.055 255.292 160.58C254.396 161.105 254.096 162.257 254.621 163.153C255.147 164.049 256.299 164.349 257.194 163.824Z" fill="#4A6173"/>
<path d="M262.286 165.075C263.182 164.55 263.482 163.398 262.957 162.502C262.432 161.606 261.28 161.306 260.384 161.831C259.488 162.356 259.188 163.508 259.713 164.404C260.238 165.3 261.39 165.6 262.286 165.075Z" fill="#4A6173"/>
<path d="M264.076 160.694C264.972 160.169 265.272 159.017 264.747 158.121C264.222 157.225 263.07 156.925 262.174 157.45C261.278 157.975 260.978 159.127 261.503 160.023C262.028 160.918 263.18 161.219 264.076 160.694Z" fill="#4A6173"/>
<path d="M259.551 158.988C260.447 158.463 260.747 157.311 260.222 156.415C259.697 155.519 258.545 155.219 257.649 155.744C256.753 156.269 256.453 157.421 256.978 158.317C257.503 159.212 258.655 159.513 259.551 158.988Z" fill="#4A6173"/>
<path d="M267.854 163.42C268.75 162.895 269.05 161.743 268.525 160.847C268 159.951 266.848 159.651 265.952 160.176C265.056 160.701 264.756 161.853 265.281 162.749C265.806 163.645 266.958 163.945 267.854 163.42Z" fill="#4A6173"/>
<path d="M269.264 158.392C270.16 157.867 270.46 156.715 269.935 155.819C269.41 154.923 268.258 154.623 267.362 155.148C266.466 155.673 266.166 156.825 266.691 157.721C267.217 158.616 268.369 158.917 269.264 158.392Z" fill="#4A6173"/>
<path d="M265.419 155.548C266.315 155.023 266.615 153.871 266.09 152.975C265.565 152.079 264.413 151.779 263.517 152.304C262.621 152.829 262.321 153.981 262.846 154.877C263.371 155.773 264.523 156.073 265.419 155.548Z" fill="#4A6173"/>
<path d="M271.487 154.171C272.383 153.646 272.683 152.494 272.158 151.598C271.633 150.702 270.481 150.402 269.585 150.927C268.689 151.452 268.389 152.604 268.914 153.5C269.439 154.395 270.591 154.696 271.487 154.171Z" fill="#4A6173"/>
<path d="M273.711 157.965C274.607 157.44 274.907 156.288 274.382 155.392C273.857 154.496 272.705 154.196 271.809 154.721C270.913 155.246 270.613 156.398 271.138 157.294C271.663 158.189 272.815 158.49 273.711 157.965Z" fill="#4A6173"/>
<path d="M281.459 152.192C282.355 151.667 282.655 150.515 282.13 149.619C281.605 148.723 280.453 148.423 279.557 148.948C278.661 149.473 278.361 150.625 278.886 151.521C279.411 152.416 280.563 152.717 281.459 152.192Z" fill="#4A6173"/>
<path d="M283.016 147.413C283.912 146.888 284.212 145.736 283.687 144.84C283.162 143.944 282.01 143.644 281.114 144.169C280.218 144.694 279.918 145.846 280.443 146.742C280.969 147.638 282.12 147.938 283.016 147.413Z" fill="#4A6173"/>
<path d="M288.442 146.412C289.338 145.887 289.638 144.735 289.113 143.839C288.588 142.943 287.436 142.643 286.54 143.168C285.644 143.693 285.344 144.845 285.869 145.741C286.395 146.636 287.546 146.937 288.442 146.412Z" fill="#4A6173"/>
<path d="M283.734 142.634C284.63 142.109 284.93 140.957 284.405 140.061C283.88 139.165 282.728 138.865 281.832 139.39C280.936 139.915 280.636 141.067 281.161 141.963C281.686 142.859 282.838 143.159 283.734 142.634Z" fill="#4A6173"/>
<path d="M272.283 149.751C273.179 149.226 273.479 148.074 272.954 147.178C272.429 146.282 271.277 145.982 270.381 146.507C269.485 147.032 269.185 148.184 269.71 149.08C270.236 149.976 271.387 150.277 272.283 149.751Z" fill="#4A6173"/>
<path d="M278.046 156.864C278.942 156.339 279.242 155.187 278.717 154.291C278.192 153.395 277.04 153.095 276.144 153.62C275.248 154.145 274.948 155.297 275.473 156.193C275.998 157.088 277.15 157.389 278.046 156.864Z" fill="#4A6173"/>
<path d="M290.381 141.323C291.277 140.798 291.577 139.646 291.052 138.75C290.527 137.854 289.375 137.554 288.479 138.079C287.583 138.604 287.283 139.756 287.808 140.652C288.333 141.548 289.485 141.848 290.381 141.323Z" fill="#4A6173"/>
<path d="M276.186 152.693C277.082 152.168 277.382 151.016 276.857 150.12C276.332 149.224 275.18 148.924 274.284 149.449C273.388 149.974 273.088 151.126 273.613 152.022C274.139 152.917 275.29 153.218 276.186 152.693Z" fill="#4A6173"/>
<path d="M278.188 147.72C279.084 147.195 279.384 146.043 278.859 145.147C278.334 144.251 277.182 143.951 276.286 144.476C275.39 145.001 275.09 146.153 275.615 147.049C276.141 147.944 277.293 148.245 278.188 147.72Z" fill="#4A6173"/>
</g>
</g>
<rect x="16.5" y="16.5" width="297" height="428" rx="13.5" stroke="white" stroke-width="3"/>
</g>
<defs>
<filter id="filter0_d_124_12850" x="114" y="128.074" width="101.172" height="56.1719" filterUnits="userSpaceOnUse" color-interpolation-filters="sRGB">
<feFlood flood-opacity="0" result="BackgroundImageFix"/>
<feColorMatrix in="SourceAlpha" type="matrix" values="0 0 0 0 0 0 0 0 0 0 0 0 0 0 0 0 0 0 127 0" result="hardAlpha"/>
<feOffset dy="10"/>
<feGaussianBlur stdDeviation="7.5"/>
<feComposite in2="hardAlpha" operator="out"/>
<feColorMatrix type="matrix" values="0 0 0 0 0 0 0 0 0 0 0 0 0 0 0 0 0 0 0.8 0"/>
<feBlend mode="normal" in2="BackgroundImageFix" result="effect1_dropShadow_124_12850"/>
<feBlend mode="normal" in="SourceGraphic" in2="effect1_dropShadow_124_12850" result="shape"/>
</filter>
<filter id="filter1_d_124_12850" x="64.2305" y="200.996" width="205.645" height="61.8359" filterUnits="userSpaceOnUse" color-interpolation-filters="sRGB">
<feFlood flood-opacity="0" result="BackgroundImageFix"/>
<feColorMatrix in="SourceAlpha" type="matrix" values="0 0 0 0 0 0 0 0 0 0 0 0 0 0 0 0 0 0 127 0" result="hardAlpha"/>
<feOffset dy="10"/>
<feGaussianBlur stdDeviation="7.5"/>
<feComposite in2="hardAlpha" operator="out"/>
<feColorMatrix type="matrix" values="0 0 0 0 0 0 0 0 0 0 0 0 0 0 0 0 0 0 0.8 0"/>
<feBlend mode="normal" in2="BackgroundImageFix" result="effect1_dropShadow_124_12850"/>
<feBlend mode="normal" in="SourceGraphic" in2="effect1_dropShadow_124_12850" result="shape"/>
</filter>
<filter id="filter2_d_124_12850" x="111.526" y="279.082" width="108.257" height="57.2852" filterUnits="userSpaceOnUse" color-interpolation-filters="sRGB">
<feFlood flood-opacity="0" result="BackgroundImageFix"/>
<feColorMatrix in="SourceAlpha" type="matrix" values="0 0 0 0 0 0 0 0 0 0 0 0 0 0 0 0 0 0 127 0" result="hardAlpha"/>
<feOffset dy="10"/>
<feGaussianBlur stdDeviation="7.5"/>
<feComposite in2="hardAlpha" operator="out"/>
<feColorMatrix type="matrix" values="0 0 0 0 0 0 0 0 0 0 0 0 0 0 0 0 0 0 0.8 0"/>
<feBlend mode="normal" in2="BackgroundImageFix" result="effect1_dropShadow_124_12850"/>
<feBlend mode="normal" in="SourceGraphic" in2="effect1_dropShadow_124_12850" result="shape"/>
</filter>
<filter id="filter3_d_124_12850" x="224" y="278" width="176.83" height="234.859" filterUnits="userSpaceOnUse" color-interpolation-filters="sRGB">
<feFlood flood-opacity="0" result="BackgroundImageFix"/>
<feColorMatrix in="SourceAlpha" type="matrix" values="0 0 0 0 0 0 0 0 0 0 0 0 0 0 0 0 0 0 127 0" result="hardAlpha"/>
<feOffset dy="10"/>
<feGaussianBlur stdDeviation="7.5"/>
<feComposite in2="hardAlpha" operator="out"/>
<feColorMatrix type="matrix" values="0 0 0 0 0 0 0 0 0 0 0 0 0 0 0 0 0 0 0.8 0"/>
<feBlend mode="normal" in2="BackgroundImageFix" result="effect1_dropShadow_124_12850"/>
<feBlend mode="normal" in="SourceGraphic" in2="effect1_dropShadow_124_12850" result="shape"/>
</filter>
<filter id="filter4_d_124_12850" x="-71.0005" y="-32" width="176.83" height="234.859" filterUnits="userSpaceOnUse" color-interpolation-filters="sRGB">
<feFlood flood-opacity="0" result="BackgroundImageFix"/>
<feColorMatrix in="SourceAlpha" type="matrix" values="0 0 0 0 0 0 0 0 0 0 0 0 0 0 0 0 0 0 127 0" result="hardAlpha"/>
<feOffset dy="10"/>
<feGaussianBlur stdDeviation="7.5"/>
<feComposite in2="hardAlpha" operator="out"/>
<feColorMatrix type="matrix" values="0 0 0 0 0 0 0 0 0 0 0 0 0 0 0 0 0 0 0.8 0"/>
<feBlend mode="normal" in2="BackgroundImageFix" result="effect1_dropShadow_124_12850"/>
<feBlend mode="normal" in="SourceGraphic" in2="effect1_dropShadow_124_12850" result="shape"/>
</filter>
<filter id="filter5_d_124_12850" x="-80" y="284" width="175.585" height="278.719" filterUnits="userSpaceOnUse" color-interpolation-filters="sRGB">
<feFlood flood-opacity="0" result="BackgroundImageFix"/>
<feColorMatrix in="SourceAlpha" type="matrix" values="0 0 0 0 0 0 0 0 0 0 0 0 0 0 0 0 0 0 127 0" result="hardAlpha"/>
<feOffset dy="10"/>
<feGaussianBlur stdDeviation="7.5"/>
<feComposite in2="hardAlpha" operator="out"/>
<feColorMatrix type="matrix" values="0 0 0 0 0 0 0 0 0 0 0 0 0 0 0 0 0 0 0.8 0"/>
<feBlend mode="normal" in2="BackgroundImageFix" result="effect1_dropShadow_124_12850"/>
<feBlend mode="normal" in="SourceGraphic" in2="effect1_dropShadow_124_12850" result="shape"/>
</filter>
<filter id="filter6_d_124_12850" x="234" y="-82" width="175.585" height="278.719" filterUnits="userSpaceOnUse" color-interpolation-filters="sRGB">
<feFlood flood-opacity="0" result="BackgroundImageFix"/>
<feColorMatrix in="SourceAlpha" type="matrix" values="0 0 0 0 0 0 0 0 0 0 0 0 0 0 0 0 0 0 127 0" result="hardAlpha"/>
<feOffset dy="10"/>
<feGaussianBlur stdDeviation="7.5"/>
<feComposite in2="hardAlpha" operator="out"/>
<feColorMatrix type="matrix" values="0 0 0 0 0 0 0 0 0 0 0 0 0 0 0 0 0 0 0.8 0"/>
<feBlend mode="normal" in2="BackgroundImageFix" result="effect1_dropShadow_124_12850"/>
<feBlend mode="normal" in="SourceGraphic" in2="effect1_dropShadow_124_12850" result="shape"/>
</filter>
<clipPath id="clip0_124_12850">
<rect width="330" height="461" rx="15" fill="white"/>
</clipPath>
<clipPath id="clip1_124_12850">
<rect x="15" y="15" width="300" height="431" rx="15" fill="white"/>
</clipPath>
</defs>
</svg>
